<svg width="33" height="33" viewBox="0 0 33 33" fill="none" xmlns="http://www.w3.org/2000/svg">
<g opacity="0.1">
<g clip-path="url(#clip0_5014_5808)">
<path d="M16.2709 0.136108C18.3926 0.154157 20.4201 1.01429 21.9076 2.52729C23.3951 4.04029 24.2206 6.08222 24.2026 8.20387C24.1845 10.3255 23.3244 12.3531 21.8114 13.8406C20.2984 15.3281 18.2565 16.1536 16.1348 16.1355C14.0131 16.1175 11.9856 15.2573 10.4981 13.7443C9.01061 12.2313 8.18509 10.1894 8.20314 8.06776C8.22119 5.94611 9.08132 3.91852 10.5943 2.43105C12.1073 0.943573 14.1493 0.118059 16.2709 0.136108ZM16.1008 20.1354C24.9405 20.2106 32.0697 23.8514 32.0321 28.2712V28.2712C32.0133 30.4803 30.2073 32.2558 27.9983 32.237L3.99912 32.0329C1.79006 32.0141 0.0145025 30.208 0.0332951 27.999V27.999C0.070895 23.5791 7.26109 20.0602 16.1008 20.1354Z" fill="#0C0252"/>
</g>
</g>
<defs>
<clipPath id="clip0_5014_5808">
<rect x="0.271484" width="32" height="32" rx="1" transform="rotate(0.487407 0.271484 0)" fill="white"/>
</clipPath>
</defs>
</svg>
