<svg width="1167" height="645" viewBox="0 0 1167 645" fill="none" xmlns="http://www.w3.org/2000/svg">
<path d="M494.546 615.021C493.82 607.036 492.073 597.84 478.231 586.36C462.884 573.615 463.825 570.442 459.04 561.946C454.229 553.45 451.353 541.162 431.222 541.162C411.091 541.162 408.188 553.45 403.404 561.946C398.593 570.442 399.56 573.615 384.213 586.36C370.371 597.84 368.624 607.036 367.898 615.021C366.931 625.642 370.774 630.939 370.774 630.939C376.526 644.732 397.652 646.856 404.371 643.683C406.898 642.5 411.306 641.263 415.848 640.215C426.008 637.849 436.49 637.849 446.65 640.215C451.192 641.263 455.6 642.473 458.127 643.683C464.846 646.856 485.945 644.732 491.724 630.939C491.724 630.939 495.567 625.642 494.6 615.021H494.546Z" fill="#ECCF37"/>
<path d="M412.583 540.664C420.021 539.862 425.11 530.475 423.949 519.698C422.788 508.92 415.817 500.833 408.379 501.635C400.94 502.436 395.851 511.824 397.012 522.601C398.173 533.379 405.144 541.466 412.583 540.664Z" fill="#ECCF37"/>
<path d="M388.848 570.551C396.128 568.121 399.31 557.999 395.956 547.941C392.602 537.884 383.981 531.7 376.701 534.13C369.421 536.559 366.239 546.682 369.593 556.74C372.947 566.797 381.568 572.981 388.848 570.551Z" fill="#ECCF37"/>
<path d="M465.812 522.585C466.973 511.807 461.884 502.42 454.446 501.619C447.007 500.817 440.036 508.904 438.875 519.682C437.715 530.459 442.803 539.846 450.242 540.648C457.68 541.45 464.651 533.363 465.812 522.585Z" fill="#ECCF37"/>
<path d="M431.219 612.467C440.527 612.467 448.072 601.536 448.072 588.053C448.072 574.57 440.527 563.64 431.219 563.64C421.912 563.64 414.367 574.57 414.367 588.053C414.367 601.536 421.912 612.467 431.219 612.467Z" fill="white"/>
<path d="M493.343 556.899C496.697 546.842 493.515 536.719 486.235 534.289C478.955 531.86 470.334 538.043 466.98 548.101C463.625 558.158 466.808 568.281 474.088 570.711C481.368 573.14 489.988 566.957 493.343 556.899Z" fill="#ECCF37"/>
<path d="M353.356 570.522C349.351 577.405 343.169 582.944 334.864 587.166C326.559 591.387 316.238 593.511 303.901 593.511H281.108V645H244.34V501.557H303.901C315.942 501.557 326.128 503.519 334.434 507.472C342.739 511.424 348.974 516.882 353.14 523.819C357.307 530.756 359.376 538.742 359.376 547.722C359.376 556.03 357.36 563.639 353.356 570.495V570.522ZM316.802 561.031C320.242 557.885 321.962 553.476 321.962 547.749C321.962 542.022 320.242 537.612 316.802 534.467C313.362 531.321 308.12 529.761 301.105 529.761H281.108V565.736H301.105C308.12 565.736 313.362 564.177 316.802 561.031Z" fill="#ECCF37"/>
<path d="M683.844 530.972L651.376 645H610.737L591.815 571.034L572.248 645H531.824L499.141 530.972H535.909L552.896 612.494L573.108 530.972H612.027L632.454 612.09L649.225 530.972H683.844Z" fill="#ECCF37"/>
<path d="M800.383 570.522C796.378 577.405 790.196 582.944 781.891 587.166C773.586 591.387 763.265 593.511 750.928 593.511H728.136V645H691.367V501.557H750.928C762.969 501.557 773.156 503.519 781.461 507.472C789.766 511.424 796.002 516.882 800.168 523.819C804.334 530.756 806.403 538.742 806.403 547.722C806.403 556.03 804.388 563.639 800.383 570.495V570.522ZM763.829 561.031C767.27 557.885 768.99 553.476 768.99 547.749C768.99 542.022 767.27 537.612 763.829 534.467C760.389 531.321 755.148 529.761 748.133 529.761H728.136V565.736H748.133C755.148 565.736 760.389 564.177 763.829 561.031Z" fill="#138ABC"/>
<path d="M871.985 535.166C878.436 531.563 885.612 529.762 893.487 529.762V566.759H883.381C874.216 566.759 867.335 568.641 862.739 572.378C858.143 576.115 855.858 582.703 855.858 592.086V645H819.09V530.972H855.858V549.981C860.159 543.716 865.534 538.769 871.985 535.166Z" fill="#138ABC"/>
<path d="M907.355 513.71C903.269 510.107 901.227 505.643 901.227 500.32C901.227 494.996 903.269 490.345 907.355 486.742C911.44 483.139 916.708 481.337 923.159 481.337C929.609 481.337 934.662 483.139 938.748 486.742C942.833 490.345 944.876 494.889 944.876 500.32C944.876 505.751 942.833 510.107 938.748 513.71C934.662 517.313 929.475 519.114 923.159 519.114C916.842 519.114 911.44 517.313 907.355 513.71ZM941.435 530.971V645H904.667V530.971H941.435Z" fill="#138ABC"/>
<path d="M1068.41 542.721C1076.79 551.379 1080.99 563.263 1080.99 578.373V645H1044.43V583.079C1044.43 575.443 1042.36 569.527 1038.2 565.306C1034.03 561.085 1028.44 558.961 1021.42 558.961C1014.41 558.961 1008.82 561.085 1004.65 565.306C1000.49 569.527 998.417 575.443 998.417 583.079V645H961.648V530.971H998.417V546.082C1002.15 541.054 1007.15 537.048 1013.47 534.117C1019.78 531.186 1026.88 529.734 1034.76 529.734C1048.81 529.734 1060.02 534.063 1068.41 542.721Z" fill="#138ABC"/>
<path d="M1167 615.37V645H1148.29C1134.96 645 1124.56 641.908 1117.11 635.697C1109.67 629.513 1105.93 619.376 1105.93 605.341V559.983H1091.31V530.971H1105.93V503.17H1142.7V530.971H1166.78V559.983H1142.7V605.745C1142.7 609.159 1143.56 611.606 1145.28 613.112C1147 614.617 1149.87 615.37 1153.88 615.37H1167Z" fill="#138ABC"/>
<path d="M234.879 198.215C242.079 198.215 247.915 183.77 247.915 165.951C247.915 148.131 242.079 133.686 234.879 133.686C227.68 133.686 221.844 148.131 221.844 165.951C221.844 183.77 227.68 198.215 234.879 198.215Z" fill="#138ABC"/>
<path d="M392.113 204.91C403.068 204.91 411.949 196.026 411.949 185.067C411.949 174.108 403.068 165.225 392.113 165.225C381.158 165.225 372.277 174.108 372.277 185.067C372.277 196.026 381.158 204.91 392.113 204.91Z" fill="#138ABC"/>
<path d="M39.7992 549.012C34.1549 549.012 29.1557 548.529 24.909 547.507C14.4268 545.006 9.75004 539.521 7.65359 535.354C4.45515 528.928 4.88519 521.238 8.94371 512.5C25.1509 477.627 106.832 412.882 197.974 390.808C206.091 388.845 214.128 387.232 222.056 385.968C230.227 364.082 233.775 344.777 235.28 332.92C236.221 325.553 242.94 320.337 250.305 321.278C257.669 322.219 262.884 328.941 261.943 336.308C260.545 347.17 257.642 363.598 251.595 382.634C316.397 378.467 373.055 394.787 412.404 411.35C419.231 414.227 422.456 422.105 419.58 428.961C416.704 435.817 408.829 439.017 401.975 436.14C363.03 419.739 305.834 403.58 240.978 410.543C227.351 440.953 205.419 473.997 170.075 500.347C128.2 531.59 73.2081 549.012 39.7992 549.012ZM34.1012 521.964C52.1361 523.873 108.606 512.661 154.002 478.783C178.81 460.285 196.146 437.941 208.268 415.974C206.951 416.27 205.607 416.593 204.263 416.916C112.476 439.151 45.5242 501.341 34.1012 521.964Z" fill="#138ABC"/>
<path d="M13.4331 272.397C7.84252 272.397 2.60138 268.875 0.71995 263.255C-1.67216 256.211 2.09071 248.602 9.13265 246.209C131.775 204.614 114.923 17.2642 114.762 15.3821C114.036 7.98816 119.438 1.4277 126.83 0.701745C134.221 0.00267696 140.779 5.38007 141.505 12.7472C141.72 14.8713 146.504 65.3117 134.329 122.232C117.745 199.748 77.4556 251.452 17.7604 271.671C16.3359 272.155 14.8845 272.397 13.4331 272.397Z" fill="#ECCF37"/>
<path d="M248.613 348.031C241.437 348.031 235.497 342.384 235.201 335.152C234.878 327.731 240.63 321.466 248.048 321.143C249.231 321.09 367.546 314.932 373.244 235.427C375.18 208.593 370.745 203.297 370.234 202.786C369.24 201.791 363.622 202.167 360.262 202.409C348.087 203.216 322.741 204.937 317.796 167.725C314.275 141.348 288.177 105.615 251.301 76.6578C211.952 45.7644 166.824 27.4811 130.136 27.4811C129.545 27.4811 128.954 27.4811 128.362 27.4811C128.282 27.4811 128.201 27.4811 128.147 27.4811C120.837 27.4811 114.843 21.6196 114.708 14.2525C114.601 6.83167 120.514 0.701419 127.932 0.59387C171.555 -0.266521 222.568 19.872 267.911 55.4707C311.318 89.5368 339.943 130.163 344.458 164.149C345.48 171.839 347.415 174.769 348.275 175.226C349.942 176.141 354.672 175.818 358.489 175.549C367.439 174.958 379.668 174.124 389.29 183.803C398.724 193.295 402.057 209.803 400.068 237.336C396.951 280.786 369.24 313.776 319.973 332.759C284.656 346.364 250.629 347.923 249.204 347.977C249.016 347.977 248.828 347.977 248.64 347.977L248.613 348.031Z" fill="#138ABC"/>
</svg>
