<svg width="960" height="549" viewBox="0 0 960 549" fill="none" xmlns="http://www.w3.org/2000/svg">
<path d="M733.675 278.39C732.949 270.404 731.202 261.209 717.36 249.728C702.013 236.984 702.954 233.811 698.169 225.315C693.358 216.818 690.482 204.531 670.351 204.531C650.22 204.531 647.317 216.818 642.533 225.315C637.722 233.811 638.689 236.984 623.342 249.728C609.5 261.209 607.753 270.404 607.027 278.39C606.06 289.01 609.903 294.307 609.903 294.307C615.655 308.1 636.781 310.224 643.5 307.052C646.027 305.869 650.435 304.632 654.977 303.583C665.137 301.217 675.619 301.217 685.779 303.583C690.321 304.632 694.729 305.842 697.256 307.052C703.975 310.224 725.074 308.1 730.853 294.307C730.853 294.307 734.696 289.01 733.728 278.39H733.675Z" fill="#ECCF37"/>
<path d="M651.731 204.026C659.169 203.225 664.258 193.838 663.097 183.06C661.936 172.282 654.965 164.195 647.527 164.997C640.089 165.799 635 175.186 636.161 185.963C637.321 196.741 644.293 204.828 651.731 204.026Z" fill="#ECCF37"/>
<path d="M627.875 233.907C635.155 231.478 638.337 221.355 634.983 211.297C631.629 201.24 623.008 195.056 615.728 197.486C608.448 199.916 605.266 210.038 608.62 220.096C611.975 230.153 620.595 236.337 627.875 233.907Z" fill="#ECCF37"/>
<path d="M704.929 185.948C706.09 175.171 701.001 165.784 693.563 164.982C686.125 164.18 679.154 172.267 677.993 183.045C676.832 193.823 681.921 203.21 689.359 204.011C696.797 204.813 703.768 196.726 704.929 185.948Z" fill="#ECCF37"/>
<path d="M670.348 275.835C679.656 275.835 687.201 264.905 687.201 251.422C687.201 237.939 679.656 227.008 670.348 227.008C661.041 227.008 653.496 237.939 653.496 251.422C653.496 264.905 661.041 275.835 670.348 275.835Z" fill="white"/>
<path d="M732.55 220.209C735.904 210.152 732.722 200.029 725.442 197.599C718.162 195.17 709.541 201.353 706.187 211.411C702.832 221.468 706.015 231.591 713.295 234.021C720.575 236.45 729.195 230.267 732.55 220.209Z" fill="#ECCF37"/>
<path d="M234.875 197.647C242.075 197.647 247.911 183.202 247.911 165.383C247.911 147.564 242.075 133.118 234.875 133.118C227.676 133.118 221.84 147.564 221.84 165.383C221.84 183.202 227.676 197.647 234.875 197.647Z" fill="#138ABC"/>
<path d="M392.109 204.342C403.064 204.342 411.945 195.458 411.945 184.5C411.945 173.541 403.064 164.657 392.109 164.657C381.154 164.657 372.273 173.541 372.273 184.5C372.273 195.458 381.154 204.342 392.109 204.342Z" fill="#138ABC"/>
<path d="M39.7992 548.418C34.1549 548.418 29.1557 547.934 24.909 546.912C14.4267 544.412 9.75004 538.927 7.65358 534.76C4.45515 528.333 4.88519 520.644 8.94371 511.905C25.1509 477.033 106.832 412.288 197.974 390.214C206.091 388.251 214.128 386.638 222.056 385.374C230.227 363.488 233.775 344.183 235.28 332.326C236.221 324.959 242.94 319.742 250.305 320.683C257.669 321.625 262.884 328.346 261.943 335.713C260.545 346.576 257.642 363.004 251.595 382.04C316.397 377.873 373.055 394.193 412.404 410.756C419.231 413.633 422.456 421.511 419.58 428.367C416.704 435.223 408.829 438.423 401.975 435.546C363.03 419.144 305.834 402.985 240.978 409.949C227.351 440.358 205.419 473.403 170.075 499.752C128.2 530.995 73.2081 548.418 39.7992 548.418ZM34.1012 521.397C52.1361 523.306 108.606 512.094 154.002 478.216C178.81 459.717 196.146 437.374 208.268 415.407C206.951 415.703 205.607 416.026 204.263 416.348C112.476 438.584 45.5242 500.774 34.1012 521.397Z" fill="#138ABC"/>
<path d="M13.4331 271.802C7.84252 271.802 2.60138 268.28 0.71995 262.661C-1.67216 255.616 2.09071 248.007 9.13265 245.614C131.748 204.047 114.923 16.6964 114.735 14.8143C114.009 7.42031 119.412 0.859828 126.803 0.133873C134.194 -0.565195 140.752 4.81225 141.478 12.1793C141.693 14.3034 146.477 64.7439 134.302 121.664C117.718 199.18 77.4287 250.884 17.7335 271.103C16.309 271.587 14.8576 271.829 13.4062 271.829L13.4331 271.802Z" fill="#ECCF37"/>
<path d="M248.585 347.463C241.409 347.463 235.469 341.817 235.174 334.584C234.851 327.163 240.603 320.899 248.021 320.576C249.204 320.522 367.519 314.365 373.217 234.859C375.152 208.026 370.717 202.729 370.207 202.218C369.212 201.224 363.595 201.6 360.235 201.842C348.06 202.649 322.714 204.369 317.769 167.157C314.248 140.781 288.149 105.048 251.273 76.0904C211.924 45.197 166.797 26.9137 130.109 26.9137C129.518 26.9137 128.926 26.9137 128.335 26.9137C128.254 26.9137 128.174 26.9137 128.12 26.9137C120.809 26.9137 114.816 21.0523 114.681 13.6852C114.574 6.26432 120.487 0.134036 127.905 0.0264875C171.527 -0.833903 222.541 19.3046 267.884 54.9033C311.291 88.9694 339.916 129.596 344.431 163.581C345.452 171.271 347.388 174.202 348.248 174.659C349.914 175.573 354.645 175.25 358.461 174.982C367.412 174.39 379.641 173.557 389.263 183.236C398.697 192.727 402.03 209.236 400.041 236.768C396.923 280.218 369.212 313.209 319.946 332.191C284.628 345.796 250.601 347.356 249.177 347.409C248.989 347.409 248.801 347.409 248.612 347.409L248.585 347.463Z" fill="#138ABC"/>
<path d="M592.484 233.892C588.48 240.775 582.298 246.313 573.993 250.535C565.687 254.756 555.366 256.88 543.03 256.88H520.237V308.369H483.469V164.926H543.03C555.071 164.926 565.257 166.889 573.563 170.841C581.868 174.793 588.103 180.251 592.269 187.188C596.435 194.125 598.505 202.111 598.505 211.091C598.505 219.399 596.489 227.008 592.484 233.865V233.892ZM555.931 224.373C559.371 221.228 561.091 216.818 561.091 211.091C561.091 205.364 559.371 200.955 555.931 197.809C552.49 194.663 547.249 193.104 540.234 193.104H520.237V229.079H540.234C547.249 229.079 552.49 227.519 555.931 224.373Z" fill="#ECCF37"/>
<path d="M922.973 194.34L890.504 308.369H849.866L830.944 234.402L811.377 308.369H770.953L738.27 194.34H775.038L792.025 275.862L812.237 194.34H851.156L871.583 275.459L888.354 194.34H922.973Z" fill="#ECCF37"/>
<path d="M592.484 435.546C588.48 442.429 582.298 447.968 573.993 452.189C565.687 456.41 555.366 458.534 543.03 458.534H520.237V510.023H483.469V366.58H543.03C555.071 366.58 565.257 368.543 573.563 372.495C581.868 376.448 588.103 381.906 592.269 388.843C596.435 395.78 598.505 403.765 598.505 412.745C598.505 421.054 596.489 428.663 592.484 435.519V435.546ZM555.931 426.028C559.371 422.882 561.091 418.472 561.091 412.745C561.091 407.018 559.371 402.609 555.931 399.463C552.49 396.317 547.249 394.758 540.234 394.758H520.237V430.733H540.234C547.249 430.733 552.49 429.174 555.931 426.028Z" fill="#138ABC"/>
<path d="M664.087 400.189C670.537 396.586 677.714 394.785 685.589 394.785V431.781H675.483C666.317 431.781 659.437 433.664 654.841 437.401C650.245 441.138 647.96 447.726 647.96 457.109V510.023H611.191V395.995H647.96V415.004C652.26 408.739 657.636 403.792 664.087 400.189Z" fill="#138ABC"/>
<path d="M699.456 378.733C695.371 375.13 693.328 370.667 693.328 365.343C693.328 360.02 695.371 355.368 699.456 351.765C703.542 348.162 708.81 346.361 715.26 346.361C721.711 346.361 726.764 348.162 730.849 351.765C734.935 355.368 736.977 359.912 736.977 365.343C736.977 370.774 734.935 375.13 730.849 378.733C726.764 382.336 721.577 384.137 715.26 384.137C708.944 384.137 703.542 382.336 699.456 378.733ZM733.537 395.995V510.023H696.768V395.995H733.537Z" fill="#138ABC"/>
<path d="M860.508 407.744C868.894 416.402 873.087 428.286 873.087 443.397V510.023H836.533V448.102C836.533 440.466 834.464 434.551 830.298 430.33C826.132 426.108 820.541 423.984 813.526 423.984C806.511 423.984 800.92 426.108 796.754 430.33C792.588 434.551 790.519 440.466 790.519 448.102V510.023H753.75V395.995H790.519V411.105C794.255 406.077 799.254 402.071 805.57 399.14C811.886 396.21 818.982 394.758 826.857 394.758C840.914 394.758 852.122 399.087 860.508 407.744Z" fill="#138ABC"/>
<path d="M959.094 480.394V510.023H940.387C927.056 510.023 916.654 506.931 909.209 500.72C901.764 494.536 898.028 484.4 898.028 470.365V425.006H883.406V395.995H898.028V368.193H934.796V395.995H958.879V425.006H934.796V470.768C934.796 474.183 935.656 476.63 937.377 478.135C939.097 479.641 941.973 480.394 945.977 480.394H959.094Z" fill="#138ABC"/>
</svg>
