<svg width="24" height="24" viewBox="0 0 24 24" fill="none" xmlns="http://www.w3.org/2000/svg">
<g id="ic/filled/ios">
<g id="Union">
<path d="M16.958 3C17.1774 4.03226 16.5192 5.06452 15.4221 5.70968C14.5445 6.48387 12.7893 7 11.0341 7C10.8147 5.96774 11.6923 4.93548 12.5699 4.29032C13.6669 3.51613 15.4221 3 16.958 3Z" fill="white"/>
<path d="M19.2064 9.13007C18.6853 9.58044 17.3506 10.7341 17.3506 12.7442C17.3506 15.1456 19.1202 16.2713 19.7669 16.6827C19.9115 16.7747 20 16.831 20 16.8579C20 16.8579 19.5584 18.3271 18.6753 19.6493C17.7922 20.8247 16.909 22 15.5844 22C14.9394 22 14.5039 21.8259 14.0568 21.6472C13.5855 21.4589 13.1015 21.2654 12.3462 21.2654C11.5693 21.2654 11.0384 21.4701 10.5371 21.6634C10.0887 21.8363 9.66401 22 9.10807 22C7.87776 22 7.02833 20.8594 6.20604 19.7553C6.14296 19.6706 6.08004 19.5861 6.01712 19.5024C4.39805 17.0048 3.07335 12.5972 4.83961 9.65889C5.57555 8.04279 7.19462 7.16128 8.81369 7.16128C9.5268 7.16128 10.1973 7.41673 10.7562 7.62969C11.2355 7.81232 11.6328 7.9637 11.9046 7.89587C12.2646 7.89587 12.7224 7.72502 13.2381 7.53253C13.9876 7.25277 14.8596 6.92733 15.7315 7.01437C16.4675 7.01437 18.2337 7.16128 19.4112 8.9243C19.4112 8.95298 19.3327 9.02084 19.2064 9.13007Z" fill="white"/>
</g>
</g>
</svg>
