<svg width="36" height="36" viewBox="0 0 36 36" fill="none" xmlns="http://www.w3.org/2000/svg">
<path d="M31.5 11.1V30.9C31.5 31.2314 31.2314 31.5 30.9 31.5H11.1C10.7686 31.5 10.5 31.2314 10.5 30.9V11.1C10.5 10.7686 10.7686 10.5 11.1 10.5H30.9C31.2314 10.5 31.5 10.7686 31.5 11.1Z" stroke="#FAFAFA" stroke-width="2" stroke-linecap="round" stroke-linejoin="round"/>
<path d="M27 6H6.6C6.26863 6 6 6.26863 6 6.6V27" stroke="#FAFAFA" stroke-width="2" stroke-linecap="round" stroke-linejoin="round"/>
<path d="M10.5 25.2L18.6667 22.5L31.5 27" stroke="#FAFAFA" stroke-width="2" stroke-linecap="round" stroke-linejoin="round"/>
<path d="M24.75 19.5C23.5074 19.5 22.5 18.4926 22.5 17.25C22.5 16.0074 23.5074 15 24.75 15C25.9926 15 27 16.0074 27 17.25C27 18.4926 25.9926 19.5 24.75 19.5Z" stroke="#FAFAFA" stroke-width="2" stroke-linecap="round" stroke-linejoin="round"/>
</svg>
