<svg width="21" height="20" viewBox="0 0 21 20" fill="none" xmlns="http://www.w3.org/2000/svg">
<path d="M2.16675 15.5V7.77778C2.16675 6.70389 3.03731 5.83333 4.11119 5.83333C4.72322 5.83333 5.29953 5.54518 5.66675 5.05556L7.40342 2.74C7.51673 2.58892 7.69456 2.5 7.88342 2.5H13.1167C13.3056 2.5 13.4834 2.58892 13.5967 2.74L15.3334 5.05556C15.7006 5.54518 16.2769 5.83333 16.889 5.83333C17.9629 5.83333 18.8334 6.70389 18.8334 7.77778V15.5C18.8334 16.6046 17.938 17.5 16.8334 17.5H4.16675C3.06218 17.5 2.16675 16.6046 2.16675 15.5Z" stroke="#F6D72E" stroke-width="1.5" stroke-linecap="round" stroke-linejoin="round"/>
<path d="M10.5001 14.1667C12.341 14.1667 13.8334 12.6743 13.8334 10.8333C13.8334 8.99238 12.341 7.5 10.5001 7.5C8.65913 7.5 7.16675 8.99238 7.16675 10.8333C7.16675 12.6743 8.65913 14.1667 10.5001 14.1667Z" stroke="#F6D72E" stroke-width="1.5" stroke-linecap="round" stroke-linejoin="round"/>
</svg>
