<svg width="219" height="220" viewBox="0 0 219 220" fill="none" xmlns="http://www.w3.org/2000/svg">
<path d="M169.665 116.718C169.665 116.679 169.674 116.639 169.674 116.6L169.926 112.51C170.684 100.332 162.574 89.6289 150.996 86.2766C151.307 85.05 151.533 83.7885 151.659 82.4965C152.764 71.0995 146.016 60.7458 135.719 56.4376C129.12 41.2125 111.89 18.9686 90.1809 17C90.1809 17 102.797 36.8825 92.6662 52.2559C81.2636 54.3075 72.166 63.4565 71.0338 75.1895C70.8128 77.4593 70.9075 79.6855 71.2774 81.833C59.7621 84.1159 50.7997 93.6359 50.06 105.531L49.8074 109.62C49.6541 112.056 49.8661 114.431 50.3803 116.705C39.5731 121.188 32 131.572 32 143.672C32 159.87 45.5676 173 62.306 173H157.694C174.432 173 188 159.87 188 143.672C188 131.594 180.454 121.223 169.674 116.727L169.665 116.718Z" stroke="#FBEFAB" stroke-opacity="0.6" stroke-width="8" stroke-miterlimit="10"/>
<path d="M25 32L38 45" stroke="#FBEFAB" stroke-opacity="0.6" stroke-width="1.5" stroke-linecap="round" stroke-dasharray="4 4"/>
<path d="M194 32L181 45" stroke="#FBEFAB" stroke-opacity="0.6" stroke-width="1.5" stroke-linecap="round" stroke-dasharray="4 4"/>
<path d="M25 201L38 188" stroke="#FBEFAB" stroke-opacity="0.6" stroke-width="1.5" stroke-linecap="round" stroke-dasharray="4 4"/>
<path d="M194 201L181 188" stroke="#FBEFAB" stroke-opacity="0.6" stroke-width="1.5" stroke-linecap="round" stroke-dasharray="4 4"/>
</svg>
