<svg width="101" height="101" viewBox="0 0 101 101" fill="none" xmlns="http://www.w3.org/2000/svg">
<path fill-rule="evenodd" clip-rule="evenodd" d="M16.125 6.83752C15.2962 6.83752 14.5013 7.16677 13.9153 7.75282C13.3292 8.33887 13 9.13372 13 9.96252V78.15C13 78.9788 13.3292 79.7737 13.9153 80.3597C14.5013 80.9458 15.2962 81.275 16.125 81.275H72.375C73.2038 81.275 73.9987 80.9458 74.5847 80.3597C75.1708 79.7737 75.5 78.9788 75.5 78.15V33.8313C75.5008 33.4117 75.4171 32.9962 75.2539 32.6096C75.0907 32.2231 74.8513 31.8733 74.55 31.5813L49.9437 7.73127C49.3618 7.16383 48.5816 6.84548 47.7688 6.84377L16.125 6.83752ZM64.6625 30.7063L50.8937 17.35V30.7063H64.6625ZM38 34.6813H25.5V28.4313H38V34.6813ZM63 50.3063H25.5V44.0563H63V50.3063ZM25.5 65.9313H63V59.6813H25.5V65.9313Z" fill="#0092CA"/>
<path d="M81.75 47.1813V87.8063H28.625V94.0563H84.875C85.7038 94.0563 86.4987 93.727 87.0847 93.141C87.6708 92.5549 88 91.7601 88 90.9313V47.1813H81.75Z" fill="#0092CA"/>
</svg>
