<svg width="23" height="21" viewBox="0 0 23 21" fill="none" xmlns="http://www.w3.org/2000/svg">
<path d="M15.4594 18.4998H7.54055C6.70813 18.5051 5.89769 18.2477 5.23788 17.7685C4.57807 17.2892 4.1067 16.6155 3.89861 15.8544L2.75 11.8334H20.25L19.1014 15.9073C18.8828 16.6586 18.4069 17.3204 17.7481 17.7894C17.0892 18.2584 16.2845 18.5082 15.4594 18.4998Z" fill="#F6D72E" stroke="#F6D72E" stroke-width="2" stroke-linecap="round" stroke-linejoin="round"/>
<path d="M4.625 10.1667C4.24 9.70978 4 8.25676 4 7.61062C4 6.96448 4.21629 6.3448 4.60129 5.88791C4.98628 5.43102 5.50845 5.17434 6.05292 5.17434C6.2285 5.17473 6.4033 5.20203 6.57299 5.25555C6.44793 4.90047 6.38283 4.51971 6.38139 4.13486C6.40622 3.2932 6.70554 2.49588 7.2162 1.91107C7.72686 1.32626 8.40895 0.999667 9.11861 1.00018C9.61379 1.00175 10.0993 1.1627 10.5235 1.46588C10.9477 1.76906 11.2946 2.20312 11.5274 2.72182C11.7601 2.20312 12.107 1.76906 12.5312 1.46588C12.9554 1.1627 13.441 1.00175 13.9361 1.00018C14.6505 0.991187 15.3395 1.31401 15.8561 1.8997C16.3726 2.4854 16.6758 3.28755 16.7007 4.13486C16.6993 4.51971 16.6342 4.90047 16.5091 5.25555C16.67 5.20472 16.8354 5.17745 17.0018 5.17434L16.9471 5.1581C17.4915 5.1581 18.0137 5.41478 18.3987 5.87167C18.7837 6.32856 19 6.94824 19 7.59438C19 8.24052 18.76 9.70978 18.375 10.1667" stroke="#F6D72E" stroke-width="2" stroke-linecap="round" stroke-linejoin="round"/>
<path d="M21.5 11L1.5 11" stroke="#F6D72E" stroke-width="2" stroke-linecap="round" stroke-linejoin="round"/>
</svg>
