<svg width="21" height="20" viewBox="0 0 21 20" fill="none" xmlns="http://www.w3.org/2000/svg">
<path d="M7.72058 5.59371C8.81528 5.48297 9.56421 4.18649 9.39336 2.69794C9.22251 1.20939 8.19658 0.0924397 7.10188 0.203178C6.00718 0.313916 5.25825 1.6104 5.4291 3.09896C5.59995 4.58751 6.62588 5.70445 7.72058 5.59371Z" fill="#ECCF37"/>
<path d="M4.22755 9.72107C5.29893 9.3855 5.76728 7.9874 5.27364 6.59831C4.78 5.20922 3.5113 4.35517 2.43991 4.69074C1.36853 5.02631 0.900177 6.42442 1.39382 7.81351C1.88746 9.2026 3.15616 10.0566 4.22755 9.72107Z" fill="#ECCF37"/>
<path d="M15.5546 3.09626C15.7255 1.6077 14.9765 0.311221 13.8818 0.200483C12.7871 0.0897449 11.7612 1.20669 11.5904 2.69524C11.4195 4.18379 12.1684 5.48027 13.2631 5.59101C14.3578 5.70175 15.3838 4.58481 15.5546 3.09626Z" fill="#ECCF37"/>
<path d="M19.8205 15.8636C19.7137 14.7607 19.4566 13.4907 17.4195 11.905C15.1609 10.1448 15.2993 9.70662 14.5952 8.53315C13.8872 7.35968 13.464 5.6626 10.5012 5.6626C7.53852 5.6626 7.11131 7.35968 6.40722 8.53315C5.69918 9.70662 5.84158 10.1448 3.58295 11.905C1.54584 13.4907 1.28873 14.7607 1.18193 15.8636C1.03953 17.3305 1.60517 18.062 1.60517 18.062C2.45166 19.9671 5.56073 20.2604 6.54962 19.8222C6.92145 19.6588 7.57016 19.488 8.23865 19.3432C9.73385 19.0164 11.2765 19.0164 12.7717 19.3432C13.4402 19.488 14.0889 19.6551 14.4608 19.8222C15.4496 20.2604 18.5548 19.9671 19.4052 18.062C19.4052 18.062 19.9709 17.3305 19.8285 15.8636H19.8205Z" fill="#ECCF37"/>
<path d="M19.6062 7.83614C20.0998 6.44706 19.6315 5.04895 18.5601 4.71338C17.4887 4.37781 16.22 5.23186 15.7263 6.62094C15.2327 8.01003 15.7011 9.40814 16.7724 9.74371C17.8438 10.0793 19.1125 9.22523 19.6062 7.83614Z" fill="#ECCF37"/>
</svg>
