<svg width="101" height="113" viewBox="0 0 101 113" fill="none" xmlns="http://www.w3.org/2000/svg">
<path d="M69.4189 5.18018C83.724 5.18018 95.3198 16.776 95.3198 31.0811C95.3198 45.3861 83.724 56.982 69.4189 56.982C55.1138 56.982 43.518 45.3861 43.518 31.0811C43.518 16.776 55.1138 5.18018 69.4189 5.18018ZM69.4189 41.4414C68.732 41.4414 68.0732 41.7143 67.5874 42.2001C67.1017 42.6858 66.8288 43.3446 66.8288 44.0315C66.8288 44.7185 67.1017 45.3773 67.5874 45.863C68.0732 46.3487 68.732 46.6216 69.4189 46.6216C70.1058 46.6216 70.7646 46.3487 71.2504 45.863C71.7361 45.3773 72.009 44.7185 72.009 44.0315C72.009 43.3446 71.7361 42.6858 71.2504 42.2001C70.7646 41.7143 70.1058 41.4414 69.4189 41.4414ZM69.4189 16.8356C66.9288 16.8356 64.5406 17.8248 62.7798 19.5856C61.019 21.3464 60.0298 23.7345 60.0298 26.2247C60.0298 26.9116 60.3027 27.5704 60.7885 28.0561C61.2742 28.5419 61.933 28.8147 62.6199 28.8147C63.3069 28.8147 63.9657 28.5419 64.4514 28.0561C64.9371 27.5704 65.21 26.9116 65.21 26.2247C65.2109 25.4607 65.4197 24.7113 65.814 24.057C66.2083 23.4026 66.7733 22.8679 67.4484 22.5103C68.1235 22.1526 68.8832 21.9854 69.646 22.0266C70.4089 22.0678 71.1462 22.3159 71.7788 22.7443C72.4114 23.1726 72.9154 23.7651 73.237 24.4581C73.5585 25.1512 73.6853 25.9187 73.6038 26.6783C73.5223 27.4379 73.2356 28.161 72.7744 28.7701C72.3132 29.3792 71.695 29.8513 70.9859 30.1357C69.235 30.835 66.8288 32.6274 66.8288 35.6137V36.2613C66.8288 36.9482 67.1017 37.607 67.5874 38.0927C68.0732 38.5785 68.732 38.8513 69.4189 38.8513C70.1058 38.8513 70.7646 38.5785 71.2504 38.0927C71.7361 37.607 72.009 36.9482 72.009 36.2613C72.009 35.6293 72.1385 35.3133 72.685 35.0439L72.9103 34.9403C74.9327 34.1267 76.6091 32.635 77.6521 30.7208C78.6951 28.8067 79.0398 26.5893 78.627 24.4489C78.2142 22.3084 77.0697 20.3782 75.3897 18.9892C73.7097 17.6001 71.5988 16.8388 69.4189 16.8356Z" fill="#EB9824"/>
<g filter="url(#filter0_dd_1507_2924)">
<path d="M27.8211 51.7962C31.9632 51.3772 34.797 46.4716 34.1506 40.8393C33.5041 35.2069 29.6222 30.9806 25.4801 31.3996C21.338 31.8187 18.5042 36.7243 19.1507 42.3566C19.7971 47.989 23.679 52.2152 27.8211 51.7962Z" fill="#F6D72E"/>
<path d="M14.6042 67.4129C18.6581 66.1432 20.4303 60.853 18.5624 55.597C16.6946 50.341 11.8941 47.1095 7.84021 48.3792C3.78632 49.6489 2.01419 54.9391 3.88202 60.1951C5.74985 65.4511 10.5503 68.6826 14.6042 67.4129Z" fill="#F6D72E"/>
<path d="M57.4632 42.3463C58.1097 36.7139 55.2759 31.8083 51.1338 31.3893C46.9917 30.9703 43.1098 35.1966 42.4633 40.8289C41.8168 46.4613 44.6506 51.3669 48.7928 51.7859C52.9349 52.2049 56.8168 47.9787 57.4632 42.3463Z" fill="#F6D72E"/>
<path d="M38.3425 52.0568C49.5527 52.0568 51.1546 58.4779 53.8337 62.9181C56.4977 67.3582 55.9733 69.0168 64.5192 75.6769C72.2272 81.6767 73.2001 86.4822 73.6042 90.6554H73.6345C74.1732 96.2055 72.0329 98.9738 72.0329 98.9738C68.8148 106.182 57.0656 107.292 53.3239 105.634C51.917 105.002 49.4625 104.369 46.9333 103.821C41.2758 102.585 35.4384 102.585 29.7809 103.821C27.2516 104.369 24.7972 105.016 23.3903 105.634C19.6485 107.292 7.88432 106.182 4.68133 98.9738C4.68133 98.9738 2.54103 96.2055 3.07977 90.6554C3.48387 86.4823 4.457 81.6766 12.1647 75.6769C20.7109 69.0166 20.1722 67.3582 22.8513 62.9181C25.5154 58.4779 27.1322 52.0568 38.3425 52.0568Z" fill="#F6D72E"/>
<path d="M72.7938 60.2807C74.6616 55.0247 72.8895 49.7345 68.8356 48.4648C64.7817 47.1951 59.9812 50.4266 58.1134 55.6826C56.2456 60.9386 58.0177 66.2288 62.0716 67.4985C66.1255 68.7682 70.926 65.5367 72.7938 60.2807Z" fill="#F6D72E"/>
</g>
<defs>
<filter id="filter0_dd_1507_2924" x="-1.5" y="30.6306" width="79.6757" height="81.6766" filterUnits="userSpaceOnUse" color-interpolation-filters="sRGB">
<feFlood flood-opacity="0" result="BackgroundImageFix"/>
<feColorMatrix in="SourceAlpha" type="matrix" values="0 0 0 0 0 0 0 0 0 0 0 0 0 0 0 0 0 0 127 0" result="hardAlpha"/>
<feMorphology radius="2" operator="erode" in="SourceAlpha" result="effect1_dropShadow_1507_2924"/>
<feOffset dy="4"/>
<feGaussianBlur stdDeviation="2"/>
<feColorMatrix type="matrix" values="0 0 0 0 0.0745098 0 0 0 0 0.0980392 0 0 0 0 0.152941 0 0 0 0.08 0"/>
<feBlend mode="normal" in2="BackgroundImageFix" result="effect1_dropShadow_1507_2924"/>
<feColorMatrix in="SourceAlpha" type="matrix" values="0 0 0 0 0 0 0 0 0 0 0 0 0 0 0 0 0 0 127 0" result="hardAlpha"/>
<feMorphology radius="2" operator="erode" in="SourceAlpha" result="effect2_dropShadow_1507_2924"/>
<feOffset dy="2"/>
<feGaussianBlur stdDeviation="2"/>
<feColorMatrix type="matrix" values="0 0 0 0 0.0745098 0 0 0 0 0.0980392 0 0 0 0 0.152941 0 0 0 0.12 0"/>
<feBlend mode="normal" in2="effect1_dropShadow_1507_2924" result="effect2_dropShadow_1507_2924"/>
<feBlend mode="normal" in="SourceGraphic" in2="effect2_dropShadow_1507_2924" result="shape"/>
</filter>
</defs>
</svg>
