<svg width="35" height="35" viewBox="0 0 35 35" fill="none" xmlns="http://www.w3.org/2000/svg">
<g clip-path="url(#clip0_1217_3141)">
<path d="M30.8095 26.6516C30.6474 25.6166 30.7694 24.4638 30.538 23.515C30.5271 23.4675 30.4196 23.4763 30.4087 23.4271C30.2884 22.9193 30.2465 22.3341 30.0078 21.8421C29.9678 21.7595 29.8457 21.821 29.8165 21.7911C29.7856 21.7577 29.8238 21.6365 29.7874 21.5592C29.7673 21.5188 29.5724 21.4362 29.5432 21.3624C29.3064 20.7755 28.8709 20.359 28.4318 19.8442C28.3444 19.7422 28.41 19.5542 28.1403 19.6122C28.2515 19.8512 28.011 19.9566 28.0073 19.9777C27.8634 20.6033 27.5828 21.1006 27.2148 21.7121C26.4514 22.9808 24.1739 24.5956 22.751 25.0613C22.6635 25.0894 22.5086 25.0595 22.4777 25.0894C22.4521 25.1122 22.4922 25.2388 22.4649 25.2634C22.4266 25.2968 22.3082 25.2528 22.259 25.2757C21.5904 25.5972 21.328 25.6447 20.6484 25.7888C20.5974 25.7993 20.6338 25.903 20.5081 25.9206C20.2385 25.9575 19.9961 25.9645 20.0034 25.6587C20.3806 25.5129 20.8597 25.3706 21.215 25.2001C22.689 24.4972 24.0373 23.4411 25.1651 22.3411C25.6916 21.8263 26.1034 21.2236 26.4022 20.6542C26.5716 20.3327 26.5315 20.5136 26.6117 20.41C26.6554 20.3537 26.67 20.1798 26.7265 20.0831C27.0052 19.614 26.8996 19.7493 27.0071 19.2695C27.018 19.2186 27.1291 19.2537 27.1437 19.1342C27.1893 18.7933 27.2075 18.7283 27.2713 18.4735C27.4043 17.9341 27.2676 15.734 27.1364 15.1542C27.1273 15.1085 27.0308 15.112 27.0125 15.0575C26.783 14.3687 26.4204 13.5077 25.821 13.0543C25.657 12.9295 25.4548 12.8663 25.2981 12.7661C25.2379 12.7292 25.1377 12.5605 25.125 12.5553C24.8134 12.4147 24.9227 12.8434 24.8681 13.0034C24.6276 13.7115 24.0008 14.3915 23.4688 14.931C22.9167 15.4933 22.2572 15.973 21.6213 16.3456C21.2005 16.5933 20.5318 17.1539 20.049 17.4034C18.8574 18.0254 18.043 18.1836 16.7731 18.3927C15.7929 18.5544 13.8761 18.6528 12.9087 18.3822C12.2109 18.1871 12.5461 17.8251 13.0526 17.6933C13.867 17.7091 14.7653 17.8638 15.5724 17.8128C16.62 17.7478 17.3178 17.4825 18.1815 17.1451C18.3381 17.0836 18.5878 16.9184 18.7153 16.8604C19.0432 16.7128 19.5552 16.6355 19.8868 16.458C20.1073 16.3403 20.4443 15.973 20.6557 15.8202C22.2062 14.7043 23.1245 14.07 23.5891 12.1037C23.6401 11.8893 23.7002 11.6731 23.7366 11.5273C23.7457 11.4869 23.7549 11.2707 23.753 11.0968C23.7293 11.1442 23.7075 11.1917 23.6802 11.2374C23.5563 11.392 23.4324 11.5466 23.3085 11.7013C22.8803 12.1511 22.2444 12.3462 21.6304 12.3725C21.0383 12.3989 20.3642 12.0984 19.9524 11.7013C19.9433 11.6925 19.936 11.6837 19.9287 11.6749C19.7811 11.6415 19.639 11.5923 19.5006 11.5326C19.2236 11.6433 18.9266 11.7083 18.626 11.7223C17.3215 11.7786 16.3194 10.6487 16.2538 9.4661C16.0388 9.96163 15.904 10.5116 15.6453 10.972C15.6161 11.023 15.2736 11.5291 15.2481 11.5537C15.044 11.754 14.195 11.7962 14.1385 11.5273C14.0729 11.2163 14.4191 10.3025 14.543 9.9546C14.6942 9.53287 14.8199 9.23239 14.9365 8.72456C14.942 8.69996 15.1916 8.55587 15.0677 8.29404C15.0021 8.222 14.6742 8.50842 14.6122 8.54532C13.9836 8.90379 13.1911 9.21482 12.5862 9.64885C11.7663 10.2375 11.0794 11.5783 10.5784 12.3567C10.5183 12.4516 10.2759 12.8136 10.2687 12.8417C10.1065 13.5077 10.0282 15.2983 10.1375 15.9765C10.1575 16.1013 10.3561 16.4844 10.4381 16.588C10.5984 16.7936 10.9173 16.8112 10.7241 17.1627C10.2322 17.2892 9.68927 16.8674 9.4269 16.4984C9.24653 16.2472 9.32123 16.2349 9.26657 15.9924C9.25199 15.9344 9.01878 15.3914 9.00238 15.3264C8.97688 15.2262 9.07162 14.9222 8.90218 14.9855C8.56329 15.1085 8.58515 15.2737 8.44486 15.409C8.32461 15.5267 7.52841 16.2665 7.48833 16.3526C7.43731 16.465 7.34986 17.0115 7.32435 17.0379C7.2952 17.0678 7.14215 17.0045 7.12758 17.0766C7.113 17.1662 7.15673 17.2821 7.13304 17.3841C7.12029 17.4315 7.01279 17.4227 7.00186 17.4719C6.69577 18.7582 6.63383 21.0689 7.31706 22.1408C7.45007 22.3517 7.61951 22.791 7.74887 23.0089C7.76891 23.0423 8.29182 23.3726 8.41389 23.4798C9.11352 24.1036 9.95345 24.6079 10.8189 24.8276C10.8717 24.8399 11.4092 25.0736 11.4456 25.0824C11.5641 25.107 11.7007 25.0613 11.821 25.0841C11.8374 25.0876 12.0651 25.2915 12.0669 25.3073C12.0852 25.5463 11.4475 25.3161 11.3509 25.2915C11.063 25.2142 10.9154 25.0876 10.8881 25.0806C10.7624 25.0507 10.5839 25.1122 10.4454 25.0806C9.95527 24.9717 9.36313 24.7397 8.85663 24.5464C8.68536 24.4814 7.99484 24.2442 7.91285 24.1809C7.76527 24.0685 7.9839 24.1335 7.61951 23.9683C7.59582 23.9578 7.33528 23.6872 7.24236 23.6239C7.18042 23.5817 7.07474 23.6204 7.01826 23.587C6.91441 23.5273 6.48989 22.9298 6.44981 22.907C6.38786 22.8736 6.27854 22.9157 6.21659 22.8788C6.11456 22.8191 6.2421 22.6469 5.92326 22.7734C5.87953 22.791 5.80483 22.8824 5.75928 22.921C5.46048 23.1881 5.37849 23.3919 5.17625 23.7082C5.10337 23.8225 4.88838 23.8629 4.86105 23.8998C4.6825 24.1405 4.43835 24.8908 4.30899 25.1878C4.13226 25.5937 3.94825 26.0242 3.7788 26.446C3.39619 27.4072 3.27958 29.319 3.63122 30.2907C3.89723 31.0217 5.25642 32.6612 5.95241 33.0706C6.42066 33.3448 6.98 33.466 7.48833 33.5732C7.53752 33.582 7.52841 33.6874 7.57943 33.6997C7.7926 33.7489 8.13877 33.6663 8.37198 33.6962C8.49952 33.7103 8.43575 33.8192 8.56147 33.835C9.88239 33.9844 11.2999 33.9967 12.6336 34.0863C13.7377 34.1619 15.0568 34.146 16.1062 34.2743C16.2338 34.2901 16.17 34.3973 16.2975 34.4131C16.549 34.443 17.3233 34.443 17.5747 34.4131C17.7023 34.3973 17.6385 34.2884 17.7642 34.2743C19.8322 34.0389 22.024 34.1373 23.9589 33.6997C24.2176 33.64 24.7733 33.3781 25.0503 33.3166C25.2707 33.2674 25.5131 33.4467 25.4803 33.1339C25.8574 33.0197 26.3293 32.8809 26.6828 32.728C27.2129 32.4995 27.898 32.1094 28.3553 31.7685C29.5906 30.846 30.2356 29.2347 30.5417 27.8904C30.5526 27.8412 30.6601 27.8517 30.6729 27.8025C30.7202 27.611 30.6401 27.3105 30.6674 27.1032C30.6838 26.9872 30.8696 27.0311 30.8095 26.6533V26.6516Z" fill="#834D23"/>
<path d="M33.0524 32.2027C32.974 32.4399 32.4438 32.3064 32.2525 32.3503C32.1997 32.3626 32.2343 32.4663 32.1122 32.4821C31.8007 32.5208 30.4123 32.41 30.2866 32.4944C30.252 32.519 30.3249 32.6367 30.1737 32.6069C30.1153 32.5946 30.17 32.5049 30.0898 32.4768C29.9605 32.4311 29.7309 32.519 29.8512 32.1728C29.8767 32.0973 30.2757 31.8021 30.3577 31.7019C30.7312 31.2468 30.8788 30.7881 31.1648 30.3119C31.1958 30.261 31.3743 30.1714 31.3871 30.1433C31.4253 30.0607 31.3944 29.9183 31.4071 29.9043C31.4253 29.8867 31.8408 29.8937 31.9227 29.9236C31.9373 29.9289 32.0302 30.08 32.0776 30.1134C32.2179 30.2135 33.0542 30.8338 33.0706 30.9147C33.1052 31.0746 33.0979 32.0604 33.0524 32.2027Z" fill="#2C1908"/>
<path d="M30.8095 26.6516C30.6474 25.6166 30.7694 24.4638 30.538 23.515C30.5271 23.4675 30.4196 23.4763 30.4087 23.4271C30.2884 22.9193 30.2465 22.3341 30.0078 21.8421C29.9678 21.7595 29.8457 21.821 29.8165 21.7911C29.7856 21.7577 29.8238 21.6365 29.7874 21.5592C29.7673 21.5188 29.5724 21.4362 29.5432 21.3624C29.3064 20.7755 28.8709 20.359 28.4318 19.8442C28.3444 19.7422 28.41 19.5542 28.1403 19.6122C28.2515 19.8512 28.011 19.9566 28.0073 19.9777C27.8634 20.6033 27.5828 21.1006 27.2148 21.7121C26.4514 22.9808 24.1739 24.5956 22.751 25.0613C22.6635 25.0894 22.5086 25.0595 22.4777 25.0894C22.4521 25.1122 22.4922 25.2388 22.4649 25.2634C22.4266 25.2968 22.3082 25.2528 22.259 25.2757C21.5904 25.5972 21.328 25.6447 20.6484 25.7888C20.5974 25.7993 20.6338 25.903 20.5081 25.9206C20.2385 25.9575 19.9961 25.9645 20.0034 25.6587C20.3806 25.5129 20.8597 25.3706 21.215 25.2001C22.689 24.4972 24.0373 23.4411 25.1651 22.3411C25.6916 21.8263 26.1034 21.2236 26.4022 20.6542C26.5716 20.3327 26.5315 20.5136 26.6117 20.41C26.6554 20.3537 26.67 20.1798 26.7265 20.0831C27.0052 19.614 26.8996 19.7493 27.0071 19.2695C27.018 19.2186 27.1291 19.2537 27.1437 19.1342C27.1893 18.7933 27.2075 18.7283 27.2713 18.4735C27.4043 17.9341 27.2676 15.734 27.1364 15.1542C27.1273 15.1085 27.0308 15.112 27.0125 15.0575C26.783 14.3687 26.4204 13.5077 25.821 13.0543C25.657 12.9295 25.4548 12.8663 25.2981 12.7661C25.2379 12.7292 25.1377 12.5605 25.125 12.5553C24.8134 12.4147 24.9227 12.8434 24.8681 13.0034C24.6276 13.7115 24.0008 14.3915 23.4688 14.931C22.9167 15.4933 22.2572 15.973 21.6213 16.3456C21.2005 16.5933 20.5318 17.1539 20.049 17.4034C18.8574 18.0254 18.043 18.1836 16.7731 18.3927C15.7929 18.5544 13.8761 18.6528 12.9087 18.3822C12.2109 18.1871 12.5461 17.8251 13.0526 17.6933C13.867 17.7091 14.7653 17.8638 15.5724 17.8128C16.62 17.7478 17.3178 17.4825 18.1815 17.1451C18.3381 17.0836 18.5878 16.9184 18.7153 16.8604C19.0432 16.7128 19.5552 16.6355 19.8868 16.458C20.1073 16.3403 20.4443 15.973 20.6557 15.8202C22.2062 14.7043 23.1245 14.07 23.5891 12.1037C23.6401 11.8893 23.7002 11.6731 23.7366 11.5273C23.7457 11.4869 23.7549 11.2707 23.753 11.0968C23.7293 11.1442 23.7075 11.1917 23.6802 11.2374C23.5563 11.392 23.4324 11.5466 23.3085 11.7013C22.8803 12.1511 22.2444 12.3462 21.6304 12.3725C21.0383 12.3989 20.3642 12.0984 19.9524 11.7013C19.9433 11.6925 19.936 11.6837 19.9287 11.6749C19.7811 11.6415 19.639 11.5923 19.5006 11.5326C19.2236 11.6433 18.9266 11.7083 18.626 11.7223C17.3215 11.7786 16.3194 10.6487 16.2538 9.4661C16.0388 9.96163 15.904 10.5116 15.6453 10.972C15.6161 11.023 15.2736 11.5291 15.2481 11.5537C15.044 11.754 14.195 11.7962 14.1385 11.5273C14.0729 11.2163 14.4191 10.3025 14.543 9.9546C14.6942 9.53287 14.8199 9.23239 14.9365 8.72456C14.942 8.69996 15.1916 8.55587 15.0677 8.29404C15.0021 8.222 14.6742 8.50842 14.6122 8.54532C13.9836 8.90379 13.1911 9.21482 12.5862 9.64885C11.7663 10.2375 11.0794 11.5783 10.5784 12.3567C10.5183 12.4516 10.2759 12.8136 10.2687 12.8417C10.1065 13.5077 10.0282 15.2983 10.1375 15.9765C10.1575 16.1013 10.3561 16.4844 10.4381 16.588C10.5984 16.7936 10.9173 16.8112 10.7241 17.1627C10.2322 17.2892 9.68927 16.8674 9.4269 16.4984C9.24653 16.2472 9.32123 16.2349 9.26657 15.9924C9.25199 15.9344 9.01878 15.3914 9.00238 15.3264C8.97688 15.2262 9.07162 14.9222 8.90218 14.9855C8.56329 15.1085 8.58515 15.2737 8.44486 15.409C8.32461 15.5267 7.52841 16.2665 7.48833 16.3526C7.43731 16.465 7.34986 17.0115 7.32435 17.0379C7.2952 17.0678 7.14215 17.0045 7.12758 17.0766C7.113 17.1662 7.15673 17.2821 7.13304 17.3841C7.12029 17.4315 7.01279 17.4227 7.00186 17.4719C6.69577 18.7582 6.63383 21.0689 7.31706 22.1408C7.45007 22.3517 7.61951 22.791 7.74887 23.0089C7.76891 23.0423 8.29182 23.3726 8.41389 23.4798C9.11352 24.1036 9.95345 24.6079 10.8189 24.8276C10.8717 24.8399 11.4092 25.0736 11.4456 25.0824C11.5641 25.107 11.7007 25.0613 11.821 25.0841C11.8374 25.0876 12.0651 25.2915 12.0669 25.3073C12.0852 25.5463 11.4475 25.3161 11.3509 25.2915C11.063 25.2142 10.9154 25.0876 10.8881 25.0806C10.7624 25.0507 10.5839 25.1122 10.4454 25.0806C9.95527 24.9717 9.36313 24.7397 8.85663 24.5464C8.68536 24.4814 7.99484 24.2442 7.91285 24.1809C7.76527 24.0685 7.9839 24.1335 7.61951 23.9683C7.59582 23.9578 7.33528 23.6872 7.24236 23.6239C7.18042 23.5817 7.07474 23.6204 7.01826 23.587C6.91441 23.5273 6.48989 22.9298 6.44981 22.907C6.38786 22.8736 6.27854 22.9157 6.21659 22.8788C6.11456 22.8191 6.2421 22.6469 5.92326 22.7734C5.87953 22.791 5.80483 22.8824 5.75928 22.921C5.46048 23.1881 5.37849 23.3919 5.17625 23.7082C5.10337 23.8225 4.88838 23.8629 4.86105 23.8998C4.6825 24.1405 4.43835 24.8908 4.30899 25.1878C4.13226 25.5937 3.94825 26.0242 3.7788 26.446C3.39619 27.4072 3.27958 29.319 3.63122 30.2907C3.89723 31.0217 5.25642 32.6612 5.95241 33.0706C6.42066 33.3448 6.98 33.466 7.48833 33.5732C7.53752 33.582 7.52841 33.6874 7.57943 33.6997C7.7926 33.7489 8.13877 33.6663 8.37198 33.6962C8.49952 33.7103 8.43575 33.8192 8.56147 33.835C9.88239 33.9844 11.2999 33.9967 12.6336 34.0863C13.7377 34.1619 15.0568 34.146 16.1062 34.2743C16.2338 34.2901 16.17 34.3973 16.2975 34.4131C16.549 34.443 17.3233 34.443 17.5747 34.4131C17.7023 34.3973 17.6385 34.2884 17.7642 34.2743C19.8322 34.0389 22.024 34.1373 23.9589 33.6997C24.2176 33.64 24.7733 33.3781 25.0503 33.3166C25.2707 33.2674 25.5131 33.4467 25.4803 33.1339C25.8574 33.0197 26.3293 32.8809 26.6828 32.728C27.2129 32.4995 27.898 32.1094 28.3553 31.7685C29.5906 30.846 30.2356 29.2347 30.5417 27.8904C30.5526 27.8412 30.6601 27.8517 30.6729 27.8025C30.7202 27.611 30.6401 27.3105 30.6674 27.1032C30.6838 26.9872 30.8696 27.0311 30.8095 26.6533V26.6516Z" fill="#B57E3B"/>
<path d="M33.9196 30.3101C33.752 30.1994 33.6663 30.2205 33.4331 30.0043C32.9631 29.565 32.5659 29.0625 32.4055 28.4703C32.391 28.4158 32.2871 28.4264 32.2762 28.3807C32.2397 28.2313 32.309 28.0345 32.2725 27.8886C32.2616 27.8377 32.1414 27.8447 32.1377 27.8096C32.1231 27.6954 32.2543 27.5829 32.278 27.43C32.3217 27.1278 32.3199 26.0594 32.2798 25.7501C32.2634 25.6271 32.1505 25.6886 32.1359 25.5656C32.0448 24.8592 32.094 24.1563 31.9373 23.5062C31.8425 23.1161 31.644 22.4413 31.5237 22.1039C31.2395 21.3132 30.3394 20.3502 29.7783 19.6386C29.4193 19.1835 29.29 19.1202 29.1369 18.5649C29.1224 18.5087 29.0203 18.521 29.0076 18.4735C28.9001 18.0448 29.0495 17.0731 29.0094 16.5547C28.962 15.9432 28.7233 15.423 28.5448 14.931C28.0073 13.4532 27.5318 12.8997 26.1544 12.1054C25.9448 11.9842 25.7317 11.8665 25.513 11.754C25.5021 11.7382 25.4912 11.7241 25.4784 11.7083C25.4638 11.6907 25.4566 11.682 25.4529 11.6784C25.4402 11.6626 25.4292 11.6468 25.4183 11.631C25.3837 11.5853 25.3545 11.5379 25.3236 11.4904C25.2725 11.4061 25.2252 11.3182 25.1796 11.2304C25.1304 11.1319 25.0849 11.0335 25.0375 10.9351C24.9883 10.8297 24.9409 10.726 24.8936 10.6224C24.8444 10.5187 24.797 10.4132 24.7478 10.3096C24.1174 8.51371 22.6216 7.09916 21.1968 5.79004C19.2928 4.03987 16.8878 2.81334 14.6632 1.48841C14.1148 1.16333 13.6065 1.7432 13.7431 2.21062C13.7067 2.38283 13.7358 2.57085 13.8725 2.74129C14.5156 3.53907 14.8636 4.67773 15.1315 5.6442C15.2062 5.91305 15.259 6.18014 15.2936 6.44724C15.2444 6.49996 15.208 6.5597 15.1879 6.62823C15.1788 6.64932 15.1697 6.6704 15.1606 6.69149C15.0932 6.84085 15.0185 6.98846 14.9201 7.12376C14.7634 7.30124 14.563 7.43479 14.3826 7.58942C14.3316 7.6316 14.297 7.69661 14.2733 7.76339C13.6848 7.95844 12.6153 8.584 12.1853 8.82474C11.2161 9.36947 10.9045 9.67522 10.3761 10.5855C10.3324 10.6593 10.0791 10.8104 10.0081 10.9176C9.88784 11.1056 9.70018 11.6872 9.60544 11.7891C9.43964 11.9684 9.5198 11.6363 9.39955 12.1037C9.3868 12.1511 9.29935 12.1494 9.29024 12.1705C9.11533 12.5729 9.05885 12.9823 8.87483 13.3618C8.75822 13.5991 8.52501 14.1508 8.3829 14.3213C8.33006 14.3845 7.69966 14.6182 7.55208 14.7061C7.15307 14.9416 6.22386 15.973 6.02345 16.3526C5.94875 16.4914 5.61533 17.2822 5.60075 17.3401C5.56067 17.5036 5.63719 17.7302 5.59711 17.8954C5.4222 18.6176 5.39123 19.3574 5.39487 20.1622C5.39851 20.5365 5.53698 21.3237 5.4641 21.6242C5.45317 21.6681 5.3639 21.6664 5.34021 21.7226C5.03412 22.4835 4.64422 22.5749 4.13407 23.1178C3.80429 23.4693 3.54739 23.8207 3.35427 24.2003C2.92975 25.0385 2.38498 26.2632 2.20096 27.1084C2.17181 27.2473 2.22829 27.4142 2.19732 27.5442C2.18638 27.5917 2.07889 27.5829 2.06613 27.6321C2.00965 27.8588 2.02058 29.6546 2.06067 29.9393C2.06613 29.9885 2.32303 30.4296 2.33032 30.4612C2.49794 31.1957 3.13016 32.004 3.66582 32.5575C4.74989 33.6804 5.51148 33.8421 6.94719 34.2831C7.44823 34.4378 7.55208 34.3411 8.03854 34.4008C8.16608 34.4167 8.10231 34.5239 8.22985 34.5397C8.90216 34.6223 9.55807 34.5625 10.3051 34.6609C10.8389 34.7294 11.2689 34.4834 11.6388 34.5309C12.4076 34.6293 13.1947 34.6908 13.9654 34.7962C15.0531 34.9421 16.1864 34.682 17.2486 34.9192C18.0011 35.0879 19.0214 34.9122 19.7702 34.9157C20.3186 34.9175 21.8819 35.0879 22.2572 34.9421C22.3337 34.9122 22.3282 34.805 22.3847 34.7927C22.7509 34.7154 23.3759 34.8472 23.7767 34.798C23.8988 34.7822 23.8642 34.6767 23.917 34.6644C24.1502 34.6117 24.5219 34.7013 24.7751 34.6644C27.089 34.3516 28.9893 33.3799 31.5073 33.3799C31.9847 33.3799 33.005 33.0355 33.537 32.8861C33.7975 32.8141 34.0089 32.5136 34.2803 32.4363C34.4061 31.9126 34.4225 30.6404 33.9196 30.3083V30.3101ZM28.3553 31.7668C27.898 32.1077 27.2129 32.4978 26.6827 32.7262C26.3293 32.8791 25.8574 33.0179 25.4802 33.1321C25.513 33.4449 25.2707 33.2657 25.0503 33.3149C24.7733 33.3764 24.2176 33.6382 23.9589 33.698C22.024 34.1355 19.8321 34.0371 17.7642 34.2726C17.6385 34.2866 17.7023 34.3956 17.5747 34.4114C17.3233 34.4413 16.549 34.4413 16.2975 34.4114C16.17 34.3956 16.2338 34.2884 16.1062 34.2726C15.0568 34.1443 13.7377 34.1601 12.6335 34.0846C11.2999 33.9949 9.88238 33.9826 8.56145 33.8333C8.43573 33.8175 8.4995 33.7085 8.37196 33.6945C8.13875 33.6646 7.79258 33.7472 7.57941 33.698C7.52839 33.6857 7.5375 33.5802 7.48831 33.5714C6.97998 33.4643 6.42064 33.343 5.95239 33.0689C5.2564 32.6595 3.89721 31.02 3.6312 30.289C3.27956 29.3173 3.39617 27.4054 3.77878 26.4442C3.94823 26.0225 4.13225 25.592 4.30898 25.1861C4.43834 24.8891 4.68248 24.1388 4.86103 23.898C4.88836 23.8611 5.10335 23.8207 5.17623 23.7065C5.37847 23.3902 5.46046 23.1864 5.75926 22.9193C5.80481 22.8806 5.87951 22.7892 5.92324 22.7717C6.24208 22.6451 6.11455 22.8174 6.21658 22.8771C6.27852 22.914 6.38784 22.8718 6.44979 22.9052C6.48987 22.9281 6.91439 23.5255 7.01824 23.5853C7.07472 23.6186 7.1804 23.58 7.24234 23.6222C7.33526 23.6854 7.59581 23.956 7.61949 23.9666C7.98389 24.1317 7.76525 24.0667 7.91283 24.1792C7.99482 24.2425 8.68534 24.4797 8.85661 24.5447C9.36311 24.738 9.95525 24.9699 10.4454 25.0789C10.5838 25.1088 10.7624 25.0472 10.8881 25.0789C10.9154 25.0859 11.063 25.2124 11.3509 25.2897C11.4474 25.3143 12.0851 25.5445 12.0669 25.3056C12.0651 25.2897 11.8373 25.0859 11.8209 25.0824C11.7007 25.0595 11.5641 25.1052 11.4456 25.0806C11.4092 25.0718 10.8717 24.8381 10.8189 24.8258C9.95343 24.6062 9.11351 24.1019 8.41387 23.4781C8.2918 23.3709 7.76889 23.0405 7.74885 23.0071C7.61949 22.7892 7.45005 22.3499 7.31704 22.1391C6.63381 21.0672 6.69575 18.7565 7.00184 17.4702C7.01278 17.421 7.12027 17.4298 7.13303 17.3823C7.15671 17.2804 7.11298 17.1644 7.12756 17.0748C7.14214 17.0028 7.29518 17.066 7.32433 17.0362C7.34984 17.0098 7.43729 16.4633 7.48831 16.3508C7.52839 16.2647 8.32459 15.525 8.44484 15.4072C8.58513 15.2719 8.56327 15.1067 8.90216 14.9837C9.0716 14.9205 8.97686 15.2245 9.00237 15.3246C9.01876 15.3897 9.25197 15.9326 9.26655 15.9906C9.32121 16.2331 9.24651 16.2454 9.42688 16.4967C9.68925 16.8657 10.2322 17.2874 10.7241 17.1609C10.9173 16.8095 10.5984 16.7919 10.4381 16.5863C10.3561 16.4826 10.1575 16.0996 10.1375 15.9748C10.0281 15.2965 10.1065 13.5059 10.2686 12.8399C10.2759 12.8118 10.5182 12.4499 10.5784 12.355C11.0794 11.5765 11.7663 10.2358 12.5862 9.64711C13.1911 9.21308 13.9836 8.90205 14.6122 8.54358C14.6741 8.50668 15.0021 8.22026 15.0677 8.2923C15.1916 8.55413 14.942 8.69822 14.9365 8.72282C14.8199 9.23065 14.6942 9.53113 14.543 9.95286C14.4191 10.3008 14.0729 11.2145 14.1385 11.5256C14.195 11.7944 15.044 11.7522 15.2481 11.5519C15.2736 11.5273 15.6161 11.0212 15.6453 10.9703C15.904 10.5099 16.0388 9.95989 16.2538 9.46612C16.252 9.45382 16.2502 9.44327 16.2502 9.43097C16.2483 9.39056 16.2502 9.35014 16.2502 9.30797C16.2793 9.26052 16.3066 9.20781 16.3249 9.14455C16.8277 7.38383 16.6036 5.33669 15.8202 3.5953C17.3087 4.45105 18.7973 5.33669 20.0581 6.449C20.8561 7.15012 21.5739 7.93208 22.2827 8.71755C23.0807 9.60494 23.5435 10.3377 23.7439 11.4711C23.7403 11.4992 23.7384 11.5185 23.7366 11.5291C23.7002 11.6749 23.6401 11.8911 23.589 12.1054C23.1244 14.0717 22.2062 14.7061 20.6557 15.8219C20.4443 15.9748 20.1073 16.3421 19.8868 16.4598C19.5552 16.6373 19.0432 16.7146 18.7153 16.8622C18.5877 16.9202 18.3381 17.0854 18.1814 17.1469C17.3178 17.4842 16.62 17.7496 15.5724 17.8146C14.7652 17.8656 13.867 17.7109 13.0526 17.6951C12.5461 17.8269 12.2108 18.1889 12.9087 18.3839C13.8761 18.6545 15.7928 18.5561 16.7731 18.3945C18.043 18.1854 18.8574 18.0272 20.049 17.4052C20.5318 17.1556 21.2004 16.5951 21.6213 16.3473C22.2572 15.9748 22.9167 15.4951 23.4688 14.9328C24.0008 14.3933 24.6276 13.7133 24.8681 13.0051C24.9227 12.8452 24.8134 12.4165 25.125 12.557C25.1377 12.5623 25.2379 12.731 25.298 12.7679C25.4547 12.8681 25.657 12.9313 25.8209 13.0561C26.4204 13.5094 26.7829 14.3705 27.0125 15.0593C27.0307 15.1138 27.1273 15.1103 27.1364 15.1559C27.2676 15.7358 27.4042 17.9358 27.2712 18.4753C27.2075 18.7301 27.1892 18.7951 27.1437 19.136C27.1291 19.2555 27.018 19.2204 27.007 19.2713C26.8996 19.751 27.0052 19.6157 26.7265 20.0849C26.67 20.1815 26.6554 20.3555 26.6117 20.4117C26.5315 20.5154 26.5716 20.3344 26.4022 20.656C26.1034 21.2253 25.6916 21.8281 25.165 22.3429C24.0372 23.4429 22.689 24.499 21.215 25.2019C20.8597 25.3723 20.3806 25.5147 20.0034 25.6605C19.9961 25.9663 20.2384 25.9592 20.5081 25.9223C20.6338 25.9048 20.5974 25.8011 20.6484 25.7905C21.328 25.6465 21.5903 25.599 22.259 25.2774C22.3082 25.2546 22.4266 25.2985 22.4649 25.2651C22.4922 25.2405 22.4521 25.114 22.4776 25.0912C22.5086 25.0613 22.6635 25.0912 22.7509 25.0631C24.1739 24.5974 26.4513 22.9825 27.2148 21.7138C27.5828 21.1023 27.8634 20.605 28.0073 19.9795C28.011 19.9584 28.2515 19.853 28.1403 19.614C28.41 19.556 28.3444 19.744 28.4318 19.8459C28.8709 20.3608 29.3064 20.7772 29.5432 21.3641C29.5724 21.438 29.7673 21.5205 29.7874 21.561C29.8238 21.6383 29.7874 21.7595 29.8165 21.7929C29.8457 21.8228 29.9677 21.7613 30.0078 21.8439C30.2465 22.3359 30.2884 22.921 30.4087 23.4289C30.4196 23.4781 30.5271 23.4693 30.538 23.5167C30.7694 24.4656 30.6473 25.6183 30.8095 26.6533C30.8696 27.0311 30.6838 26.9872 30.6674 27.1032C30.6401 27.3105 30.7202 27.611 30.6728 27.8025C30.6601 27.8517 30.5526 27.8412 30.5417 27.8904C30.2356 29.2347 29.5906 30.846 28.3553 31.7686V31.7668ZM33.0523 32.2026C32.974 32.4398 32.4438 32.3063 32.2525 32.3502C32.1997 32.3625 32.2343 32.4662 32.1122 32.482C31.8006 32.5206 30.4123 32.4099 30.2866 32.4943C30.252 32.5189 30.3249 32.6366 30.1736 32.6067C30.1153 32.5944 30.17 32.5048 30.0898 32.4767C29.9605 32.431 29.7309 32.5189 29.8511 32.1727C29.8766 32.0972 30.2757 31.8019 30.3576 31.7018C30.7311 31.2467 30.8787 30.788 31.1648 30.3118C31.1958 30.2609 31.3743 30.1713 31.3871 30.1431C31.4253 30.0606 31.3943 29.9182 31.4071 29.9042C31.4253 29.8866 31.8407 29.8936 31.9227 29.9235C31.9373 29.9288 32.0302 30.0799 32.0776 30.1133C32.2179 30.2134 33.0542 30.8337 33.0706 30.9146C33.1052 31.0745 33.0979 32.0603 33.0523 32.2026Z" fill="black"/>
<path d="M30.6674 27.1013C30.6401 27.3087 30.7202 27.6092 30.6729 27.8007C30.6601 27.8499 30.5526 27.8394 30.5417 27.8886C30.2356 29.2328 29.5906 30.8442 28.3553 31.7667C27.898 32.1076 27.2129 32.4977 26.6828 32.7262C26.3293 32.879 25.8574 33.0178 25.4803 33.1321C25.5131 33.4449 25.2707 33.2656 25.0503 33.3148C24.7733 33.3763 24.2176 33.6381 23.9589 33.6979C22.024 34.1354 19.8322 34.037 17.7642 34.2725C17.6385 34.2865 17.7023 34.3955 17.5747 34.4113C17.3233 34.4412 16.549 34.4412 16.2975 34.4113C16.17 34.3955 16.2338 34.2883 16.1062 34.2725C15.0568 34.1442 13.7377 34.16 12.6336 34.0845C11.2999 33.9949 9.88239 33.9826 8.56147 33.8332C8.43575 33.8174 8.49952 33.7084 8.37198 33.6944C8.13877 33.6645 7.7926 33.7471 7.57943 33.6979C7.52841 33.6856 7.53752 33.5802 7.48833 33.5714C6.98 33.4642 6.42066 33.3429 5.95241 33.0688C5.25642 32.6594 3.89723 31.0199 3.63122 30.2889C3.27958 29.3172 3.39619 27.4053 3.7788 26.4441C3.94825 26.0224 4.13226 25.5919 4.30899 25.186C4.43835 24.889 4.6825 24.1387 4.86105 23.898C4.88838 23.8611 5.10337 23.8206 5.17625 23.7064C5.37849 23.3901 5.46048 23.1863 5.75928 22.9192C5.80483 22.8805 5.87953 22.7892 5.92326 22.7716C6.2421 22.6451 6.11456 22.8173 6.21659 22.877C6.27854 22.9139 6.38786 22.8718 6.44981 22.9051C6.48989 22.928 6.91441 23.5254 7.01826 23.5852C7.07474 23.6186 7.18042 23.5799 7.24236 23.6221C7.33528 23.6853 7.59582 23.9559 7.61951 23.9665C7.9839 24.1317 7.76527 24.0667 7.91285 24.1791C7.99484 24.2424 8.68536 24.4796 8.85663 24.5446C9.36313 24.7379 9.95527 24.9699 10.4454 25.0788C10.5839 25.1087 10.7624 25.0472 10.8881 25.0788C10.9154 25.0858 11.063 25.2123 11.3509 25.2897C11.4475 25.3143 12.0852 25.5445 12.0669 25.3055C12.0651 25.2897 11.8374 25.0858 11.821 25.0823C11.7007 25.0595 11.5641 25.1052 11.4456 25.0806C11.4092 25.0718 10.8717 24.8381 10.8189 24.8258C9.95345 24.6061 9.11352 24.1018 8.41389 23.478C8.29182 23.3708 7.76891 23.0404 7.74887 23.0071C7.61951 22.7892 7.45007 22.3499 7.31706 22.139C6.63383 21.0671 6.69577 18.7564 7.00186 17.4701C7.01279 17.4209 7.12029 17.4297 7.13304 17.3822C7.15673 17.2803 7.113 17.1643 7.12758 17.0747C7.14215 17.0027 7.2952 17.0659 7.32435 17.0361C7.34986 17.0097 7.43731 16.4632 7.48833 16.3508C7.52841 16.2647 8.32461 15.5249 8.44486 15.4071C8.58515 15.2718 8.56329 15.1067 8.90218 14.9837C9.07162 14.9204 8.97688 15.2244 9.00238 15.3246C9.01878 15.3896 9.25199 15.9325 9.26657 15.9905C9.32123 16.233 9.24653 16.2453 9.4269 16.4966C9.68927 16.8656 10.2322 17.2874 10.7241 17.1608C10.9173 16.8094 10.5984 16.7918 10.4381 16.5862C10.3561 16.4826 10.1575 16.0995 10.1375 15.9747C10.0282 15.2964 10.1065 13.5058 10.2687 12.8399C10.2759 12.8118 10.5183 12.4498 10.5784 12.3549C11.0794 11.5764 11.7663 10.2357 12.5862 9.64703C13.1911 9.213 13.9836 8.90197 14.6122 8.5435C14.6742 8.5066 15.0021 8.22018 15.0677 8.29222C15.1916 8.55405 14.942 8.69814 14.9365 8.72274C14.8199 9.23057 14.6942 9.53105 14.543 9.95278C14.4191 10.3007 14.0729 11.2145 14.1385 11.5255C14.195 11.7943 15.044 11.7522 15.2481 11.5518C15.2736 11.5272 15.6161 11.0212 15.6453 10.9702C15.904 10.5098 16.0388 9.95981 16.2538 9.46604C16.252 9.45374 16.2502 9.44319 16.2502 9.43089C16.2483 9.39048 16.2502 9.35006 16.2502 9.30789C16.2793 9.26044 16.3067 9.20773 16.3249 9.14447C16.8277 7.38375 16.6036 5.3366 15.8202 3.59521C17.3087 4.45097 18.7973 5.3366 20.0581 6.44892C20.8561 7.15004 21.574 7.932 22.2827 8.71747C23.0807 9.60486 23.5435 10.3376 23.7439 11.471C23.7403 11.4991 23.7385 11.5185 23.7366 11.529C23.7002 11.6748 23.6401 11.891 23.5891 12.1054C23.1245 14.0717 22.2062 14.706 20.6557 15.8218C20.4443 15.9747 20.1073 16.342 19.8868 16.4597C19.5552 16.6372 19.0432 16.7145 18.7153 16.8621C18.5878 16.9201 18.3381 17.0853 18.1815 17.1468C17.3178 17.4842 16.62 17.7495 15.5724 17.8145C14.7653 17.8655 13.867 17.7108 13.0526 17.695C12.5461 17.8268 12.2109 18.1888 12.9087 18.3839C13.8761 18.6545 15.7929 18.5561 16.7731 18.3944C18.043 18.1853 18.8574 18.0271 20.049 17.4051C20.5318 17.1556 21.2005 16.595 21.6213 16.3472C22.2572 15.9747 22.9167 15.495 23.4688 14.9327C24.0008 14.3932 24.6276 13.7132 24.8681 13.005C24.9227 12.8451 24.8134 12.4164 25.125 12.557C25.1377 12.5622 25.2379 12.7309 25.2981 12.7678C25.4548 12.868 25.657 12.9312 25.821 13.056C26.4204 13.5094 26.783 14.3704 27.0125 15.0592C27.0308 15.1137 27.1273 15.1102 27.1364 15.1559C27.2676 15.7357 27.4043 17.9358 27.2713 18.4752C27.2075 18.73 27.1893 18.795 27.1437 19.1359C27.1291 19.2554 27.018 19.2203 27.0071 19.2712C26.8996 19.751 27.0052 19.6157 26.7265 20.0848C26.67 20.1815 26.6554 20.3554 26.6117 20.4117C26.5315 20.5153 26.5716 20.3343 26.4022 20.6559C26.1034 21.2253 25.6916 21.828 25.1651 22.3428C24.0373 23.4428 22.689 24.4989 21.215 25.2018C20.8597 25.3723 20.3806 25.5146 20.0034 25.6604C19.9961 25.9662 20.2385 25.9592 20.5081 25.9223C20.6338 25.9047 20.5974 25.801 20.6484 25.7905C21.328 25.6464 21.5904 25.5989 22.259 25.2774C22.3082 25.2545 22.4266 25.2985 22.4649 25.2651C22.4922 25.2405 22.4521 25.1139 22.4777 25.0911C22.5086 25.0612 22.6635 25.0911 22.751 25.063C24.1739 24.5973 26.4514 22.9825 27.2148 21.7138C27.5828 21.1022 27.8634 20.605 28.0073 19.9794C28.011 19.9583 28.2515 19.8529 28.1403 19.6139C28.41 19.5559 28.3444 19.7439 28.4318 19.8458C28.8709 20.3607 29.3064 20.7772 29.5432 21.3641C29.5724 21.4379 29.7673 21.5205 29.7874 21.5609C29.8238 21.6382 29.7874 21.7594 29.8165 21.7928C29.8457 21.8227 29.9678 21.7612 30.0078 21.8438C30.2465 22.3358 30.2884 22.921 30.4087 23.4288C30.4196 23.478 30.5271 23.4692 30.538 23.5166C30.7694 24.4655 30.6474 25.6183 30.8095 26.6533C30.8696 27.0311 30.6838 26.9871 30.6674 27.1031V27.1013Z" fill="#2C1908"/>
<path d="M14.3917 7.58592C14.3917 7.58592 14.3735 7.60174 14.3644 7.61052C14.3826 7.59471 14.3571 7.61404 14.3498 7.61931C14.3298 7.63161 14.3079 7.64391 14.2861 7.65445C14.2387 7.67905 14.1913 7.7019 14.1476 7.73001C14.0383 7.79854 13.9435 7.88816 13.8415 7.96548C13.7705 8.01995 13.6611 8.09375 13.5719 8.14823C13.468 8.21149 13.3623 8.26947 13.253 8.32219C13.1656 8.36436 13.1401 8.48385 13.1874 8.56293C13.2403 8.64903 13.3478 8.66836 13.437 8.62619C13.6666 8.51548 13.8816 8.38018 14.0838 8.2273C14.1749 8.15877 14.2624 8.07618 14.3498 8.02346C14.4537 7.96196 14.5612 7.91803 14.6505 7.83544C14.7197 7.76867 14.7197 7.65445 14.6505 7.58768C14.5812 7.5209 14.4628 7.5209 14.3936 7.58768L14.3917 7.58592Z" fill="black"/>
</g>
<defs>
<clipPath id="clip0_1217_3141">
<rect width="35" height="35" fill="white"/>
</clipPath>
</defs>
</svg>
