<svg width="32" height="17" viewBox="0 0 32 17" fill="none" xmlns="http://www.w3.org/2000/svg">
<g clip-path="url(#clip0_1217_3107)">
<path d="M31.7939 10.2684C31.4633 9.9188 30.5287 9.38862 30.0837 9.04176C29.848 8.85754 29.6078 8.60323 29.363 8.40284C29.1376 8.21952 28.9626 7.95263 28.6228 7.86816C27.4629 8.04519 26.4447 8.70388 25.3351 9.00312C24.8146 9.1433 24.198 9.18913 23.6764 9.34998C22.7578 9.63484 22.235 10.1929 21.4674 10.5335C20.9251 10.7752 19.732 10.8174 19.9745 11.4303C19.9951 11.4824 20.8725 12.0485 21.0166 12.1357C21.2969 12.3064 23.0895 13.338 23.2497 13.3641C25.2985 13.4881 27.3942 13.7137 29.4431 13.4998C30.0574 13.4351 30.6019 12.7279 30.9302 12.3199C31.1498 12.0476 32.0124 10.8588 31.9998 10.6197C31.9918 10.4499 31.9094 10.3897 31.7939 10.2684ZM22.9557 10.3061C23.8743 9.75346 25.0628 9.69864 26.097 9.34818C26.8623 9.08848 27.6013 8.64996 28.4158 8.43968C28.5977 8.4262 29.053 8.91865 29.2017 9.03726C29.7359 9.465 30.3182 9.94397 30.9439 10.2702C30.8055 10.5182 30.4383 10.4211 30.1969 10.475C29.1182 10.7159 28.6743 10.8866 27.5155 10.901C25.6691 10.9244 23.8171 10.8507 21.9799 10.9666L22.9557 10.3061ZM30.2198 12.0791C30.0757 12.2516 29.5712 12.8384 29.3676 12.8699C27.4114 12.966 25.4483 12.9373 23.4865 12.9238C22.9293 12.1824 21.8174 11.9182 21.0109 11.3791C21.2901 11.282 21.711 11.2335 22.0165 11.2182C24.4051 11.1032 26.7502 11.3844 29.1182 11.0879C29.7862 11.0043 30.4063 10.6997 31.1052 10.777C30.8307 11.2164 30.5619 11.6693 30.2198 12.0791Z" fill="black"/>
<path d="M31.1055 10.7771C30.831 11.2165 30.5622 11.6694 30.2201 12.0792C30.076 12.2517 29.5715 12.8385 29.3679 12.87C27.4117 12.9661 25.4487 12.9374 23.4868 12.9239C22.9297 12.1825 21.8177 11.9183 21.0112 11.3792C21.2904 11.2821 21.7113 11.2336 22.0168 11.2183C24.4054 11.1033 26.7505 11.3846 29.1185 11.088C29.7865 11.0044 30.4066 10.6998 31.1055 10.7771Z" fill="#1B0903"/>
<path d="M30.9441 10.2702C30.8056 10.5182 30.4384 10.4212 30.197 10.4751C29.1183 10.7159 28.6744 10.8867 27.5156 10.901C25.6693 10.9244 23.8172 10.8507 21.98 10.9666L22.9558 10.3061C23.8744 9.7535 25.063 9.69868 26.0971 9.34822C26.8624 9.08852 27.6014 8.65 28.4159 8.43972C28.5978 8.42625 29.0531 8.91869 29.2018 9.0373C29.736 9.46504 30.3183 9.94401 30.9441 10.2702Z" fill="#2C1908"/>
<path d="M25.9475 8.08018C25.8194 9.30139 25.6147 9.92593 25.0026 11.0177C24.8985 11.202 24.5267 12.1015 24.3963 12.159C24.3048 12.1985 24.076 12.1644 23.9239 12.2003C22.9126 12.4394 23.1254 12.9821 22.4344 13.3775C21.8396 13.7181 21.0262 13.5788 20.3456 13.6399C18.0554 13.8457 15.6107 14.4217 13.3114 14.5223C11.5634 14.5987 9.78568 14.3885 8.03427 14.4433C7.72769 14.0793 7.15571 13.8313 6.72444 13.5375C4.72594 12.177 2.79837 10.5648 1.32838 8.83142C0.889096 8.31292 0.78614 8.08916 1.13734 7.49787C1.60522 6.71248 4.03041 4.26016 4.86436 3.63652C5.4821 3.17374 5.73262 3.59429 6.33778 3.75334C8.33399 4.27903 10.9457 4.45606 12.84 5.11744C13.8536 5.4715 15.3236 6.51389 16.3932 7.02161C17.0006 7.30917 18.1469 7.87709 18.8115 7.91753C19.2142 7.94269 19.2233 7.79711 19.5105 7.71803C20.5824 7.42509 21.7584 7.17347 22.7971 6.87424C23.8621 6.56691 24.7624 5.80848 25.9487 5.82825C25.8926 6.56062 26.023 7.35499 25.9487 8.08018H25.9475Z" fill="#1B0903"/>
<path d="M24.0001 5.82128C23.9681 5.86082 23.0724 6.17533 22.9328 6.22027C22.3688 6.39999 21.8129 6.46738 21.266 6.62464C20.6197 6.80976 19.5101 7.43609 18.8935 7.40913C18.3478 7.38577 17.2416 6.82144 16.7154 6.57702C15.6446 6.08008 14.3657 5.46183 13.351 4.90649C13.2103 4.82921 13.1874 4.69352 13.0032 4.60815C12.3912 4.32598 10.4247 3.9926 9.63312 3.82995C8.74197 3.64573 7.3452 3.51094 6.54557 3.27371C6.4449 3.24405 6.20352 3.19103 6.24127 3.06972C6.28818 2.91516 9.54503 2.00396 9.99461 1.89433C11.2084 1.59779 12.5216 1.38302 13.7525 1.10265C14.13 1.01728 14.8084 0.730626 15.1436 0.764773C15.4479 0.795326 16.005 1.25811 16.4431 1.3992C16.7886 1.50973 17.1638 1.51961 17.4612 1.61396C18.9781 2.09742 20.2731 3.71223 21.1951 4.7079C21.7694 5.32794 22.0931 5.1608 22.895 5.33962C23.038 5.37107 23.9727 5.60382 24.0035 5.64335C24.0207 5.66402 24.0207 5.79612 24.0001 5.82128Z" fill="#2C1908"/>
<path d="M12.307 15.2396C12.0153 15.2396 11.7225 15.2333 11.4376 15.2207C11.0899 15.2055 10.7318 15.1632 10.3863 15.1219C10.0672 15.0842 9.73656 15.0446 9.42083 15.0284C9.30414 15.0221 9.18631 15.0195 9.06162 15.0195C8.90147 15.0195 8.7539 15.0239 8.6109 15.0293C8.47935 15.0338 8.3558 15.0383 8.23225 15.0383C7.76437 15.0383 7.33767 14.9772 6.77141 14.6789C4.64479 13.5592 2.76641 11.6362 1.53894 10.2873C1.36506 10.0959 1.18317 9.9261 1.00814 9.76166C0.406419 9.19553 -0.112939 8.70848 0.022048 7.74876C0.121573 7.03166 2.72637 4.44096 3.2503 3.96649C4.10255 3.19637 4.56471 2.80727 5.77159 2.38133C7.30107 1.84216 8.82368 1.52675 10.296 1.22212C11.1368 1.04779 12.0073 0.868062 12.8756 0.647003C13.1021 0.589491 13.3789 0.484354 13.6729 0.373824C14.1191 0.204884 14.5812 0.0296543 14.9278 0.00359446C14.9633 0.000898615 14.9988 0 15.0342 0C15.501 0 15.9117 0.22735 16.2743 0.427741C16.5134 0.559837 16.7387 0.684745 16.9412 0.726081C17.0396 0.745851 17.1311 0.750344 17.2272 0.755735C17.3691 0.762924 17.5304 0.771012 17.7225 0.831219C18.799 1.1664 20.277 2.44513 21.0629 3.1775C21.1762 3.28354 21.326 3.45338 21.4999 3.65017C21.7836 3.97098 22.1714 4.4104 22.3682 4.50386C22.5215 4.57305 24.552 5.16524 24.7293 5.1922C24.7533 5.19579 24.7854 5.19759 24.8242 5.19759C24.9524 5.19759 25.1297 5.17962 25.3173 5.16075C25.5427 5.13828 25.776 5.11402 25.9842 5.11402C26.1684 5.11402 26.4304 5.13019 26.5676 5.26858C26.6775 5.37911 26.8342 6.66683 26.8353 6.67851C26.8948 7.47648 26.8319 8.52606 26.6649 9.48668C26.5917 9.90813 26.3274 10.3188 26.0712 10.7151C25.9465 10.9083 25.8298 11.0898 25.736 11.2695C25.6971 11.3432 25.6456 11.4771 25.585 11.6335C25.3299 12.294 25.124 12.7684 24.8094 12.8502C24.6996 12.879 24.576 12.8879 24.4456 12.8978C24.2763 12.9104 24.1013 12.923 23.9857 12.9832C23.9388 13.011 23.813 13.1719 23.7203 13.2887C23.5682 13.4819 23.3966 13.7012 23.233 13.8216C22.5661 14.3122 21.8088 14.3347 21.0755 14.3563C20.8158 14.3635 20.547 14.3716 20.2839 14.4003C19.3881 14.4965 18.5062 14.6214 17.6528 14.7427C15.859 14.9979 14.1648 15.2387 12.307 15.2387V15.2396ZM8.65437 14.3069C9.29613 14.3069 9.94819 14.3338 10.5797 14.3599C11.2065 14.3859 11.854 14.412 12.4866 14.412C12.7783 14.412 13.0449 14.4066 13.3023 14.3949C14.5938 14.3383 15.9563 14.1262 17.2741 13.9222C18.2842 13.765 19.3275 13.6032 20.3273 13.5134C20.5367 13.4945 20.7586 13.4936 20.9725 13.4936C21.4816 13.4918 21.9621 13.4909 22.3396 13.2752C22.5947 13.1288 22.7114 12.9616 22.836 12.7846C23.0248 12.5141 23.2204 12.2346 23.8782 12.0792C23.9743 12.0567 24.0807 12.0558 24.1745 12.0549C24.2168 12.0549 24.2763 12.054 24.3083 12.0495C24.3953 11.9498 24.6 11.5077 24.6996 11.2902C24.7682 11.1428 24.822 11.026 24.8551 10.9667C25.4614 9.88566 25.6616 9.26292 25.7863 8.07046C25.8252 7.69754 25.8081 7.29496 25.7909 6.90586C25.7772 6.59314 25.7634 6.27143 25.7783 5.95962C25.1446 5.99017 24.5909 6.25077 24.0075 6.52484C23.6391 6.69828 23.257 6.878 22.8521 6.99482C22.2789 7.16016 21.6543 7.31293 21.0515 7.4612C20.5561 7.58251 20.0448 7.70832 19.5632 7.83952C19.4808 7.86198 19.4259 7.89254 19.3687 7.92399C19.2623 7.9824 19.1433 8.0489 18.8985 8.0489C18.8676 8.0489 18.8345 8.048 18.7979 8.0453C18.1447 8.00576 17.1254 7.52051 16.4516 7.1997L16.3086 7.13141C15.8567 6.91664 15.35 6.6174 14.8146 6.30109C14.0939 5.87515 13.3492 5.43572 12.7738 5.23443C11.7053 4.86151 10.3795 4.64045 9.09823 4.42658C8.13959 4.26662 7.14892 4.10128 6.28637 3.87483C6.09533 3.82451 5.9409 3.75262 5.80362 3.68882C5.64232 3.61333 5.51534 3.55402 5.38837 3.55402C5.31172 3.55402 5.18703 3.572 4.97654 3.72925C4.12086 4.36907 1.73227 6.80072 1.28498 7.55196C0.969247 8.08394 1.03674 8.25648 1.46458 8.7606C2.81217 10.3493 4.66767 11.9678 6.83204 13.4406C6.96589 13.5322 7.11231 13.6176 7.26789 13.7084C7.57676 13.889 7.89478 14.0759 8.11785 14.3122C8.29059 14.3078 8.46791 14.3051 8.65666 14.3051L8.65437 14.3069ZM6.44081 3.10382C6.48314 3.12089 6.54148 3.13707 6.56664 3.14425L6.60211 3.15414C7.07342 3.29342 7.7678 3.39856 8.43816 3.50011C8.89003 3.5684 9.31672 3.6331 9.67364 3.70679C9.83608 3.74004 10.0489 3.78137 10.2891 3.8272C11.2546 4.01232 12.5782 4.26573 13.0838 4.49847C13.2176 4.56047 13.2851 4.64135 13.34 4.70605C13.3755 4.74828 13.4041 4.78153 13.4418 4.8022C14.5206 5.39259 15.8613 6.0333 16.7959 6.46733C16.8692 6.50148 16.9538 6.54102 17.0453 6.58505C17.5784 6.83846 18.4707 7.26351 18.8997 7.28148C18.91 7.28148 18.9203 7.28148 18.9306 7.28148C19.2863 7.28148 19.8595 7.03975 20.3639 6.82678C20.674 6.69558 20.9668 6.57247 21.2082 6.50328C21.4621 6.43049 21.7207 6.37567 21.9712 6.32266C22.2664 6.26065 22.5706 6.19595 22.8692 6.1007C23.0156 6.05397 23.6677 5.82213 23.8507 5.74395C23.8507 5.73766 23.8507 5.73047 23.8507 5.72418C23.646 5.65858 22.9996 5.49503 22.8486 5.46178C22.637 5.41505 22.4574 5.39259 22.2995 5.37282C21.8625 5.318 21.5171 5.27487 21.0618 4.78243C20.9416 4.65303 20.8147 4.51285 20.6831 4.36547C19.8354 3.42552 18.6743 2.13781 17.3988 1.73163C17.2707 1.69119 17.1185 1.66603 16.9584 1.64087C16.7696 1.61032 16.5752 1.57887 16.3807 1.51686C16.1542 1.44407 15.9162 1.30299 15.6852 1.1664C15.4769 1.04239 15.2401 0.903108 15.1212 0.891426C15.1086 0.890528 15.096 0.889629 15.0823 0.889629C14.8867 0.889629 14.5561 0.994767 14.2644 1.08822C14.0916 1.14304 13.9292 1.19516 13.7953 1.22571C13.2428 1.35152 12.6662 1.46564 12.108 1.57617C11.4205 1.71276 10.7089 1.85294 10.0409 2.01649C9.53065 2.1405 6.93843 2.87737 6.43966 3.10472L6.44081 3.10382Z" fill="black"/>
<path d="M26.6738 6.68578C26.6612 6.51774 26.4931 5.39986 26.4404 5.34684C26.1933 5.09972 25.0826 5.3711 24.7005 5.31809C24.5209 5.29293 22.44 4.68726 22.2844 4.61357C21.9389 4.45002 21.2537 3.555 20.938 3.26026C20.199 2.57102 18.7084 1.27612 17.6617 0.949918C17.37 0.858259 17.1675 0.904987 16.8998 0.850172C16.3164 0.731555 15.6918 0.0755657 14.9425 0.13128C14.4105 0.170819 13.5114 0.621025 12.9245 0.769297C10.5234 1.37946 8.22058 1.65803 5.83771 2.49823C4.66057 2.91429 4.20642 3.2971 3.37247 4.05104C2.70898 4.65131 0.273487 7.11532 0.183114 7.76322C0.0183836 8.9422 0.901521 9.36994 1.66912 10.2128C3.05674 11.7378 4.8539 13.5171 6.86041 14.5729C7.8385 15.0878 8.35099 14.8443 9.43089 14.9018C10.0978 14.9369 10.7853 15.0654 11.4465 15.0941C14.5524 15.228 17.2659 14.5954 20.263 14.2746C21.28 14.165 22.2741 14.3546 23.1229 13.7291C23.4009 13.5242 23.743 12.9572 23.8963 12.8772C24.1422 12.7487 24.5209 12.7928 24.7588 12.7299C25.1111 12.6382 25.4292 11.5212 25.5859 11.222C25.8787 10.6622 26.4004 10.0673 26.5045 9.46969C26.6532 8.61331 26.739 7.55204 26.6738 6.68578ZM6.24153 3.06975C6.28843 2.91519 9.54528 2.00399 9.99486 1.89436C11.2086 1.59782 12.5219 1.38305 13.7528 1.10268C14.1303 1.01731 14.8086 0.730656 15.1438 0.764803C15.4481 0.795356 16.0052 1.25814 16.4434 1.39923C16.7888 1.50976 17.1641 1.51964 17.4615 1.61399C18.9784 2.09745 20.2733 3.71226 21.1954 4.70793C21.7696 5.32797 22.0934 5.16083 22.8953 5.33965C23.0383 5.3711 23.9729 5.60385 24.0038 5.64338C24.021 5.66405 24.021 5.79615 24.0004 5.82131C23.9683 5.86085 23.0726 6.17536 22.9331 6.2203C22.3691 6.40002 21.8131 6.46741 21.2663 6.62467C20.62 6.80979 19.5103 7.43612 18.8937 7.40916C18.3481 7.3858 17.2418 6.82147 16.7156 6.57705C15.6449 6.08011 14.3659 5.46186 13.3512 4.90652C13.2105 4.82924 13.1877 4.69355 13.0035 4.60818C12.3915 4.32601 10.425 3.99263 9.63337 3.82998C8.74222 3.64576 7.34545 3.51097 6.54582 3.27374C6.44515 3.24408 6.20378 3.19106 6.24153 3.06975ZM25.9474 8.08043C25.8193 9.30165 25.6145 9.92618 25.0025 11.018C24.8984 11.2022 24.5266 12.1017 24.3962 12.1592C24.3047 12.1988 24.0759 12.1646 23.9237 12.2006C22.9125 12.4396 23.1252 12.9824 22.4343 13.3778C21.8394 13.7183 21.0261 13.5791 20.3454 13.6402C18.0552 13.8459 15.6106 14.422 13.3112 14.5226C11.5632 14.599 9.78552 14.3887 8.03411 14.4435C7.72753 14.0796 7.15555 13.8316 6.72428 13.5377C4.72578 12.1772 2.79821 10.5651 1.32822 8.83167C0.888937 8.31317 0.785981 8.08942 1.13718 7.49813C1.60506 6.71274 4.03025 4.26042 4.8642 3.63678C5.48194 3.17399 5.73247 3.59454 6.33762 3.7536C8.33383 4.27929 10.9455 4.45631 12.8399 5.1177C13.8534 5.47175 15.3234 6.51414 16.393 7.02186C17.0005 7.30942 18.1467 7.87734 18.8114 7.91778C19.214 7.94294 19.2232 7.79737 19.5103 7.71829C20.5822 7.42534 21.7582 7.17373 22.7969 6.87449C23.8619 6.56716 24.7622 5.80873 25.9485 5.8285C25.8925 6.56087 26.0229 7.35525 25.9485 8.08043H25.9474Z" fill="black"/>
<path d="M28.2754 15.1372C27.9573 14.6286 26.7173 14.7687 26.0973 14.793C25.3457 14.8218 23.3598 14.9835 22.7031 15.1722C21.8086 15.4292 22.9319 16.0331 23.3243 16.2353C23.8059 16.4824 25.0448 16.9982 25.5882 17C26.0275 17 27.7629 16.5884 28.1621 16.415C28.7398 16.1652 28.5179 15.5254 28.2754 15.1372ZM27.7983 15.9711C27.7377 16.0448 25.8387 16.4743 25.6591 16.4851C25.277 16.5103 24.0153 15.928 23.6103 15.7572C24.3779 15.5757 25.1924 15.4679 25.992 15.4086C26.3066 15.3852 27.5455 15.2747 27.7091 15.4238C27.7766 15.4858 27.8532 15.9037 27.7983 15.9711Z" fill="black"/>
<path d="M27.7984 15.971C27.7378 16.0447 25.8388 16.4743 25.6592 16.485C25.2771 16.5102 24.0153 15.9279 23.6104 15.7572C24.3779 15.5756 25.1924 15.4678 25.9921 15.4085C26.3067 15.3851 27.5456 15.2746 27.7092 15.4238C27.7767 15.4858 27.8533 15.9036 27.7984 15.971Z" fill="#1B0903"/>
</g>
<defs>
<clipPath id="clip0_1217_3107">
<rect width="32" height="17" fill="white"/>
</clipPath>
</defs>
</svg>
