<svg width="35" height="35" viewBox="0 0 35 35" fill="none" xmlns="http://www.w3.org/2000/svg">
<g clip-path="url(#clip0_1217_3392)">
<path d="M31.0078 26.7738C30.9782 26.9897 31.065 27.3026 31.0137 27.5021C30.9999 27.5534 30.8835 27.5424 30.8717 27.5936C30.5403 28.9936 29.842 30.6718 28.5046 31.6326C28.0095 31.9876 27.2678 32.3939 26.6937 32.6318C26.3111 32.791 25.8002 32.9356 25.3918 33.0545C25.4273 33.3803 25.165 33.1936 24.9263 33.2449C24.6265 33.3089 24.0248 33.5816 23.7447 33.6438C21.6498 34.0995 19.2768 33.997 17.0379 34.2422C16.9018 34.2569 16.9708 34.3703 16.8328 34.3868C16.5605 34.4179 15.7222 34.4179 15.45 34.3868C15.3119 34.3703 15.3809 34.2587 15.2428 34.2422C14.1066 34.1087 12.6785 34.1251 11.4831 34.0464C10.0391 33.9531 8.50447 33.9403 7.07434 33.7847C6.93823 33.7683 7.00727 33.6548 6.86919 33.6402C6.6167 33.609 6.2419 33.6951 6.01111 33.6438C5.95588 33.631 5.96574 33.5212 5.91248 33.5121C5.36213 33.4004 4.75654 33.2741 4.24958 32.9887C3.49605 32.5622 2.0245 30.8548 1.7365 30.0935C1.35579 29.0815 1.48204 27.0904 1.89628 26.0893C2.07973 25.6501 2.27896 25.2017 2.47031 24.779C2.61036 24.4697 2.87469 23.6883 3.068 23.4375C3.09759 23.3991 3.33036 23.357 3.40926 23.2381C3.62822 22.9087 3.71698 22.6964 4.04049 22.4182C4.0898 22.3779 4.17068 22.2828 4.21802 22.2645C4.56323 22.1327 4.42515 22.3121 4.53561 22.3743C4.60268 22.4127 4.72103 22.3688 4.7881 22.4036C4.8315 22.4273 5.29111 23.0496 5.40355 23.1118C5.4647 23.1466 5.57911 23.1063 5.64618 23.1502C5.74678 23.2161 6.02886 23.4979 6.05451 23.5089C6.44903 23.6809 6.21231 23.6132 6.37209 23.7304C6.46086 23.7962 7.20847 24.0433 7.3939 24.111C7.94228 24.3123 8.58337 24.5539 9.114 24.6673C9.26392 24.6985 9.45723 24.6344 9.59334 24.6673C9.62293 24.6747 9.78271 24.8064 10.0944 24.887C10.1989 24.9126 10.8893 25.1523 10.8696 24.9034C10.8676 24.887 10.6211 24.6747 10.6033 24.671C10.4731 24.6472 10.3252 24.6948 10.197 24.6692C10.1575 24.66 9.57559 24.4166 9.51838 24.4038C8.5814 24.1751 7.67203 23.6498 6.91456 23.0002C6.78239 22.8885 6.21626 22.5445 6.19456 22.5097C6.05451 22.2828 5.87106 21.8253 5.72706 21.6056C4.98733 20.4893 5.0544 18.0828 5.3858 16.7432C5.39763 16.6919 5.51402 16.7011 5.52782 16.6517C5.55347 16.5455 5.50613 16.4247 5.52191 16.3314C5.53769 16.2564 5.70339 16.3222 5.73495 16.2911C5.76256 16.2637 5.85725 15.6945 5.91248 15.5774C5.95588 15.4877 6.8179 14.7173 6.94809 14.5947C7.09998 14.4538 7.07631 14.2817 7.44321 14.1536C7.62666 14.0877 7.52409 14.4043 7.5517 14.5087C7.56946 14.5764 7.82195 15.1419 7.83773 15.2022C7.89691 15.4548 7.81603 15.4676 8.01132 15.7293C8.29537 16.1136 8.8832 16.5528 9.4158 16.4211C9.6249 16.0551 9.2797 16.0368 9.10611 15.8226C9.01734 15.7147 8.80233 15.3157 8.78063 15.1858C8.66228 14.4794 8.7471 12.6145 8.92266 11.9209C8.93055 11.8917 9.1929 11.5147 9.258 11.4158C9.80046 10.6051 10.5441 9.20879 11.4318 8.59571C12.0867 8.14369 12.9448 7.81977 13.6253 7.44643C13.6924 7.408 14.0475 7.1097 14.1185 7.18473C14.2526 7.45741 13.9824 7.60748 13.9764 7.6331C13.8502 8.16199 13.7141 8.47493 13.5504 8.91414C13.4162 9.2765 13.0414 10.2281 13.1124 10.5521C13.1736 10.8321 14.0928 10.7881 14.3138 10.5795C14.3414 10.5539 14.7122 10.0268 14.7438 9.97375C15.0239 9.49428 15.1699 8.92146 15.4026 8.40722C15.4007 8.39441 15.3987 8.38343 15.3987 8.37062C15.3967 8.32852 15.3987 8.28643 15.3987 8.24251C15.4302 8.1931 15.4598 8.1382 15.4796 8.07232C16.024 6.23859 15.7814 4.10656 14.9331 2.29297C16.5448 3.18421 18.1564 4.10656 19.5214 5.265C20.3854 5.99519 21.1626 6.80957 21.9299 7.62761C22.7939 8.55179 23.295 9.31493 23.512 10.4953C23.508 10.5246 23.506 10.5447 23.5041 10.5557C23.4646 10.7076 23.3995 10.9327 23.3443 11.156C22.8413 13.2038 21.8471 13.8645 20.1684 15.0266C19.9396 15.1858 19.5747 15.5683 19.336 15.6909C18.977 15.8757 18.4227 15.9562 18.0676 16.11C17.9295 16.1704 17.6593 16.3424 17.4896 16.4064C16.5546 16.7578 15.7991 17.0341 14.6649 17.1019C13.791 17.1549 12.8185 16.9939 11.9368 16.9774C11.3884 17.1147 11.0254 17.4917 11.7809 17.6948C12.8284 17.9766 14.9036 17.8741 15.9648 17.7058C17.3397 17.488 18.2215 17.3233 19.5115 16.6755C20.0343 16.4156 20.7582 15.8318 21.2139 15.5738C21.9023 15.1858 22.6164 14.6862 23.2141 14.1006C23.7901 13.5387 24.4687 12.8305 24.729 12.093C24.7882 11.9264 24.6699 11.4799 25.0072 11.6263C25.021 11.6318 25.1295 11.8075 25.1946 11.8459C25.3642 11.9502 25.5832 12.0161 25.7607 12.146C26.4097 12.6182 26.8022 13.5149 27.0508 14.2323C27.0705 14.289 27.1751 14.2854 27.1849 14.333C27.3269 14.9369 27.4749 17.2281 27.3309 17.79C27.2619 18.0553 27.2421 18.123 27.1928 18.4781C27.177 18.6025 27.0567 18.5659 27.0449 18.619C26.9285 19.1186 27.0429 18.9777 26.7411 19.4663C26.6799 19.567 26.6642 19.7481 26.6168 19.8067C26.53 19.9147 26.5734 19.7262 26.39 20.0611C26.0665 20.654 25.6207 21.2817 25.0506 21.8179C23.8295 22.9636 22.3698 24.0634 20.774 24.7955C20.3893 24.973 19.8705 25.1212 19.4622 25.2731C19.4543 25.5915 19.7167 25.5842 20.0086 25.5458C20.1447 25.5275 20.1053 25.4195 20.1605 25.4085C20.8963 25.2585 21.1803 25.209 21.9043 24.8741C21.9576 24.8504 22.0858 24.8961 22.1272 24.8613C22.1568 24.8357 22.1134 24.7039 22.141 24.6802C22.1745 24.649 22.3422 24.6802 22.4369 24.6509C23.9775 24.1659 26.4432 22.4841 27.2697 21.1628C27.6682 20.5259 27.972 20.008 28.1278 19.3565C28.1318 19.3345 28.3921 19.2247 28.2718 18.9758C28.5638 18.9155 28.4928 19.1113 28.5874 19.2174C29.0628 19.7536 29.5343 20.1873 29.7907 20.7986C29.8223 20.8755 30.0333 20.9615 30.055 21.0036C30.0945 21.0841 30.055 21.2104 30.0866 21.2451C30.1182 21.2762 30.2503 21.2122 30.2937 21.2982C30.5521 21.8106 30.5975 22.42 30.7277 22.9489C30.7395 23.0002 30.8559 22.991 30.8678 23.0404C31.1183 24.0287 30.9861 25.2292 31.1617 26.3071C31.2268 26.7006 31.0256 26.6548 31.0078 26.7756V26.7738Z" fill="#7C6A53"/>
<path d="M33.5902 32.0862C33.5054 32.3333 32.9314 32.1942 32.7243 32.24C32.6671 32.2528 32.7046 32.3607 32.5724 32.3772C32.2351 32.4175 30.732 32.3022 30.5959 32.39C30.5584 32.4156 30.6373 32.5383 30.4736 32.5071C30.4104 32.4943 30.4696 32.401 30.3828 32.3717C30.2428 32.3241 29.9942 32.4156 30.1244 32.0551C30.152 31.9764 30.584 31.669 30.6728 31.5647C31.0772 31.0907 31.2369 30.613 31.5466 30.1171C31.5802 30.064 31.7735 29.9707 31.7873 29.9414C31.8287 29.8554 31.7952 29.7071 31.809 29.6925C31.8287 29.6742 32.2785 29.6815 32.3672 29.7126C32.383 29.7181 32.4836 29.8755 32.5349 29.9103C32.6868 30.0146 33.5922 30.6606 33.61 30.7448C33.6475 30.9113 33.6396 31.938 33.5902 32.0862Z" fill="#34231A"/>
<path d="M34.529 30.1153C34.3476 30 34.2548 30.0219 34.0023 29.7968C33.4934 29.3393 33.0634 28.8159 32.8898 28.1992C32.874 28.1425 32.7616 28.1534 32.7498 28.1059C32.7103 27.9503 32.7853 27.7453 32.7458 27.5934C32.734 27.5404 32.6038 27.5477 32.5998 27.5111C32.5841 27.3921 32.7261 27.275 32.7517 27.1158C32.7991 26.801 32.7971 25.6883 32.7537 25.3662C32.7359 25.2381 32.6136 25.3022 32.5979 25.1741C32.4992 24.4384 32.5525 23.7064 32.3829 23.0293C32.2803 22.623 32.0653 21.9202 31.9351 21.5689C31.6273 20.7453 30.6529 19.7425 30.0453 19.0013C29.6567 18.5273 29.5167 18.4614 29.351 17.8831C29.3352 17.8245 29.2247 17.8374 29.2109 17.7879C29.0945 17.3414 29.2563 16.3294 29.2129 15.7895C29.1616 15.1526 28.9032 14.611 28.7099 14.0985C28.128 12.5594 27.6131 11.983 26.1218 11.1558C25.895 11.0295 25.6642 10.9069 25.4275 10.7898C25.4157 10.7733 25.4038 10.7587 25.39 10.7422C25.3742 10.7239 25.3663 10.7147 25.3624 10.7111C25.3486 10.6946 25.3368 10.6781 25.3249 10.6617C25.2874 10.6141 25.2559 10.5647 25.2223 10.5153C25.1671 10.4274 25.1158 10.3359 25.0665 10.2444C25.0132 10.1419 24.9639 10.0394 24.9126 9.93696C24.8594 9.82716 24.8081 9.71919 24.7568 9.61121C24.7036 9.50324 24.6523 9.39343 24.599 9.28546C23.9165 7.41513 22.297 5.94193 20.7544 4.57853C18.6931 2.75579 16.0892 1.4784 13.6807 0.0985321C13.087 -0.24003 12.5366 0.363892 12.6845 0.850689C12.6451 1.03004 12.6767 1.22585 12.8246 1.40337C13.5209 2.23422 13.8977 3.4201 14.1877 4.42664C14.2685 4.70664 14.3257 4.98481 14.3632 5.26298C14.31 5.31788 14.2705 5.3801 14.2488 5.45147C14.2389 5.47343 14.2291 5.49539 14.2192 5.51736C14.1462 5.67291 14.0654 5.82664 13.9588 5.96755C13.7892 6.15239 13.5722 6.29147 13.3769 6.45252C13.3217 6.49644 13.2842 6.56415 13.2586 6.6337C12.6214 6.83683 11.4635 7.48834 10.998 7.73906C9.94856 8.30638 9.61124 8.62481 9.03919 9.57278C8.99185 9.64964 8.71766 9.80703 8.64073 9.91866C8.51054 10.1145 8.30736 10.7202 8.20478 10.8264C8.02528 11.013 8.11207 10.6672 7.98188 11.154C7.96807 11.2034 7.87339 11.2015 7.86353 11.2235C7.67416 11.6426 7.61301 12.069 7.41377 12.4643C7.28753 12.7113 7.03504 13.286 6.88117 13.4635C6.82397 13.5294 6.14145 13.7728 5.98167 13.8643C5.54967 14.1095 4.54365 15.1838 4.32667 15.5791C4.24579 15.7236 3.88481 16.5472 3.86903 16.6076C3.82563 16.7777 3.90848 17.0138 3.86508 17.1859C3.67571 17.938 3.64218 18.7085 3.64612 19.5466C3.65007 19.9364 3.79999 20.7563 3.72108 21.0693C3.70925 21.115 3.61259 21.1132 3.58695 21.1717C3.25555 21.9642 2.83341 22.0593 2.28109 22.6248C1.92405 22.9908 1.64591 23.3568 1.43682 23.7521C0.977205 24.6251 0.387399 25.9006 0.188167 26.7809C0.156606 26.9255 0.217756 27.0993 0.184222 27.2347C0.172387 27.2842 0.0560037 27.275 0.0421955 27.3262C-0.0189549 27.5623 -0.00711943 29.4327 0.0362776 29.7291C0.0421954 29.7804 0.320331 30.2397 0.328221 30.2727C0.5097 31.0376 1.19419 31.8794 1.77413 32.4559C2.94782 33.6253 3.77237 33.7937 5.32677 34.253C5.86923 34.4141 5.98167 34.3134 6.50835 34.3757C6.64644 34.3921 6.57739 34.5038 6.71548 34.5202C7.44336 34.6062 8.1535 34.544 8.96226 34.6465C9.54023 34.7179 10.0058 34.4617 10.4062 34.5111C11.2386 34.6136 12.0908 34.6776 12.9252 34.7874C14.1028 34.9393 15.3298 34.6685 16.4798 34.9155C17.2945 35.0912 18.3991 34.9082 19.2099 34.9119C19.8036 34.9137 21.4961 35.0912 21.9025 34.9393C21.9853 34.9082 21.9794 34.7966 22.0405 34.7838C22.437 34.7032 23.1136 34.8405 23.5476 34.7893C23.6798 34.7728 23.6423 34.663 23.6995 34.6502C23.952 34.5953 24.3544 34.6886 24.6286 34.6502C27.1338 34.3244 29.1912 33.3124 31.9173 33.3124C32.4341 33.3124 33.5388 32.9537 34.1148 32.7981C34.3969 32.7231 34.6257 32.4102 34.9196 32.3296C35.0557 31.7843 35.0735 30.4593 34.529 30.1134V30.1153ZM28.5047 31.6324C28.0096 31.9874 27.2679 32.3937 26.6939 32.6316C26.3112 32.7908 25.8003 32.9354 25.392 33.0544C25.4275 33.3801 25.1651 33.1934 24.9265 33.2447C24.6266 33.3087 24.025 33.5814 23.7449 33.6436C21.65 34.0993 19.2769 33.9968 17.0381 34.2421C16.9019 34.2567 16.971 34.3702 16.8329 34.3866C16.5607 34.4177 15.7223 34.4177 15.4501 34.3866C15.312 34.3702 15.3811 34.2585 15.243 34.2421C14.1068 34.1085 12.6786 34.1249 11.4832 34.0462C10.0393 33.9529 8.50462 33.9401 7.07449 33.7845C6.93838 33.7681 7.00742 33.6546 6.86934 33.64C6.61685 33.6089 6.24205 33.6949 6.01126 33.6436C5.95603 33.6308 5.96589 33.521 5.91263 33.5119C5.36228 33.4002 4.75669 33.274 4.24974 32.9885C3.49621 32.5621 2.02465 30.8546 1.73665 30.0933C1.35594 29.0813 1.48219 27.0902 1.89643 26.0891C2.07988 25.6499 2.27912 25.2015 2.47046 24.7788C2.61051 24.4695 2.87484 23.6881 3.06815 23.4374C3.09774 23.3989 3.33051 23.3568 3.40941 23.2379C3.62837 22.9085 3.71714 22.6962 4.04064 22.418C4.08996 22.3777 4.17083 22.2826 4.21817 22.2643C4.56338 22.1325 4.4253 22.3119 4.53576 22.3741C4.60283 22.4125 4.72119 22.3686 4.78825 22.4034C4.83165 22.4272 5.29127 23.0494 5.4037 23.1116C5.46485 23.1464 5.57926 23.1061 5.64633 23.15C5.74693 23.2159 6.02901 23.4978 6.05466 23.5087C6.44918 23.6808 6.21247 23.613 6.37225 23.7302C6.46101 23.796 7.20863 24.0431 7.39405 24.1108C7.94243 24.3121 8.58352 24.5537 9.11415 24.6672C9.26407 24.6983 9.45738 24.6342 9.59349 24.6672C9.62308 24.6745 9.78286 24.8062 10.0945 24.8868C10.1991 24.9124 10.8895 25.1521 10.8698 24.9032C10.8678 24.8868 10.6212 24.6745 10.6035 24.6708C10.4733 24.647 10.3253 24.6946 10.1971 24.669C10.1577 24.6598 9.57574 24.4164 9.51853 24.4036C8.58155 24.1749 7.67218 23.6496 6.91471 23C6.78255 22.8883 6.21641 22.5443 6.19471 22.5095C6.05466 22.2826 5.87121 21.8251 5.72721 21.6055C4.98749 20.4891 5.05455 18.0826 5.38595 16.743C5.39779 16.6917 5.51417 16.7009 5.52798 16.6515C5.55362 16.5453 5.50628 16.4245 5.52206 16.3312C5.53784 16.2562 5.70354 16.3221 5.7351 16.2909C5.76271 16.2635 5.8574 15.6943 5.91263 15.5772C5.95603 15.4876 6.81805 14.7171 6.94824 14.5945C7.10013 14.4536 7.07646 14.2815 7.44336 14.1534C7.62681 14.0876 7.52424 14.4042 7.55186 14.5085C7.56961 14.5762 7.8221 15.1417 7.83788 15.2021C7.89706 15.4546 7.81618 15.4674 8.01147 15.7291C8.29552 16.1134 8.88336 16.5527 9.41596 16.4209C9.62505 16.0549 9.27985 16.0366 9.10626 15.8225C9.01749 15.7145 8.80248 15.3155 8.78078 15.1856C8.66243 14.4792 8.74725 12.6143 8.92281 11.9208C8.9307 11.8915 9.19305 11.5145 9.25815 11.4157C9.80061 10.6049 10.5443 9.2086 11.4319 8.59553C12.0868 8.1435 12.9449 7.81958 13.6255 7.44624C13.6925 7.40781 14.0476 7.10951 14.1186 7.18455C14.2528 7.45722 13.9825 7.60729 13.9766 7.63291C13.8503 8.1618 13.7142 8.47474 13.5505 8.91396C13.4164 9.27631 13.0416 10.2279 13.1126 10.5519C13.1737 10.8319 14.093 10.7879 14.3139 10.5793C14.3415 10.5537 14.7124 10.0266 14.7439 9.97357C15.024 9.49409 15.17 8.92128 15.4028 8.40703C15.4008 8.39422 15.3988 8.38324 15.3988 8.37043C15.3969 8.32834 15.3988 8.28625 15.3988 8.24232C15.4304 8.19291 15.46 8.13801 15.4797 8.07213C16.0241 6.2384 15.7815 4.10638 14.9333 2.29278C16.5449 3.18402 18.1565 4.10638 19.5215 5.26481C20.3855 5.995 21.1627 6.80938 21.9301 7.62742C22.7941 8.5516 23.2951 9.31474 23.5121 10.4951C23.5082 10.5244 23.5062 10.5445 23.5042 10.5555C23.4648 10.7074 23.3997 10.9325 23.3444 11.1558C22.8414 13.2036 21.8472 13.8643 20.1686 15.0264C19.9397 15.1856 19.5748 15.5681 19.3361 15.6907C18.9771 15.8755 18.4228 15.956 18.0677 16.1098C17.9297 16.1702 17.6594 16.3422 17.4898 16.4062C16.5548 16.7576 15.7993 17.034 14.665 17.1017C13.7912 17.1547 12.8187 16.9937 11.9369 16.9772C11.3885 17.1145 11.0256 17.4915 11.7811 17.6946C12.8285 17.9764 14.9037 17.874 15.965 17.7056C17.3399 17.4878 18.2216 17.3231 19.5117 16.6753C20.0344 16.4154 20.7584 15.8316 21.214 15.5736C21.9025 15.1856 22.6165 14.686 23.2142 14.1004C23.7902 13.5385 24.4688 12.8303 24.7292 12.0928C24.7884 11.9262 24.67 11.4797 25.0073 11.6261C25.0211 11.6316 25.1296 11.8073 25.1947 11.8457C25.3644 11.95 25.5833 12.0159 25.7609 12.1459C26.4098 12.618 26.8024 13.5147 27.0509 14.2321C27.0707 14.2889 27.1752 14.2852 27.1851 14.3328C27.3271 14.9367 27.475 17.2279 27.331 17.7898C27.262 18.0551 27.2423 18.1228 27.193 18.4779C27.1772 18.6023 27.0569 18.5657 27.045 18.6188C26.9286 19.1184 27.043 18.9775 26.7412 19.4661C26.6801 19.5668 26.6643 19.7479 26.617 19.8065C26.5302 19.9145 26.5736 19.726 26.3901 20.0609C26.0666 20.6538 25.6208 21.2815 25.0507 21.8177C23.8297 22.9634 22.37 24.0632 20.7741 24.7953C20.3895 24.9728 19.8707 25.121 19.4624 25.2729C19.4545 25.5913 19.7168 25.584 20.0088 25.5456C20.1449 25.5273 20.1054 25.4193 20.1607 25.4083C20.8964 25.2583 21.1805 25.2089 21.9044 24.874C21.9577 24.8502 22.0859 24.8959 22.1273 24.8611C22.1569 24.8355 22.1135 24.7038 22.1412 24.68C22.1747 24.6489 22.3424 24.68 22.437 24.6507C23.9776 24.1657 26.4434 22.4839 27.2699 21.1626C27.6684 20.5257 27.9721 20.0078 28.128 19.3563C28.1319 19.3343 28.3923 19.2245 28.272 18.9757C28.5639 18.9153 28.4929 19.1111 28.5876 19.2172C29.063 19.7534 29.5344 20.1872 29.7909 20.7984C29.8224 20.8753 30.0335 20.9613 30.0552 21.0034C30.0946 21.0839 30.0552 21.2102 30.0868 21.2449C30.1183 21.276 30.2505 21.212 30.2939 21.298C30.5523 21.8104 30.5977 22.4198 30.7278 22.9487C30.7397 23 30.8561 22.9908 30.8679 23.0402C31.1184 24.0285 30.9863 25.229 31.1618 26.3069C31.2269 26.7004 31.0257 26.6546 31.008 26.7754C30.9784 26.9913 31.0652 27.3043 31.0139 27.5038C31.0001 27.555 30.8837 27.544 30.8718 27.5953C30.5405 28.9953 29.8422 30.6734 28.5047 31.6342V31.6324ZM33.5901 32.0862C33.5053 32.3333 32.9312 32.1942 32.7241 32.24C32.6669 32.2528 32.7044 32.3608 32.5722 32.3772C32.2349 32.4175 30.7318 32.3022 30.5957 32.39C30.5582 32.4157 30.6371 32.5383 30.4734 32.5072C30.4103 32.4944 30.4694 32.401 30.3826 32.3717C30.2426 32.3242 29.994 32.4157 30.1242 32.0551C30.1518 31.9764 30.5839 31.669 30.6726 31.5647C31.077 31.0907 31.2368 30.613 31.5465 30.1171C31.58 30.064 31.7733 29.9707 31.7871 29.9414C31.8286 29.8554 31.795 29.7072 31.8088 29.6925C31.8286 29.6742 32.2783 29.6815 32.3671 29.7127C32.3829 29.7181 32.4835 29.8755 32.5347 29.9103C32.6866 30.0146 33.5921 30.6606 33.6098 30.7448C33.6473 30.9113 33.6394 31.938 33.5901 32.0862Z" fill="black"/>
<path d="M13.3851 6.45072C13.3851 6.45072 13.3654 6.46719 13.3555 6.47634C13.3752 6.45987 13.3476 6.48 13.3397 6.48549C13.318 6.4983 13.2944 6.51111 13.2707 6.52209C13.2194 6.54771 13.1681 6.5715 13.1208 6.60078C13.0024 6.67216 12.8998 6.76549 12.7894 6.84601C12.7124 6.90274 12.5941 6.97961 12.4974 7.03634C12.385 7.10222 12.2706 7.16261 12.1522 7.21751C12.0575 7.26144 12.0299 7.38588 12.0812 7.46823C12.1384 7.55791 12.2548 7.57804 12.3515 7.53412C12.6 7.41882 12.8328 7.27791 13.0517 7.11869C13.1504 7.04732 13.245 6.96131 13.3397 6.9064C13.4522 6.84235 13.5685 6.7966 13.6652 6.71059C13.7402 6.64104 13.7402 6.52209 13.6652 6.45255C13.5902 6.38301 13.462 6.38301 13.3871 6.45255L13.3851 6.45072Z" fill="black"/>
<path d="M25.1121 14.2252C25.0605 15.2775 25.4471 16.3408 26.3386 16.8733C27.3041 17.4498 28.1716 15.8704 27.2062 15.294C26.8798 15.0982 26.8076 14.6974 26.83 14.227C26.854 13.7329 26.4177 13.312 25.971 13.312C25.4866 13.312 25.1361 13.7311 25.1121 14.227V14.2252Z" fill="#4E3228"/>
<path d="M29.2934 5.72088C29.1405 5.83251 29.1508 5.81787 29.326 5.67696L29.4875 5.57996C29.7211 5.45369 30.0664 5.35669 30.3327 5.38781C30.7467 5.43539 30.9185 5.655 31.0954 6.04663C31.5627 7.0733 31.585 8.16584 30.8343 9.00585C30.008 9.93003 29.034 10.3326 27.9809 10.8743C26.8282 11.4691 26.1102 12.5104 25.4935 13.6707C24.6757 15.2116 26.9021 16.5951 27.7181 15.056C28.1922 14.1611 28.6131 13.5572 29.5133 13.14C30.4134 12.7227 31.1762 12.2981 31.9235 11.6539C32.6072 11.0647 33.272 10.34 33.6568 9.48898C34.1155 8.47147 34.0519 7.36794 33.8492 6.29003C33.5211 4.54598 32.5024 2.89892 30.7261 2.68114C29.1027 2.48166 26.4486 3.5614 26.7166 5.72271C26.8076 6.45656 27.244 7.09526 28.005 7.09526C28.6303 7.09526 29.3844 6.46205 29.2934 5.72271V5.72088Z" fill="#A78975"/>
<mask id="mask0_1217_3392" style="mask-type:luminance" maskUnits="userSpaceOnUse" x="25" y="2" width="10" height="14">
<path d="M29.2934 5.72088C29.1405 5.83251 29.1508 5.81787 29.326 5.67696L29.4875 5.57996C29.7211 5.45369 30.0664 5.35669 30.3327 5.38781C30.7467 5.43539 30.9185 5.655 31.0954 6.04663C31.5627 7.0733 31.585 8.16584 30.8343 9.00585C30.008 9.93003 29.034 10.3326 27.9809 10.8743C26.8282 11.4691 26.1102 12.5104 25.4935 13.6707C24.6757 15.2116 26.9021 16.5951 27.7181 15.056C28.1922 14.1611 28.6131 13.5572 29.5133 13.14C30.4134 12.7227 31.1762 12.2981 31.9235 11.6539C32.6072 11.0647 33.272 10.34 33.6568 9.48898C34.1155 8.47147 34.0519 7.36794 33.8492 6.29003C33.5211 4.54598 32.5024 2.89892 30.7261 2.68114C29.1027 2.48166 26.4486 3.5614 26.7166 5.72271C26.8076 6.45656 27.244 7.09526 28.005 7.09526C28.6303 7.09526 29.3844 6.46205 29.2934 5.72271V5.72088Z" fill="white"/>
</mask>
<g mask="url(#mask0_1217_3392)">
<path d="M25.502 13.2278C26.5104 14.0824 27.6064 14.9352 28.9137 15.1457C29.1422 15.1823 29.3758 15.0835 29.4428 14.8254C29.4978 14.6095 29.3741 14.3002 29.1422 14.2618C27.9826 14.0751 27.012 13.3431 26.1101 12.5781C25.928 12.4244 25.6807 12.3896 25.502 12.5781C25.3526 12.7373 25.3199 13.0704 25.502 13.226V13.2278Z" fill="#A78975"/>
<path d="M26.8918 10.0087C26.4915 10.5943 26.2734 11.3062 26.2442 12.0273C26.2304 12.3805 26.2631 12.7593 26.3558 13.0997C26.4675 13.5059 26.7097 13.775 27.055 13.9726C28.4241 14.7595 29.9737 14.2416 31.3274 13.7018C31.5438 13.6157 31.6933 13.3925 31.628 13.1381C31.5713 12.9167 31.3188 12.7318 31.0989 12.8178C30.0338 13.2424 28.7901 13.7622 27.6648 13.2717C27.469 13.1875 27.2474 13.0832 27.1838 12.8544C27.11 12.5854 27.0911 12.3036 27.1014 12.0254C27.1237 11.4563 27.3196 10.9256 27.6322 10.468C27.7679 10.2686 27.6648 9.95745 27.4776 9.84215C27.2611 9.70673 27.0275 9.80555 26.8901 10.0069L26.8918 10.0087Z" fill="#7C6A53"/>
<path d="M28.4997 9.13569C28.2248 9.78353 27.9448 10.4533 27.9465 11.1799C27.9483 11.9064 28.2214 12.5378 28.7642 12.9532C29.2504 13.3247 29.8877 13.4565 30.477 13.4546C31.1521 13.4546 31.81 13.268 32.4061 12.9349C32.8957 12.6622 32.4628 11.8716 31.9732 12.1443C31.1916 12.5799 30.0698 12.7556 29.2899 12.2303C28.4207 11.6429 28.9171 10.3655 29.2418 9.5987C29.3363 9.3736 29.3019 9.10641 29.0872 8.97281C28.9034 8.85752 28.5959 8.91059 28.4997 9.13752V9.13569Z" fill="#7C6A53"/>
<path d="M29.7262 8.42199C29.7675 9.08265 29.6627 9.74879 29.7967 10.4021C29.9307 11.0555 30.355 11.5917 30.9099 11.8918C32.0677 12.5195 33.5296 12.2102 34.3405 11.1177C34.4848 10.9237 34.5174 10.6602 34.3405 10.4698C34.191 10.3106 33.8783 10.274 33.7323 10.4698C33.1517 11.2531 32.1364 11.5642 31.2878 11.0701C30.8978 10.8432 30.6573 10.4936 30.5989 10.0196C30.5336 9.49075 30.6144 8.95088 30.5817 8.42016C30.5663 8.1731 30.3945 7.96265 30.1523 7.96265C29.9324 7.96265 29.7073 8.1731 29.7228 8.42016L29.7262 8.42199Z" fill="#7C6A53"/>
<path d="M30.422 7.5216C30.3722 8.21337 30.4254 8.91428 30.9356 9.41389C31.3995 9.86775 32.0471 10.0709 32.6707 10.0361C34.0124 9.96291 35.0414 9.00213 35.8797 7.9718C36.0309 7.78513 36.0515 7.50879 35.8797 7.32396C35.7251 7.15925 35.4244 7.13546 35.2716 7.32396C34.6274 8.11638 33.8663 8.94539 32.8442 9.10461C32.4233 9.17049 31.9423 9.10461 31.597 8.81729C31.2088 8.4952 31.2483 7.99742 31.2809 7.52343C31.2981 7.27638 31.0713 7.06592 30.8515 7.06592C30.6041 7.06592 30.4392 7.27638 30.422 7.52343V7.5216Z" fill="#7C6A53"/>
<path d="M30.6195 7.46317C31.5266 7.98291 32.8047 7.64069 33.6018 7.03311C34.3989 6.42552 34.9366 5.44827 35.0602 4.37402C35.0877 4.12879 34.8421 3.9165 34.6308 3.9165C34.3748 3.9165 34.2288 4.12696 34.2013 4.37402C34.1171 5.10239 33.7255 5.81245 33.1689 6.24252C32.8579 6.48226 32.5092 6.64513 32.133 6.73114C31.7963 6.80801 31.3668 6.85193 31.0524 6.67258C30.5663 6.39441 30.1317 7.18317 30.6195 7.46317Z" fill="#7C6A53"/>
<path d="M30.4993 6.59928C31.5867 6.6615 32.1502 5.32189 32.4199 4.40869C32.748 3.29601 32.9353 2.10281 32.4336 1.01575C32.3306 0.794312 32.0368 0.73392 31.8461 0.851044C31.6331 0.982809 31.5902 1.25366 31.6915 1.47693C32.0609 2.27666 31.8616 3.21 31.6331 4.01889C31.5266 4.39588 31.4081 4.76921 31.2139 5.10595C31.0576 5.3768 30.8274 5.70255 30.4993 5.68425C29.9462 5.65314 29.9479 6.56817 30.4993 6.59928Z" fill="#7C6A53"/>
</g>
<path d="M13.9391 28.5052C14.0868 28.4942 14.2345 28.4833 14.384 28.4814C14.4579 28.4814 14.5317 28.4814 14.6056 28.4833C14.6417 28.4833 14.6795 28.4869 14.7155 28.4906C14.7379 28.4924 14.8478 28.507 14.7465 28.4906C14.8186 28.5016 14.8891 28.5162 14.9595 28.5363C14.9938 28.5455 15.0299 28.5565 15.0643 28.5693C15.0746 28.5729 15.1691 28.6095 15.1158 28.5876C15.0626 28.5656 15.1639 28.6132 15.1742 28.6187C15.2017 28.6352 15.2309 28.6516 15.2567 28.6681C15.2824 28.6846 15.3099 28.7065 15.3357 28.7248C15.3615 28.745 15.3529 28.7376 15.3116 28.7047C15.3237 28.7157 15.3357 28.7267 15.3477 28.7376C15.3924 28.7779 15.4336 28.8218 15.4731 28.8676C15.5041 28.9042 15.535 28.9353 15.4869 28.8804C15.5075 28.906 15.5247 28.9353 15.5418 28.9646C15.5762 29.0213 15.6071 29.0817 15.6346 29.1421C15.681 29.2427 15.6088 29.0506 15.6398 29.1586C15.6501 29.1952 15.6621 29.2318 15.6724 29.2684C15.6827 29.305 15.6896 29.3434 15.6965 29.38C15.7171 29.477 15.6965 29.3031 15.6999 29.4111C15.7016 29.488 15.7068 29.5648 15.6999 29.6417L15.6965 29.6801C15.6913 29.7332 15.6913 29.7314 15.6965 29.6728C15.6999 29.7003 15.6844 29.7405 15.6776 29.7661C15.669 29.8027 15.6587 29.8412 15.6484 29.8778C15.6415 29.8997 15.5917 30.026 15.6329 29.929C15.5418 30.1468 15.5659 30.4304 15.7875 30.5549C15.9747 30.661 16.2771 30.6244 16.375 30.3902C16.5485 29.9766 16.6052 29.5447 16.5142 29.0982C16.4403 28.7376 16.2496 28.3899 15.9988 28.1355C15.7342 27.8702 15.3993 27.689 15.0419 27.6195C14.6846 27.5499 14.3067 27.5609 13.9339 27.5884C13.7106 27.6048 13.4941 27.7878 13.5044 28.0459C13.5148 28.2801 13.6934 28.5217 13.9339 28.5034L13.9391 28.5052Z" fill="#4E3228"/>
<path d="M3.54213 32.7618C3.616 32.4946 4.35469 32.1688 4.59347 32.0188C5.04184 31.7369 5.49708 31.4661 5.99354 31.2941C7.08096 30.9171 8.22506 31.0104 9.34684 31.1294C11.2691 31.3343 14.2892 32.0462 15.6892 30.1484C16.1221 29.561 16.2166 28.7814 15.6892 28.2067C15.2477 27.7254 14.296 27.6248 13.8666 28.2067C13.2705 29.0138 11.5457 28.6295 10.7074 28.5398C9.46193 28.408 8.2096 28.1921 6.95555 28.3147C5.72727 28.4355 4.61924 28.8473 3.54557 29.4896C2.4719 30.132 1.40853 30.7524 1.05637 32.0298C0.589106 33.7281 3.07487 34.4546 3.54042 32.7599L3.54213 32.7618Z" fill="#A78975"/>
<mask id="mask1_1217_3392" style="mask-type:luminance" maskUnits="userSpaceOnUse" x="0" y="27" width="17" height="7">
<path d="M3.54213 32.7618C3.616 32.4946 4.35469 32.1688 4.59347 32.0188C5.04184 31.7369 5.49708 31.4661 5.99354 31.2941C7.08096 30.9171 8.22506 31.0104 9.34684 31.1294C11.2691 31.3343 14.2892 32.0462 15.6892 30.1484C16.1221 29.561 16.2166 28.7814 15.6892 28.2067C15.2477 27.7254 14.296 27.6248 13.8666 28.2067C13.2705 29.0138 11.5457 28.6295 10.7074 28.5398C9.46193 28.408 8.2096 28.1921 6.95555 28.3147C5.72727 28.4355 4.61924 28.8473 3.54557 29.4896C2.4719 30.132 1.40853 30.7524 1.05637 32.0298C0.589106 33.7281 3.07487 34.4546 3.54042 32.7599L3.54213 32.7618Z" fill="white"/>
</mask>
<g mask="url(#mask1_1217_3392)">
<path d="M2.2489 29.2937C2.17503 30.2325 2.1716 31.3031 2.85703 32.0095C3.21435 32.3774 3.68676 32.6025 4.15403 32.769C4.65393 32.9465 5.18647 33.0307 5.71214 33.0325C5.94405 33.0325 6.14161 32.8221 6.14161 32.575C6.14161 32.3279 5.94577 32.1175 5.71214 32.1175C5.28267 32.1175 4.87553 32.0516 4.46324 31.9144C4.10936 31.7972 3.7194 31.6252 3.46516 31.3635C3.36037 31.2555 3.26588 31.111 3.21091 30.9719C3.19717 30.9371 3.16109 30.8163 3.14391 30.7486C3.13189 30.701 3.12158 30.6516 3.11299 30.604C3.11299 30.604 3.08894 30.4558 3.09925 30.5272C3.04428 30.1227 3.07864 29.7018 3.10956 29.2974C3.12845 29.0503 2.89826 28.8398 2.68009 28.8398C2.431 28.8398 2.26952 29.0503 2.25062 29.2974L2.2489 29.2937Z" fill="#7C6A53"/>
<path d="M5.07652 28.0493C4.85491 29.098 4.64876 30.2418 4.95455 31.2959C5.09198 31.7735 5.35481 32.1652 5.7482 32.4378C6.09865 32.6812 6.51781 32.8002 6.91808 32.9082C7.45406 33.0509 7.68253 32.1688 7.14656 32.0261C6.84249 31.9456 6.52984 31.865 6.2567 31.6967C5.96981 31.5192 5.82551 31.252 5.74649 30.9152C5.54378 30.0514 5.72415 29.1401 5.90281 28.2909C6.02478 27.7181 5.19677 27.4729 5.0748 28.0475L5.07652 28.0493Z" fill="#7C6A53"/>
<path d="M8.98815 27.4088C8.47279 27.4143 7.98491 27.676 7.65336 28.0951C7.28746 28.5563 7.13285 29.1328 7.07787 29.7239C7.0229 30.315 7.07272 30.8695 7.30635 31.3819C7.53998 31.8943 7.97632 32.2347 8.435 32.469C8.64458 32.5769 8.89882 32.5294 9.02251 32.3043C9.13245 32.1048 9.07748 31.7864 8.8679 31.6784C8.56556 31.5228 8.26321 31.3307 8.09314 31.0104C7.90933 30.6664 7.90417 30.2454 7.92651 29.863C7.96602 29.2151 8.25462 28.3294 8.98815 28.322C9.54131 28.3165 9.54131 27.4015 8.98815 27.407V27.4088Z" fill="#7C6A53"/>
<path d="M11.4808 27.7017C11.1235 27.7438 10.962 27.9927 10.8246 28.3185C10.7129 28.582 10.6253 28.8547 10.5737 29.1402C10.4655 29.7313 10.4775 30.3498 10.6339 30.9318C10.7902 31.5138 11.0857 32.05 11.5907 32.3446C12.0614 32.6209 12.6077 32.6685 13.1334 32.6996C13.3653 32.7124 13.5628 32.48 13.5628 32.2421C13.5628 31.9822 13.3653 31.7974 13.1334 31.7846C12.7984 31.7645 12.4411 31.7498 12.1267 31.6107C11.79 31.4607 11.5976 31.1477 11.4894 30.7872C11.3708 30.3919 11.333 29.9783 11.376 29.5666C11.3966 29.3707 11.4413 29.1768 11.4962 28.9901C11.5237 28.8986 11.5547 28.8071 11.5924 28.7192C11.6096 28.679 11.6285 28.6369 11.6491 28.5966C11.6612 28.5692 11.6766 28.5417 11.6921 28.5143C11.7196 28.4685 11.7058 28.4832 11.6543 28.56L11.4378 28.6222L11.4825 28.6168C11.7127 28.5893 11.912 28.4264 11.912 28.1592C11.912 27.9323 11.7144 27.6743 11.4825 27.7017H11.4808Z" fill="#7C6A53"/>
</g>
<path d="M21.0729 21.9984C21.0729 21.9984 17.961 20.7139 14.4446 26.026C10.9264 31.338 4.90841 24.687 12.639 22.0968C20.3696 19.5067 10.0464 18.8829 11.6661 14.6867C13.2858 10.4905 12.3603 9.86495 10.6932 7.6333C9.02606 5.40165 12.1289 1.56216 14.8126 6.47178C17.4964 11.3814 20.8306 9.14976 20.9691 6.5614C21.1075 3.97304 19.1198 0.759112 23.886 0C23.886 0 27.9126 1.29506 24.8116 6.29431C21.7106 11.2936 24.6513 11.7434 28.8709 9.68044C36.2135 6.09223 37.7895 14.9714 28.9784 15.133C24.6476 15.2121 24.746 19.7615 25.9303 22.4254C26.9979 24.8293 29.9914 26.17 30.3467 30.1202C30.7986 35.1318 23.9899 36.9118 23.6109 29.1608C23.2957 22.7013 22.9842 23.1336 21.0729 21.9984Z" fill="#E60012"/>
<path d="M2.19547 31.273C3.408 31.273 4.39094 30.3249 4.39094 29.1555C4.39094 27.9861 3.408 27.0381 2.19547 27.0381C0.982946 27.0381 0 27.9861 0 29.1555C0 30.3249 0.982946 31.273 2.19547 31.273Z" fill="#E60012"/>
</g>
<defs>
<clipPath id="clip0_1217_3392">
<rect width="35" height="35" fill="white"/>
</clipPath>
</defs>
</svg>
