<svg width="21" height="20" viewBox="0 0 21 20" fill="none" xmlns="http://www.w3.org/2000/svg">
<path d="M15.5 12.5C15.6873 12.0483 16.5254 10.7057 16.5252 10.2167C16.5315 9.36883 16.3399 8.56921 15.8141 7.90405C15.2883 7.23888 14.4514 7.06465 13.625 6.875C13.6189 6.3545 13.5277 5.5615 13.1857 5.16909C12.8437 4.77668 11.75 5 11.125 4.375C10.3158 3.56581 10.8667 1.25 10.8667 1.25C10.8667 1.25 8.14167 3.23333 7.53334 4.43333C7.28565 5.12121 7.91678 6.14864 8.00002 6.875C7.18081 7.06807 5.73394 7.24004 5.21075 7.89932C4.68756 8.5586 4.40193 9.37502 4.4 10.2167C4.39118 10.713 5.31519 12.0393 5.50002 12.5C4.86249 12.7955 3.62502 12.5 3.00002 13.125C2.6181 13.7148 2.51708 14.2974 2.50834 15C2.50614 15.4917 2.60109 15.9789 2.78772 16.4338C2.97436 16.8887 3.24901 17.3022 3.5959 17.6506C3.94279 17.9991 4.35509 18.2756 4.80913 18.4642C5.26317 18.6529 5.75 18.75 6.24167 18.75H14.7583C15.25 18.75 15.7368 18.6529 16.1909 18.4642C16.6449 18.2756 17.0572 17.9991 17.4041 17.6506C17.751 17.3022 18.0257 16.8887 18.2123 16.4338C18.3989 15.9789 18.4939 15.4917 18.4917 15C18.4829 14.2974 18.2756 13.6116 17.8937 13.0217C17.5118 12.4319 16.1375 12.7955 15.5 12.5Z" fill="#F6D72E" stroke="#F6D72E" stroke-linecap="round" stroke-linejoin="round"/>
</svg>
