<svg width="35" height="35" viewBox="0 0 35 35" fill="none" xmlns="http://www.w3.org/2000/svg">
<path d="M31.7934 28.2684C31.4628 27.9188 30.5282 27.3886 30.0832 27.0418C29.8475 26.8575 29.6073 26.6032 29.3625 26.4028C29.1371 26.2195 28.9621 25.9526 28.6223 25.8682C27.4624 26.0452 26.4442 26.7039 25.3346 27.0031C24.8141 27.1433 24.1975 27.1891 23.6759 27.35C22.7573 27.6348 22.2345 28.1929 21.4669 28.5335C20.9246 28.7752 19.7315 28.8174 19.974 29.4303C19.9946 29.4824 20.872 30.0485 21.0162 30.1357C21.2964 30.3064 23.089 31.338 23.2492 31.3641C25.298 31.4881 27.3937 31.7137 29.4426 31.4998C30.0569 31.4351 30.6014 30.7279 30.9297 30.3199C31.1494 30.0476 32.0119 28.8588 31.9993 28.6197C31.9913 28.4499 31.9089 28.3897 31.7934 28.2684ZM22.9552 28.3061C23.8738 27.7535 25.0623 27.6986 26.0965 27.3482C26.8618 27.0885 27.6008 26.65 28.4153 26.4397C28.5972 26.4262 29.0525 26.9186 29.2012 27.0373C29.7354 27.465 30.3177 27.944 30.9434 28.2702C30.805 28.5182 30.4378 28.4211 30.1964 28.475C29.1177 28.7159 28.6738 28.8866 27.515 28.901C25.6686 28.9244 23.8166 28.8507 21.9794 28.9666L22.9552 28.3061ZM30.2193 30.0791C30.0752 30.2516 29.5707 30.8384 29.3671 30.8699C27.4109 30.966 25.4479 30.9373 23.486 30.9238C22.9289 30.1824 21.8169 29.9182 21.0104 29.3791C21.2896 29.282 21.7105 29.2335 22.016 29.2182C24.4046 29.1032 26.7497 29.3844 29.1177 29.0879C29.7858 29.0043 30.4058 28.6997 31.1047 28.777C30.8302 29.2164 30.5614 29.6693 30.2193 30.0791Z" fill="black"/>
<path d="M31.105 28.7771C30.8305 29.2165 30.5617 29.6694 30.2196 30.0792C30.0755 30.2517 29.571 30.8385 29.3674 30.87C27.4112 30.9661 25.4482 30.9374 23.4863 30.9239C22.9292 30.1825 21.8172 29.9183 21.0107 29.3792C21.2899 29.2821 21.7108 29.2336 22.0163 29.2183C24.4049 29.1033 26.75 29.3846 29.118 29.088C29.7861 29.0044 30.4061 28.6998 31.105 28.7771Z" fill="#2F150C"/>
<path d="M30.9436 28.2702C30.8051 28.5182 30.4379 28.4212 30.1966 28.4751C29.1178 28.7159 28.6739 28.8867 27.5151 28.901C25.6688 28.9244 23.8167 28.8507 21.9795 28.9666L22.9553 28.3061C23.8739 27.7535 25.0625 27.6987 26.0966 27.3482C26.8619 27.0885 27.6009 26.65 28.4154 26.4397C28.5973 26.4262 29.0526 26.9187 29.2013 27.0373C29.7355 27.465 30.3178 27.944 30.9436 28.2702Z" fill="#482913"/>
<path d="M25.9471 26.0802C25.8189 27.3014 25.6142 27.9259 25.0021 29.0177C24.898 29.202 24.5263 30.1015 24.3958 30.159C24.3043 30.1985 24.0755 30.1644 23.9234 30.2003C22.9121 30.4394 23.1249 30.9821 22.434 31.3775C21.8391 31.7181 21.0257 31.5788 20.3451 31.6399C18.0549 31.8457 15.6102 32.4217 13.3109 32.5223C11.5629 32.5987 9.78519 32.3885 8.03378 32.4433C7.7272 32.0793 7.15522 31.8313 6.72395 31.5375C4.72545 30.177 2.79788 28.5648 1.32789 26.8314C0.888608 26.3129 0.785652 26.0892 1.13685 25.4979C1.60473 24.7125 4.02992 22.2602 4.86387 21.6365C5.48161 21.1737 5.73214 21.5943 6.33729 21.7533C8.3335 22.279 10.9452 22.4561 12.8396 23.1174C13.8531 23.4715 15.3231 24.5139 16.3927 25.0216C17.0001 25.3092 18.1464 25.8771 18.811 25.9175C19.2137 25.9427 19.2229 25.7971 19.51 25.718C20.5819 25.4251 21.7579 25.1735 22.7966 24.8742C23.8616 24.5669 24.7619 23.8085 25.9482 23.8282C25.8921 24.5606 26.0226 25.355 25.9482 26.0802H25.9471Z" fill="#2F150C"/>
<path d="M23.9996 23.8213C23.9676 23.8608 23.0719 24.1753 22.9323 24.2203C22.3683 24.4 21.8124 24.4674 21.2656 24.6246C20.6192 24.8098 19.5096 25.4361 18.893 25.4091C18.3473 25.3858 17.2411 24.8214 16.7149 24.577C15.6441 24.0801 14.3652 23.4618 13.3505 22.9065C13.2098 22.8292 13.1869 22.6935 13.0027 22.6082C12.3907 22.326 10.4242 21.9926 9.63263 21.8299C8.74148 21.6457 7.34471 21.5109 6.54508 21.2737C6.44441 21.2441 6.20304 21.191 6.24079 21.0697C6.28769 20.9152 9.54454 20.004 9.99412 19.8943C11.2079 19.5978 12.5211 19.383 13.752 19.1027C14.1295 19.0173 14.8079 18.7306 15.1431 18.7648C15.4474 18.7953 16.0045 19.2581 16.4426 19.3992C16.7881 19.5097 17.1633 19.5196 17.4607 19.614C18.9776 20.0974 20.2726 21.7122 21.1946 22.7079C21.7689 23.3279 22.0926 23.1608 22.8946 23.3396C23.0376 23.3711 23.9722 23.6038 24.0031 23.6434C24.0202 23.664 24.0202 23.7961 23.9996 23.8213Z" fill="#482913"/>
<path d="M12.3065 33.2396C12.0148 33.2396 11.722 33.2333 11.4371 33.2207C11.0894 33.2055 10.7313 33.1632 10.3858 33.1219C10.0667 33.0842 9.73607 33.0446 9.42034 33.0284C9.30365 33.0221 9.18583 33.0195 9.06113 33.0195C8.90098 33.0195 8.75341 33.0239 8.61041 33.0293C8.47886 33.0338 8.35531 33.0383 8.23176 33.0383C7.76388 33.0383 7.33719 32.9772 6.77093 32.6789C4.6443 31.5592 2.76592 29.6362 1.53845 28.2873C1.36457 28.0959 1.18268 27.9261 1.00765 27.7617C0.40593 27.1955 -0.113428 26.7085 0.0215597 25.7488C0.121084 25.0317 2.72588 22.441 3.24982 21.9665C4.10207 21.1964 4.56423 20.8073 5.7711 20.3813C7.30058 19.8422 8.82319 19.5267 10.2955 19.2221C11.1363 19.0478 12.0068 18.8681 12.8751 18.647C13.1016 18.5895 13.3784 18.4844 13.6724 18.3738C14.1186 18.2049 14.5807 18.0297 14.9274 18.0036C14.9628 18.0009 14.9983 18 15.0337 18C15.5005 18 15.9112 18.2273 16.2738 18.4277C16.5129 18.5598 16.7382 18.6847 16.9407 18.7261C17.0391 18.7459 17.1306 18.7503 17.2267 18.7557C17.3686 18.7629 17.5299 18.771 17.7221 18.8312C18.7985 19.1664 20.2765 20.4451 21.0624 21.1775C21.1757 21.2835 21.3255 21.4534 21.4994 21.6502C21.7831 21.971 22.1709 22.4104 22.3677 22.5039C22.521 22.5731 24.5515 23.1652 24.7288 23.1922C24.7528 23.1958 24.7849 23.1976 24.8238 23.1976C24.9519 23.1976 25.1292 23.1796 25.3168 23.1607C25.5422 23.1383 25.7755 23.114 25.9837 23.114C26.1679 23.114 26.4299 23.1302 26.5672 23.2686C26.677 23.3791 26.8337 24.6668 26.8348 24.6785C26.8943 25.4765 26.8314 26.5261 26.6644 27.4867C26.5912 27.9081 26.3269 28.3188 26.0707 28.7151C25.946 28.9083 25.8293 29.0898 25.7355 29.2695C25.6966 29.3432 25.6451 29.4771 25.5845 29.6335C25.3294 30.294 25.1235 30.7684 24.8089 30.8502C24.6991 30.879 24.5755 30.8879 24.4451 30.8978C24.2758 30.9104 24.1008 30.923 23.9852 30.9832C23.9383 31.011 23.8125 31.1719 23.7198 31.2887C23.5677 31.4819 23.3961 31.7012 23.2325 31.8216C22.5656 32.3122 21.8083 32.3347 21.075 32.3563C20.8153 32.3635 20.5465 32.3716 20.2834 32.4003C19.3877 32.4965 18.5057 32.6214 17.6523 32.7427C15.8585 32.9979 14.1643 33.2387 12.3065 33.2387V33.2396ZM8.65388 32.3069C9.29565 32.3069 9.9477 32.3338 10.5792 32.3599C11.2061 32.3859 11.8535 32.412 12.4862 32.412C12.7779 32.412 13.0444 32.4066 13.3018 32.3949C14.5933 32.3383 15.9558 32.1262 17.2736 31.9222C18.2837 31.765 19.327 31.6032 20.3269 31.5134C20.5362 31.4945 20.7581 31.4936 20.972 31.4936C21.4811 31.4918 21.9616 31.4909 22.3391 31.2752C22.5942 31.1288 22.7109 30.9616 22.8356 30.7846C23.0243 30.5141 23.2199 30.2346 23.8777 30.0792C23.9738 30.0567 24.0802 30.0558 24.174 30.0549C24.2163 30.0549 24.2758 30.054 24.3078 30.0495C24.3948 29.9498 24.5995 29.5077 24.6991 29.2902C24.7677 29.1428 24.8215 29.026 24.8546 28.9667C25.4609 27.8857 25.6611 27.2629 25.7858 26.0705C25.8247 25.6975 25.8076 25.295 25.7904 24.9059C25.7767 24.5931 25.763 24.2714 25.7778 23.9596C25.1441 23.9902 24.5904 24.2508 24.007 24.5248C23.6386 24.6983 23.2565 24.878 22.8516 24.9948C22.2784 25.1602 21.6538 25.3129 21.051 25.4612C20.5556 25.5825 20.0443 25.7083 19.5627 25.8395C19.4803 25.862 19.4254 25.8925 19.3682 25.924C19.2618 25.9824 19.1429 26.0489 18.898 26.0489C18.8672 26.0489 18.834 26.048 18.7974 26.0453C18.1442 26.0058 17.1249 25.5205 16.4511 25.1997L16.3081 25.1314C15.8563 24.9166 15.3495 24.6174 14.8141 24.3011C14.0934 23.8751 13.3487 23.4357 12.7733 23.2344C11.7048 22.8615 10.379 22.6404 9.09774 22.4266C8.1391 22.2666 7.14843 22.1013 6.28589 21.8748C6.09484 21.8245 5.94041 21.7526 5.80313 21.6888C5.64184 21.6133 5.51486 21.554 5.38788 21.554C5.31123 21.554 5.18654 21.572 4.97605 21.7293C4.12037 22.3691 1.73178 24.8007 1.28449 25.552C0.968759 26.0839 1.03625 26.2565 1.46409 26.7606C2.81168 28.3493 4.66718 29.9678 6.83155 31.4406C6.9654 31.5322 7.11182 31.6176 7.2674 31.7084C7.57627 31.889 7.89429 32.0759 8.11737 32.3122C8.2901 32.3078 8.46742 32.3051 8.65617 32.3051L8.65388 32.3069ZM6.44032 21.1038C6.48265 21.1209 6.54099 21.1371 6.56616 21.1443L6.60162 21.1541C7.07293 21.2934 7.76731 21.3986 8.43768 21.5001C8.88954 21.5684 9.31624 21.6331 9.67315 21.7068C9.83559 21.74 10.0484 21.7814 10.2886 21.8272C11.2541 22.0123 12.5777 22.2657 13.0833 22.4985C13.2171 22.5605 13.2846 22.6413 13.3395 22.706C13.375 22.7483 13.4036 22.7815 13.4414 22.8022C14.5201 23.3926 15.8608 24.0333 16.7954 24.4673C16.8687 24.5015 16.9533 24.541 17.0448 24.5851C17.5779 24.8385 18.4702 25.2635 18.8992 25.2815C18.9095 25.2815 18.9198 25.2815 18.9301 25.2815C19.2858 25.2815 19.859 25.0398 20.3635 24.8268C20.6735 24.6956 20.9663 24.5725 21.2077 24.5033C21.4617 24.4305 21.7202 24.3757 21.9707 24.3227C22.2659 24.2607 22.5702 24.196 22.8687 24.1007C23.0152 24.054 23.6672 23.8221 23.8503 23.7439C23.8503 23.7377 23.8503 23.7305 23.8503 23.7242C23.6455 23.6586 22.9991 23.495 22.8481 23.4618C22.6365 23.4151 22.4569 23.3926 22.299 23.3728C21.862 23.318 21.5166 23.2749 21.0613 22.7824C20.9412 22.653 20.8142 22.5128 20.6826 22.3655C19.8349 21.4255 18.6738 20.1378 17.3983 19.7316C17.2702 19.6912 17.118 19.666 16.9579 19.6409C16.7691 19.6103 16.5747 19.5789 16.3802 19.5169C16.1537 19.4441 15.9157 19.303 15.6847 19.1664C15.4765 19.0424 15.2397 18.9031 15.1207 18.8914C15.1081 18.8905 15.0955 18.8896 15.0818 18.8896C14.8862 18.8896 14.5556 18.9948 14.2639 19.0882C14.0911 19.143 13.9287 19.1952 13.7948 19.2257C13.2423 19.3515 12.6658 19.4656 12.1075 19.5762C11.42 19.7128 10.7084 19.8529 10.0404 20.0165C9.53016 20.1405 6.93794 20.8774 6.43918 21.1047L6.44032 21.1038Z" fill="black"/>
<path d="M26.6733 24.6858C26.6607 24.5177 26.4926 23.3999 26.4399 23.3468C26.1928 23.0997 25.0821 23.3711 24.7 23.3181C24.5204 23.2929 22.4395 22.6873 22.2839 22.6136C21.9385 22.45 21.2532 21.555 20.9375 21.2603C20.1985 20.571 18.7079 19.2761 17.6612 18.9499C17.3695 18.8583 17.167 18.905 16.8993 18.8502C16.3159 18.7316 15.6913 18.0756 14.942 18.1313C14.4101 18.1708 13.5109 18.621 12.9241 18.7693C10.5229 19.3795 8.22009 19.658 5.83722 20.4982C4.66009 20.9143 4.20593 21.2971 3.37199 22.051C2.70849 22.6513 0.272998 25.1153 0.182626 25.7632C0.0178953 26.9422 0.901033 27.3699 1.66863 28.2128C3.05625 29.7378 4.85342 31.5171 6.85992 32.5729C7.83801 33.0878 8.3505 32.8443 9.4304 32.9018C10.0973 32.9369 10.7848 33.0654 11.4461 33.0941C14.5519 33.228 17.2654 32.5954 20.2626 32.2746C21.2795 32.165 22.2736 32.3546 23.1225 31.7291C23.4004 31.5242 23.7425 30.9572 23.8958 30.8772C24.1417 30.7487 24.5204 30.7928 24.7583 30.7299C25.1107 30.6382 25.4287 29.5212 25.5854 29.222C25.8783 28.6622 26.3999 28.0673 26.504 27.4697C26.6527 26.6133 26.7385 25.552 26.6733 24.6858ZM6.24104 21.0698C6.28794 20.9152 9.5448 20.004 9.99437 19.8944C11.2081 19.5978 12.5214 19.3831 13.7523 19.1027C14.1298 19.0173 14.8082 18.7307 15.1433 18.7648C15.4476 18.7954 16.0047 19.2581 16.4429 19.3992C16.7884 19.5098 17.1636 19.5196 17.461 19.614C18.9779 20.0974 20.2729 21.7123 21.1949 22.7079C21.7692 23.328 22.0929 23.1608 22.8948 23.3397C23.0378 23.3711 23.9724 23.6038 24.0033 23.6434C24.0205 23.6641 24.0205 23.7961 23.9999 23.8213C23.9678 23.8608 23.0721 24.1754 22.9326 24.2203C22.3686 24.4 21.8126 24.4674 21.2658 24.6247C20.6195 24.8098 19.5098 25.4361 18.8932 25.4092C18.3476 25.3858 17.2414 24.8215 16.7151 24.577C15.6444 24.0801 14.3654 23.4619 13.3508 22.9065C13.21 22.8292 13.1872 22.6935 13.003 22.6082C12.391 22.326 10.4245 21.9926 9.63288 21.83C8.74174 21.6458 7.34496 21.511 6.54533 21.2737C6.44466 21.2441 6.20329 21.1911 6.24104 21.0698ZM25.9469 26.0804C25.8188 27.3016 25.614 27.9262 25.002 29.018C24.8979 29.2022 24.5261 30.1017 24.3957 30.1592C24.3042 30.1988 24.0754 30.1646 23.9232 30.2006C22.912 30.4396 23.1247 30.9824 22.4338 31.3778C21.8389 31.7183 21.0256 31.5791 20.3449 31.6402C18.0547 31.8459 15.6101 32.422 13.3107 32.5226C11.5627 32.599 9.78503 32.3887 8.03362 32.4435C7.72704 32.0796 7.15506 31.8316 6.72379 31.5377C4.72529 30.1772 2.79772 28.5651 1.32773 26.8317C0.888449 26.3132 0.785493 26.0894 1.13669 25.4981C1.60457 24.7127 4.02976 22.2604 4.86371 21.6368C5.48145 21.174 5.73198 21.5945 6.33713 21.7536C8.33334 22.2793 10.945 22.4563 12.8394 23.1177C13.8529 23.4717 15.3229 24.5141 16.3925 25.0219C17 25.3094 18.1462 25.8773 18.8109 25.9178C19.2135 25.9429 19.2227 25.7974 19.5098 25.7183C20.5817 25.4253 21.7577 25.1737 22.7964 24.8745C23.8615 24.5672 24.7618 23.8087 25.948 23.8285C25.892 24.5609 26.0224 25.3552 25.948 26.0804H25.9469Z" fill="black"/>
<path d="M28.2749 33.1372C27.9568 32.6286 26.7168 32.7687 26.0968 32.793C25.3452 32.8218 23.3593 32.9835 22.7026 33.1722C21.8081 33.4292 22.9314 34.0331 23.3238 34.2353C23.8054 34.4824 25.0443 34.9982 25.5877 35C26.027 35 27.7624 34.5884 28.1616 34.415C28.7393 34.1652 28.5174 33.5254 28.2749 33.1372ZM27.7978 33.9711C27.7372 34.0448 25.8382 34.4743 25.6586 34.4851C25.2766 34.5103 24.0148 33.928 23.6098 33.7572C24.3774 33.5757 25.1919 33.4679 25.9915 33.4086C26.3061 33.3852 27.545 33.2747 27.7086 33.4238C27.7761 33.4858 27.8527 33.9037 27.7978 33.9711Z" fill="black"/>
<path d="M27.7979 33.971C27.7373 34.0447 25.8383 34.4743 25.6587 34.485C25.2766 34.5102 24.0148 33.9279 23.6099 33.7572C24.3775 33.5756 25.192 33.4678 25.9916 33.4085C26.3062 33.3851 27.5451 33.2746 27.7087 33.4238C27.7762 33.4858 27.8528 33.9036 27.7979 33.971Z" fill="#2F150C"/>
<path d="M21.0729 21.9984C21.0729 21.9984 17.961 20.7139 14.4446 26.026C10.9264 31.338 4.90841 24.687 12.639 22.0968C20.3696 19.5067 10.0464 18.8829 11.6661 14.6867C13.2858 10.4905 12.3603 9.86495 10.6932 7.6333C9.02606 5.40165 12.1289 1.56216 14.8126 6.47178C17.4964 11.3814 20.8306 9.14976 20.9691 6.5614C21.1075 3.97304 19.1198 0.759112 23.886 0C23.886 0 27.9126 1.29506 24.8116 6.29431C21.7106 11.2936 24.6513 11.7434 28.8709 9.68044C36.2135 6.09223 37.7895 14.9714 28.9784 15.133C24.6476 15.2121 24.746 19.7615 25.9303 22.4254C26.9979 24.8293 29.9914 26.17 30.3467 30.1202C30.7986 35.1318 23.9899 36.9118 23.6109 29.1608C23.2957 22.7013 22.9842 23.1336 21.0729 21.9984Z" fill="#E60012"/>
<path d="M2.19547 31.273C3.408 31.273 4.39094 30.3249 4.39094 29.1555C4.39094 27.9861 3.408 27.0381 2.19547 27.0381C0.982946 27.0381 0 27.9861 0 29.1555C0 30.3249 0.982946 31.273 2.19547 31.273Z" fill="#E60012"/>
</svg>
