<svg width="35" height="35" viewBox="0 0 35 35" fill="none" xmlns="http://www.w3.org/2000/svg">
<path d="M25.9775 17.0632C25.8246 17.1748 25.8349 17.1602 26.0101 17.0192L26.1716 16.9222C26.4052 16.796 26.7505 16.699 27.0168 16.7301C27.4308 16.7777 27.6026 16.9973 27.7795 17.3889C28.2468 18.4156 28.2691 19.5081 27.5184 20.3481C26.6921 21.2723 25.7181 21.6749 24.665 22.2166C23.5123 22.8114 22.7943 23.8527 22.1775 25.013C21.3598 26.5539 23.5862 27.9374 24.4022 26.3983C24.8763 25.5034 25.2972 24.8995 26.1974 24.4822C27.0975 24.065 27.8603 23.6404 28.6075 22.9962C29.2913 22.407 29.9561 21.6822 30.3409 20.8313C30.7996 19.8138 30.736 18.7102 30.5333 17.6323C30.2052 15.8883 29.1865 14.2412 27.4102 14.0234C25.7868 13.8239 23.1327 14.9037 23.4007 17.065C23.4917 17.7988 23.928 18.4375 24.6891 18.4375C25.3144 18.4375 26.0685 17.8043 25.9775 17.065V17.0632Z" fill="#A78975"/>
<mask id="mask0_1275_2441" style="mask-type:luminance" maskUnits="userSpaceOnUse" x="22" y="14" width="9" height="14">
<path d="M25.9775 17.0632C25.8246 17.1748 25.8349 17.1602 26.0101 17.0192L26.1716 16.9222C26.4052 16.796 26.7505 16.699 27.0168 16.7301C27.4308 16.7777 27.6026 16.9973 27.7795 17.3889C28.2468 18.4156 28.2691 19.5081 27.5184 20.3481C26.6921 21.2723 25.7181 21.6749 24.665 22.2166C23.5123 22.8114 22.7943 23.8527 22.1775 25.013C21.3598 26.5539 23.5862 27.9374 24.4022 26.3983C24.8763 25.5034 25.2972 24.8995 26.1974 24.4822C27.0975 24.065 27.8603 23.6404 28.6075 22.9962C29.2913 22.407 29.9561 21.6822 30.3409 20.8313C30.7996 19.8138 30.736 18.7102 30.5333 17.6323C30.2052 15.8883 29.1865 14.2412 27.4102 14.0234C25.7868 13.8239 23.1327 14.9037 23.4007 17.065C23.4917 17.7988 23.928 18.4375 24.6891 18.4375C25.3144 18.4375 26.0685 17.8043 25.9775 17.065V17.0632Z" fill="white"/>
</mask>
<g mask="url(#mask0_1275_2441)">
<path d="M22.1861 24.5701C23.1945 25.4247 24.2905 26.2775 25.5978 26.488C25.8263 26.5246 26.0599 26.4258 26.1269 26.1677C26.1819 25.9518 26.0582 25.6425 25.8263 25.6041C24.6667 25.4174 23.6961 24.6854 22.7942 23.9204C22.6121 23.7667 22.3648 23.7319 22.1861 23.9204C22.0366 24.0796 22.004 24.4127 22.1861 24.5683V24.5701Z" fill="#A78975"/>
<path d="M23.5759 21.351C23.1756 21.9366 22.9574 22.6485 22.9282 23.3695C22.9145 23.7227 22.9471 24.1016 23.0399 24.442C23.1516 24.8482 23.3938 25.1172 23.7391 25.3149C25.1082 26.1018 26.6577 25.5839 28.0114 25.044C28.2279 24.958 28.3773 24.7348 28.3121 24.4804C28.2554 24.2589 28.0028 24.0741 27.783 24.1601C26.7179 24.5847 25.4741 25.1044 24.3489 24.614C24.1531 24.5298 23.9315 24.4255 23.8679 24.1967C23.7941 23.9277 23.7752 23.6459 23.7855 23.3677C23.8078 22.7986 24.0036 22.2678 24.3163 21.8103C24.452 21.6108 24.3489 21.2997 24.1617 21.1844C23.9452 21.049 23.7116 21.1478 23.5742 21.3491L23.5759 21.351Z" fill="#7C6A53"/>
<path d="M25.1838 20.478C24.9089 21.1258 24.6289 21.7956 24.6306 22.5222C24.6323 23.2487 24.9055 23.8801 25.4483 24.2955C25.9345 24.667 26.5718 24.7988 27.1611 24.7969C27.8362 24.7969 28.4941 24.6103 29.0902 24.2772C29.5798 24.0045 29.1469 23.2139 28.6573 23.4866C27.8757 23.9222 26.7539 24.0978 25.974 23.5726C25.1048 22.9852 25.6012 21.7078 25.9259 20.941C26.0204 20.7159 25.986 20.4487 25.7713 20.3151C25.5875 20.1998 25.28 20.2529 25.1838 20.4798V20.478Z" fill="#7C6A53"/>
<path d="M26.4103 19.7643C26.4515 20.4249 26.3468 21.0911 26.4808 21.7444C26.6147 22.3977 27.0391 22.934 27.5939 23.2341C28.7518 23.8618 30.2137 23.5525 31.0245 22.46C31.1688 22.266 31.2015 22.0024 31.0245 21.8121C30.8751 21.6529 30.5624 21.6163 30.4164 21.8121C29.8358 22.5954 28.8205 22.9065 27.9719 22.4124C27.5819 22.1855 27.3414 21.8359 27.283 21.3619C27.2177 20.833 27.2985 20.2932 27.2658 19.7624C27.2504 19.5154 27.0786 19.3049 26.8364 19.3049C26.6165 19.3049 26.3914 19.5154 26.4069 19.7624L26.4103 19.7643Z" fill="#7C6A53"/>
<path d="M27.1061 18.8639C27.0563 19.5557 27.1095 20.2566 27.6197 20.7562C28.0835 21.21 28.7312 21.4132 29.3548 21.3784C30.6964 21.3052 31.7254 20.3444 32.5638 19.3141C32.7149 19.1274 32.7356 18.8511 32.5638 18.6662C32.4092 18.5015 32.1085 18.4777 31.9556 18.6662C31.3114 19.4587 30.5504 20.2877 29.5283 20.4469C29.1074 20.5128 28.6264 20.4469 28.2811 20.1596C27.8929 19.8375 27.9324 19.3397 27.965 18.8657C27.9822 18.6187 27.7554 18.4082 27.5355 18.4082C27.2882 18.4082 27.1233 18.6187 27.1061 18.8657V18.8639Z" fill="#7C6A53"/>
<path d="M27.3036 18.8055C28.2107 19.3252 29.4888 18.983 30.2859 18.3754C31.0829 17.7678 31.6206 16.7906 31.7443 15.7163C31.7718 15.4711 31.5262 15.2588 31.3149 15.2588C31.0589 15.2588 30.9129 15.4692 30.8854 15.7163C30.8012 16.4447 30.4095 17.1547 29.8529 17.5848C29.542 17.8245 29.1933 17.9874 28.8171 18.0734C28.4804 18.1503 28.0509 18.1942 27.7365 18.0149C27.2504 17.7367 26.8157 18.5255 27.3036 18.8055Z" fill="#7C6A53"/>
<path d="M27.1834 17.9416C28.2708 18.0038 28.8343 16.6642 29.104 15.751C29.4321 14.6383 29.6193 13.4451 29.1177 12.358C29.0146 12.1366 28.7209 12.0762 28.5302 12.1933C28.3172 12.3251 28.2742 12.5959 28.3756 12.8192C28.7449 13.619 28.5457 14.5523 28.3172 15.3612C28.2107 15.7382 28.0921 16.1115 27.898 16.4482C27.7417 16.7191 27.5115 17.0448 27.1834 17.0265C26.6302 16.9954 26.6319 17.9105 27.1834 17.9416Z" fill="#7C6A53"/>
</g>
<g clip-path="url(#clip0_1275_2441)">
<path d="M31.7936 28.2684C31.463 27.9188 30.5284 27.3886 30.0834 27.0418C29.8478 26.8575 29.6075 26.6032 29.3627 26.4028C29.1374 26.2195 28.9623 25.9526 28.6226 25.8682C27.4626 26.0452 26.4445 26.7039 25.3349 27.0031C24.8143 27.1433 24.1978 27.1891 23.6761 27.35C22.7575 27.6348 22.2347 28.1929 21.4671 28.5335C20.9249 28.7752 19.7317 28.8174 19.9743 29.4303C19.9948 29.4824 20.8723 30.0485 21.0164 30.1357C21.2967 30.3064 23.0893 31.338 23.2494 31.3641C25.2982 31.4881 27.394 31.7137 29.4428 31.4998C30.0571 31.4351 30.6016 30.7279 30.93 30.3199C31.1496 30.0476 32.0121 28.8588 31.9996 28.6197C31.9916 28.4499 31.9092 28.3897 31.7936 28.2684ZM22.9554 28.3061C23.874 27.7535 25.0626 27.6986 26.0967 27.3482C26.862 27.0885 27.601 26.65 28.4155 26.4397C28.5974 26.4262 29.0527 26.9186 29.2014 27.0373C29.7357 27.465 30.3179 27.944 30.9437 28.2702C30.8053 28.5182 30.4381 28.4211 30.1967 28.475C29.1179 28.7159 28.6741 28.8866 27.5152 28.901C25.6689 28.9244 23.8168 28.8507 21.9796 28.9666L22.9554 28.3061ZM30.2196 30.0791C30.0754 30.2516 29.5709 30.8384 29.3673 30.8699C27.4111 30.966 25.4481 30.9373 23.4862 30.9238C22.9291 30.1824 21.8172 29.9182 21.0107 29.3791C21.2898 29.282 21.7108 29.2335 22.0162 29.2182C24.4048 29.1032 26.7499 29.3844 29.1179 29.0879C29.786 29.0043 30.406 28.6997 31.105 28.777C30.8304 29.2164 30.5616 29.6693 30.2196 30.0791Z" fill="black"/>
<path d="M31.1053 28.7771C30.8307 29.2165 30.5619 29.6694 30.2199 30.0792C30.0757 30.2517 29.5712 30.8385 29.3676 30.87C27.4114 30.9661 25.4484 30.9374 23.4865 30.9239C22.9294 30.1825 21.8175 29.9183 21.011 29.3792C21.2901 29.2821 21.7111 29.2336 22.0165 29.2183C24.4051 29.1033 26.7502 29.3846 29.1182 29.088C29.7863 29.0044 30.4063 28.6998 31.1053 28.7771Z" fill="#2F150C"/>
<path d="M30.9438 28.2702C30.8054 28.5182 30.4382 28.4212 30.1968 28.4751C29.118 28.7159 28.6742 28.8867 27.5154 28.901C25.669 28.9244 23.8169 28.8507 21.9797 28.9666L22.9555 28.3061C23.8741 27.7535 25.0627 27.6987 26.0968 27.3482C26.8622 27.0885 27.6012 26.65 28.4157 26.4397C28.5975 26.4262 29.0528 26.9187 29.2016 27.0373C29.7358 27.465 30.3181 27.944 30.9438 28.2702Z" fill="#482913"/>
<path d="M25.9473 26.0802C25.8192 27.3014 25.6144 27.9259 25.0024 29.0177C24.8983 29.202 24.5265 30.1015 24.3961 30.159C24.3046 30.1985 24.0758 30.1644 23.9236 30.2003C22.9124 30.4394 23.1252 30.9821 22.4342 31.3775C21.8393 31.7181 21.026 31.5788 20.3453 31.6399C18.0551 31.8457 15.6105 32.4217 13.3111 32.5223C11.5631 32.5987 9.78543 32.3885 8.03403 32.4433C7.72745 32.0793 7.15547 31.8313 6.72419 31.5375C4.72569 30.177 2.79812 28.5648 1.32813 26.8314C0.888852 26.3129 0.785896 26.0892 1.13709 25.4979C1.60497 24.7125 4.03017 22.2602 4.86411 21.6365C5.48185 21.1737 5.73238 21.5943 6.33753 21.7533C8.33375 22.279 10.9454 22.4561 12.8398 23.1174C13.8534 23.4715 15.3233 24.5139 16.3929 25.0216C17.0004 25.3092 18.1466 25.8771 18.8113 25.9175C19.214 25.9427 19.2231 25.7971 19.5102 25.718C20.5821 25.4251 21.7581 25.1735 22.7968 24.8742C23.8619 24.5669 24.7622 23.8085 25.9484 23.8282C25.8924 24.5606 26.0228 25.355 25.9484 26.0802H25.9473Z" fill="#2F150C"/>
<path d="M23.9999 23.8213C23.9678 23.8608 23.0721 24.1753 22.9326 24.2203C22.3686 24.4 21.8126 24.4674 21.2658 24.6246C20.6195 24.8098 19.5098 25.4361 18.8932 25.4091C18.3476 25.3858 17.2414 24.8214 16.7151 24.577C15.6444 24.0801 14.3654 23.4618 13.3507 22.9065C13.21 22.8292 13.1872 22.6935 13.003 22.6082C12.391 22.326 10.4245 21.9926 9.63287 21.8299C8.74173 21.6457 7.34495 21.5109 6.54532 21.2737C6.44466 21.2441 6.20328 21.191 6.24103 21.0697C6.28793 20.9152 9.54479 20.004 9.99436 19.8943C11.2081 19.5978 12.5214 19.383 13.7523 19.1027C14.1298 19.0173 14.8081 18.7306 15.1433 18.7648C15.4476 18.7953 16.0047 19.2581 16.4429 19.3992C16.7883 19.5097 17.1636 19.5196 17.461 19.614C18.9779 20.0974 20.2728 21.7122 21.1949 22.7079C21.7691 23.3279 22.0929 23.1608 22.8948 23.3396C23.0378 23.3711 23.9724 23.6038 24.0033 23.6434C24.0205 23.664 24.0205 23.7961 23.9999 23.8213Z" fill="#482913"/>
<path d="M12.3068 33.2396C12.0151 33.2396 11.7222 33.2333 11.4374 33.2207C11.0896 33.2055 10.7316 33.1632 10.3861 33.1219C10.0669 33.0842 9.73631 33.0446 9.42058 33.0284C9.3039 33.0221 9.18607 33.0195 9.06138 33.0195C8.90122 33.0195 8.75365 33.0239 8.61066 33.0293C8.4791 33.0338 8.35555 33.0383 8.23201 33.0383C7.76413 33.0383 7.33743 32.9772 6.77117 32.6789C4.64455 31.5592 2.76616 29.6362 1.5387 28.2873C1.36481 28.0959 1.18292 27.9261 1.0079 27.7617C0.406175 27.1955 -0.113183 26.7085 0.0218038 25.7488C0.121328 25.0317 2.72613 22.441 3.25006 21.9665C4.10231 21.1964 4.56447 20.8073 5.77135 20.3813C7.30082 19.8422 8.82343 19.5267 10.2957 19.2221C11.1365 19.0478 12.0071 18.8681 12.8753 18.647C13.1018 18.5895 13.3787 18.4844 13.6727 18.3738C14.1188 18.2049 14.581 18.0297 14.9276 18.0036C14.9631 18.0009 14.9985 18 15.034 18C15.5007 18 15.9114 18.2273 16.274 18.4277C16.5131 18.5598 16.7385 18.6847 16.941 18.7261C17.0394 18.7459 17.1309 18.7503 17.227 18.7557C17.3688 18.7629 17.5301 18.771 17.7223 18.8312C18.7988 19.1664 20.2768 20.4451 21.0627 21.1775C21.1759 21.2835 21.3258 21.4534 21.4997 21.6502C21.7834 21.971 22.1712 22.4104 22.3679 22.5039C22.5212 22.5731 24.5517 23.1652 24.7291 23.1922C24.7531 23.1958 24.7851 23.1976 24.824 23.1976C24.9521 23.1976 25.1294 23.1796 25.3171 23.1607C25.5424 23.1383 25.7758 23.114 25.984 23.114C26.1682 23.114 26.4301 23.1302 26.5674 23.2686C26.6772 23.3791 26.8339 24.6668 26.8351 24.6785C26.8946 25.4765 26.8317 26.5261 26.6646 27.4867C26.5914 27.9081 26.3272 28.3188 26.0709 28.7151C25.9462 28.9083 25.8295 29.0898 25.7357 29.2695C25.6968 29.3432 25.6454 29.4771 25.5847 29.6335C25.3296 30.294 25.1237 30.7684 24.8091 30.8502C24.6993 30.879 24.5758 30.8879 24.4454 30.8978C24.276 30.9104 24.101 30.923 23.9855 30.9832C23.9386 31.011 23.8127 31.1719 23.7201 31.2887C23.5679 31.4819 23.3963 31.7012 23.2328 31.8216C22.5658 32.3122 21.8085 32.3347 21.0752 32.3563C20.8156 32.3635 20.5467 32.3716 20.2836 32.4003C19.3879 32.4965 18.5059 32.6214 17.6525 32.7427C15.8588 32.9979 14.1646 33.2387 12.3068 33.2387V33.2396ZM8.65413 32.3069C9.29589 32.3069 9.94795 32.3338 10.5794 32.3599C11.2063 32.3859 11.8538 32.412 12.4864 32.412C12.7781 32.412 13.0446 32.4066 13.302 32.3949C14.5936 32.3383 15.956 32.1262 17.2739 31.9222C18.284 31.765 19.3273 31.6032 20.3271 31.5134C20.5364 31.4945 20.7584 31.4936 20.9723 31.4936C21.4814 31.4918 21.9618 31.4909 22.3393 31.2752C22.5944 31.1288 22.7111 30.9616 22.8358 30.7846C23.0246 30.5141 23.2202 30.2346 23.8779 30.0792C23.974 30.0567 24.0804 30.0558 24.1742 30.0549C24.2166 30.0549 24.276 30.054 24.3081 30.0495C24.395 29.9498 24.5998 29.5077 24.6993 29.2902C24.768 29.1428 24.8217 29.026 24.8549 28.9667C25.4612 27.8857 25.6614 27.2629 25.7861 26.0705C25.825 25.6975 25.8078 25.295 25.7907 24.9059C25.7769 24.5931 25.7632 24.2714 25.7781 23.9596C25.1443 23.9902 24.5906 24.2508 24.0072 24.5248C23.6389 24.6983 23.2568 24.878 22.8518 24.9948C22.2787 25.1602 21.6541 25.3129 21.0512 25.4612C20.5559 25.5825 20.0445 25.7083 19.5629 25.8395C19.4806 25.862 19.4257 25.8925 19.3685 25.924C19.2621 25.9824 19.1431 26.0489 18.8983 26.0489C18.8674 26.0489 18.8342 26.048 18.7976 26.0453C18.1444 26.0058 17.1252 25.5205 16.4514 25.1997L16.3084 25.1314C15.8565 24.9166 15.3497 24.6174 14.8144 24.3011C14.0937 23.8751 13.3489 23.4357 12.7735 23.2344C11.7051 22.8615 10.3792 22.6404 9.09798 22.4266C8.13935 22.2666 7.14868 22.1013 6.28613 21.8748C6.09509 21.8245 5.94065 21.7526 5.80338 21.6888C5.64208 21.6133 5.5151 21.554 5.38812 21.554C5.31148 21.554 5.18678 21.572 4.9763 21.7293C4.12061 22.3691 1.73202 24.8007 1.28474 25.552C0.969003 26.0839 1.0365 26.2565 1.46434 26.7606C2.81192 28.3493 4.66743 29.9678 6.8318 31.4406C6.96564 31.5322 7.11207 31.6176 7.26765 31.7084C7.57652 31.889 7.89454 32.0759 8.11761 32.3122C8.29035 32.3078 8.46766 32.3051 8.65641 32.3051L8.65413 32.3069ZM6.44056 21.1038C6.48289 21.1209 6.54123 21.1371 6.5664 21.1443L6.60186 21.1541C7.07317 21.2934 7.76756 21.3986 8.43792 21.5001C8.88978 21.5684 9.31648 21.6331 9.6734 21.7068C9.83584 21.74 10.0486 21.7814 10.2888 21.8272C11.2543 22.0123 12.5779 22.2657 13.0835 22.4985C13.2174 22.5605 13.2849 22.6413 13.3398 22.706C13.3753 22.7483 13.4039 22.7815 13.4416 22.8022C14.5204 23.3926 15.8611 24.0333 16.7957 24.4673C16.8689 24.5015 16.9536 24.541 17.0451 24.5851C17.5782 24.8385 18.4704 25.2635 18.8994 25.2815C18.9097 25.2815 18.92 25.2815 18.9303 25.2815C19.2861 25.2815 19.8592 25.0398 20.3637 24.8268C20.6737 24.6956 20.9666 24.5725 21.2079 24.5033C21.4619 24.4305 21.7204 24.3757 21.971 24.3227C22.2661 24.2607 22.5704 24.196 22.869 24.1007C23.0154 24.054 23.6675 23.8221 23.8505 23.7439C23.8505 23.7377 23.8505 23.7305 23.8505 23.7242C23.6457 23.6586 22.9994 23.495 22.8484 23.4618C22.6368 23.4151 22.4571 23.3926 22.2993 23.3728C21.8623 23.318 21.5168 23.2749 21.0615 22.7824C20.9414 22.653 20.8144 22.5128 20.6829 22.3655C19.8352 21.4255 18.6741 20.1378 17.3986 19.7316C17.2704 19.6912 17.1183 19.666 16.9581 19.6409C16.7694 19.6103 16.5749 19.5789 16.3804 19.5169C16.1539 19.4441 15.916 19.303 15.6849 19.1664C15.4767 19.0424 15.2399 18.9031 15.1209 18.8914C15.1083 18.8905 15.0958 18.8896 15.082 18.8896C14.8864 18.8896 14.5558 18.9948 14.2641 19.0882C14.0914 19.143 13.9289 19.1952 13.7951 19.2257C13.2426 19.3515 12.666 19.4656 12.1077 19.5762C11.4202 19.7128 10.7087 19.8529 10.0406 20.0165C9.5304 20.1405 6.93819 20.8774 6.43942 21.1047L6.44056 21.1038Z" fill="black"/>
<path d="M26.6736 24.6858C26.661 24.5177 26.4928 23.3999 26.4402 23.3468C26.1931 23.0997 25.0823 23.3711 24.7002 23.3181C24.5206 23.2929 22.4398 22.6873 22.2842 22.6136C21.9387 22.45 21.2535 21.555 20.9377 21.2603C20.1987 20.571 18.7082 19.2761 17.6614 18.9499C17.3697 18.8583 17.1672 18.905 16.8996 18.8502C16.3161 18.7316 15.6915 18.0756 14.9422 18.1313C14.4103 18.1708 13.5112 18.621 12.9243 18.7693C10.5231 19.3795 8.22033 19.658 5.83747 20.4982C4.66033 20.9143 4.20618 21.2971 3.37223 22.051C2.70873 22.6513 0.273243 25.1153 0.18287 25.7632C0.0181394 26.9422 0.901277 27.3699 1.66887 28.2128C3.0565 29.7378 4.85366 31.5171 6.86017 32.5729C7.83825 33.0878 8.35075 32.8443 9.43064 32.9018C10.0976 32.9369 10.7851 33.0654 11.4463 33.0941C14.5522 33.228 17.2656 32.5954 20.2628 32.2746C21.2798 32.165 22.2739 32.3546 23.1227 31.7291C23.4007 31.5242 23.7427 30.9572 23.896 30.8772C24.142 30.7487 24.5206 30.7928 24.7586 30.7299C25.1109 30.6382 25.4289 29.5212 25.5856 29.222C25.8785 28.6622 26.4002 28.0673 26.5042 27.4697C26.653 26.6133 26.7388 25.552 26.6736 24.6858ZM6.24128 21.0698C6.28819 20.9152 9.54504 20.004 9.99462 19.8944C11.2084 19.5978 12.5216 19.3831 13.7525 19.1027C14.13 19.0173 14.8084 18.7307 15.1436 18.7648C15.4479 18.7954 16.005 19.2581 16.4431 19.3992C16.7886 19.5098 17.1638 19.5196 17.4612 19.614C18.9781 20.0974 20.2731 21.7123 21.1951 22.7079C21.7694 23.328 22.0931 23.1608 22.8951 23.3397C23.038 23.3711 23.9727 23.6038 24.0036 23.6434C24.0207 23.6641 24.0207 23.7961 24.0001 23.8213C23.9681 23.8608 23.0724 24.1754 22.9328 24.2203C22.3688 24.4 21.8129 24.4674 21.2661 24.6247C20.6197 24.8098 19.5101 25.4361 18.8935 25.4092C18.3478 25.3858 17.2416 24.8215 16.7154 24.577C15.6446 24.0801 14.3657 23.4619 13.351 22.9065C13.2103 22.8292 13.1874 22.6935 13.0032 22.6082C12.3912 22.326 10.4247 21.9926 9.63312 21.83C8.74198 21.6458 7.3452 21.511 6.54558 21.2737C6.44491 21.2441 6.20353 21.1911 6.24128 21.0698ZM25.9471 26.0804C25.819 27.3016 25.6142 27.9262 25.0022 29.018C24.8981 29.2022 24.5263 30.1017 24.3959 30.1592C24.3044 30.1988 24.0756 30.1646 23.9235 30.2006C22.9122 30.4396 23.125 30.9824 22.434 31.3778C21.8392 31.7183 21.0258 31.5791 20.3452 31.6402C18.055 31.8459 15.6103 32.422 13.311 32.5226C11.563 32.599 9.78527 32.3887 8.03387 32.4435C7.72729 32.0796 7.15531 31.8316 6.72403 31.5377C4.72554 30.1772 2.79796 28.5651 1.32797 26.8317C0.888693 26.3132 0.785737 26.0894 1.13693 25.4981C1.60481 24.7127 4.03001 22.2604 4.86396 21.6368C5.48169 21.174 5.73222 21.5945 6.33738 21.7536C8.33359 22.2793 10.9452 22.4563 12.8396 23.1177C13.8532 23.4717 15.3232 24.5141 16.3928 25.0219C17.0002 25.3094 18.1465 25.8773 18.8111 25.9178C19.2138 25.9429 19.2229 25.7974 19.5101 25.7183C20.582 25.4253 21.758 25.1737 22.7967 24.8745C23.8617 24.5672 24.762 23.8087 25.9483 23.8285C25.8922 24.5609 26.0226 25.3552 25.9483 26.0804H25.9471Z" fill="black"/>
<path d="M28.2751 33.1372C27.9571 32.6286 26.717 32.7687 26.097 32.793C25.3454 32.8218 23.3595 32.9835 22.7029 33.1722C21.8083 33.4292 22.9317 34.0331 23.3241 34.2353C23.8057 34.4824 25.0446 34.9982 25.588 35C26.0272 35 27.7626 34.5884 28.1619 34.415C28.7396 34.1652 28.5176 33.5254 28.2751 33.1372ZM27.7981 33.9711C27.7375 34.0448 25.8385 34.4743 25.6589 34.4851C25.2768 34.5103 24.015 33.928 23.61 33.7572C24.3776 33.5757 25.1921 33.4679 25.9918 33.4086C26.3064 33.3852 27.5453 33.2747 27.7089 33.4238C27.7763 33.4858 27.853 33.9037 27.7981 33.9711Z" fill="black"/>
<path d="M27.7981 33.971C27.7375 34.0447 25.8385 34.4743 25.6589 34.485C25.2769 34.5102 24.0151 33.9279 23.6101 33.7572C24.3777 33.5756 25.1922 33.4678 25.9918 33.4085C26.3064 33.3851 27.5453 33.2746 27.7089 33.4238C27.7764 33.4858 27.8531 33.9036 27.7981 33.971Z" fill="#2F150C"/>
</g>
<path d="M3.54201 32.7618C3.61588 32.4946 4.35457 32.1688 4.59335 32.0188C5.04172 31.7369 5.49695 31.4661 5.99342 31.2941C7.08084 30.9171 8.22494 31.0104 9.34671 31.1294C11.269 31.3343 14.289 32.0462 15.6891 30.1484C16.122 29.561 16.2165 28.7814 15.6891 28.2067C15.2476 27.7254 14.2959 27.6248 13.8664 28.2067C13.2703 29.0138 11.5456 28.6295 10.7073 28.5398C9.46181 28.408 8.20948 28.1921 6.95543 28.3147C5.72715 28.4355 4.61912 28.8473 3.54545 29.4896C2.47178 30.132 1.40841 30.7524 1.05625 32.0298C0.588984 33.7281 3.07475 34.4546 3.54029 32.7599L3.54201 32.7618Z" fill="#A78975"/>
<mask id="mask1_1275_2441" style="mask-type:luminance" maskUnits="userSpaceOnUse" x="0" y="27" width="17" height="7">
<path d="M3.54201 32.7618C3.61588 32.4946 4.35457 32.1688 4.59335 32.0188C5.04172 31.7369 5.49695 31.4661 5.99342 31.2941C7.08084 30.9171 8.22494 31.0104 9.34671 31.1294C11.269 31.3343 14.289 32.0462 15.6891 30.1484C16.122 29.561 16.2165 28.7814 15.6891 28.2067C15.2476 27.7254 14.2959 27.6248 13.8664 28.2067C13.2703 29.0138 11.5456 28.6295 10.7073 28.5398C9.46181 28.408 8.20948 28.1921 6.95543 28.3147C5.72715 28.4355 4.61912 28.8473 3.54545 29.4896C2.47178 30.132 1.40841 30.7524 1.05625 32.0298C0.588984 33.7281 3.07475 34.4546 3.54029 32.7599L3.54201 32.7618Z" fill="white"/>
</mask>
<g mask="url(#mask1_1275_2441)">
<path d="M2.24878 29.2937C2.17491 30.2325 2.17148 31.3031 2.85691 32.0095C3.21423 32.3774 3.68664 32.6025 4.1539 32.769C4.65381 32.9465 5.18635 33.0307 5.71202 33.0325C5.94393 33.0325 6.14149 32.8221 6.14149 32.575C6.14149 32.3279 5.94565 32.1175 5.71202 32.1175C5.28255 32.1175 4.87541 32.0516 4.46312 31.9144C4.10924 31.7972 3.71928 31.6252 3.46504 31.3635C3.36025 31.2555 3.26576 31.111 3.21079 30.9719C3.19705 30.9371 3.16097 30.8163 3.14379 30.7486C3.13177 30.701 3.12146 30.6516 3.11287 30.604C3.11287 30.604 3.08882 30.4558 3.09913 30.5272C3.04416 30.1227 3.07851 29.7018 3.10944 29.2974C3.12833 29.0503 2.89814 28.8398 2.67997 28.8398C2.43087 28.8398 2.26939 29.0503 2.2505 29.2974L2.24878 29.2937Z" fill="#7C6A53"/>
<path d="M5.07639 28.0493C4.85479 29.098 4.64864 30.2418 4.95442 31.2959C5.09185 31.7735 5.35469 32.1652 5.74808 32.4378C6.09853 32.6812 6.51769 32.8002 6.91796 32.9082C7.45393 33.0509 7.68241 32.1688 7.14643 32.0261C6.84237 31.9456 6.52972 31.865 6.25657 31.6967C5.96969 31.5192 5.82539 31.252 5.74636 30.9152C5.54366 30.0514 5.72403 29.1401 5.90269 28.2909C6.02466 27.7181 5.19664 27.4729 5.07468 28.0475L5.07639 28.0493Z" fill="#7C6A53"/>
<path d="M8.98803 27.4088C8.47267 27.4143 7.98479 27.676 7.65324 28.0951C7.28733 28.5563 7.13272 29.1328 7.07775 29.7239C7.02278 30.315 7.0726 30.8695 7.30623 31.3819C7.53986 31.8943 7.9762 32.2347 8.43487 32.469C8.64446 32.5769 8.8987 32.5294 9.02239 32.3043C9.13233 32.1048 9.07736 31.7864 8.86778 31.6784C8.56543 31.5228 8.26309 31.3307 8.09302 31.0104C7.9092 30.6664 7.90405 30.2454 7.92638 29.863C7.96589 29.2151 8.2545 28.3294 8.98803 28.322C9.54119 28.3165 9.54119 27.4015 8.98803 27.407V27.4088Z" fill="#7C6A53"/>
<path d="M11.4807 27.7017C11.1233 27.7438 10.9619 27.9927 10.8244 28.3185C10.7128 28.582 10.6252 28.8547 10.5736 29.1402C10.4654 29.7313 10.4774 30.3498 10.6337 30.9318C10.7901 31.5138 11.0855 32.05 11.5906 32.3446C12.0613 32.6209 12.6076 32.6685 13.1333 32.6996C13.3652 32.7124 13.5627 32.48 13.5627 32.2421C13.5627 31.9822 13.3652 31.7974 13.1333 31.7846C12.7983 31.7645 12.441 31.7498 12.1266 31.6107C11.7899 31.4607 11.5975 31.1477 11.4892 30.7872C11.3707 30.3919 11.3329 29.9783 11.3759 29.5666C11.3965 29.3707 11.4411 29.1768 11.4961 28.9901C11.5236 28.8986 11.5545 28.8071 11.5923 28.7192C11.6095 28.679 11.6284 28.6369 11.649 28.5966C11.661 28.5692 11.6765 28.5417 11.692 28.5143C11.7194 28.4685 11.7057 28.4832 11.6542 28.56L11.4377 28.6222L11.4824 28.6168C11.7126 28.5893 11.9118 28.4264 11.9118 28.1592C11.9118 27.9323 11.7143 27.6743 11.4824 27.7017H11.4807Z" fill="#7C6A53"/>
</g>
<defs>
<clipPath id="clip0_1275_2441">
<rect width="32" height="17" fill="white" transform="translate(-0.000244141 18)"/>
</clipPath>
</defs>
</svg>
