<svg width="35" height="35" viewBox="0 0 35 35" fill="none" xmlns="http://www.w3.org/2000/svg">
<path d="M3.77351 33.1029C3.77351 33.1029 4.59241 31.5488 7.37182 31.8889C7.37182 31.8889 9.71049 31.9055 8.13756 33.3195C8.13756 33.3195 2.67775 34.6763 3.77351 33.1029Z" fill="#995D29"/>
<path d="M31.1042 27.3056C29.8893 26.4848 28.5269 26.1625 27.3258 25.3116C25.3467 23.9097 24.4511 23.2137 22.0943 23.3376C21.9696 23.3444 21.0979 23.4781 21.0508 23.5356C20.9884 23.5236 20.9267 23.5084 20.8651 23.4924L20.8645 23.4924C20.8218 23.4927 20.7805 23.4866 20.7394 23.4765C20.6601 23.4725 20.5816 23.463 20.503 23.4437C20.406 23.4203 20.3094 23.3888 20.214 23.3534C20.1221 23.3448 20.0308 23.3354 19.941 23.3059C19.8218 23.2676 19.7154 23.1848 19.591 23.1762C19.5798 23.1756 19.5704 23.1719 19.5615 23.1674C19.4717 23.1492 19.382 23.1278 19.2944 23.0984C18.6453 22.8213 17.9609 22.6766 17.2731 22.6982C15.8428 22.7428 13.7238 22.9553 12.6171 24.5241C12.4128 24.813 12.301 25.2375 12.1457 25.4747C11.6121 26.2904 9.34316 26.3418 8.55293 26.6518C7.87856 26.9174 7.23395 27.4972 6.5823 27.8641C5.82529 28.2897 3.61432 28.9793 3.20536 29.8433C2.87266 30.5469 3.26625 30.8421 3.68144 30.9168C5.59988 31.261 8.15739 31.1584 10.1264 31.1494C12.0661 31.1407 14.0171 30.9368 15.9529 30.9537C17.7852 30.9695 19.4295 31.4496 21.2689 31.1182C23.5579 30.7056 25.8584 30.4149 28.1548 30.0043C28.4304 29.9557 28.7912 29.7716 29.0429 29.7542C29.8719 29.6951 30.5898 30.0258 31.4995 29.6312C32.8897 29.0286 31.8137 27.7846 31.1042 27.3056ZM31.3543 28.7301C31.0374 28.6521 29.7561 29.3846 29.5704 29.1693C29.534 29.1271 29.5446 28.9684 29.4975 28.9596C29.0562 29.0662 28.6843 29.3355 28.237 29.445C26.3939 29.8951 24.5169 30.0266 22.6679 30.25C21.7435 30.3618 20.7769 30.7955 19.8569 30.8266C19.4779 30.8393 19.1396 30.711 18.799 30.6909C14.863 30.4518 10.9367 30.8672 7.00217 30.7583C5.92566 30.7292 4.85012 30.6588 3.77473 30.6394C3.39134 30.3431 3.64751 29.9234 3.91633 29.6466C4.16438 29.3905 6.04308 28.4711 6.31974 28.4557C6.41661 28.45 6.37273 28.603 6.42189 28.6232C6.49243 28.6534 6.8003 28.7188 6.88736 28.728C7.04719 28.744 7.36024 28.6512 7.41542 28.6685C7.4601 28.682 7.45757 28.8298 7.49656 28.8722C7.65444 29.0457 8.19809 28.9733 8.42079 29.0449C8.53999 29.084 8.51592 29.2356 8.58069 29.2962C8.83163 29.5301 9.09994 29.2314 9.30791 29.2773C9.6637 29.3556 9.77723 29.337 10.1086 29.3696C10.2589 29.3843 10.3767 29.5478 10.5273 29.5569C10.7656 29.5719 11.0779 29.3118 11.2926 29.2756C11.4659 29.2462 12.1443 29.4698 12.075 29.0275C12.0316 28.7513 11.5931 28.9745 11.4633 28.9648C11.299 28.9526 11.2422 28.8067 11.1036 28.7724C10.9449 28.733 10.6999 28.8428 10.6244 28.8149C10.5641 28.7933 10.5298 28.6364 10.4585 28.5981C10.3306 28.5311 10.1643 28.6134 10.0541 28.5643C10.005 28.5424 10.0098 28.4028 9.97122 28.3637C9.69771 28.0899 9.334 28.4938 9.05915 28.1932C9.00044 28.1289 9.02713 27.9782 8.90113 27.9364C8.67117 27.8603 8.36111 28.0971 8.12113 28.0618C8.18033 27.7721 8.75794 27.6496 8.78447 27.6097C8.81039 27.5714 8.69151 27.3109 8.80027 27.2484C9.37873 27.0767 9.946 26.8292 10.525 26.6672C10.7323 26.6088 10.9603 26.6597 11.1837 26.5569C11.3786 26.4679 12.6027 25.7277 12.7075 25.5947C13.015 25.2058 13.2103 24.7007 13.6189 24.2958C14.5062 23.4168 16.1544 23.261 17.1958 23.1793C17.8429 23.129 18.4847 23.1544 19.1162 23.3345C19.1183 23.3346 19.1209 23.3363 19.123 23.3372C19.1664 23.3539 19.2105 23.3682 19.2541 23.3833C19.3417 23.4135 19.4299 23.4422 19.5184 23.466C19.6473 23.4821 19.7736 23.5287 19.9032 23.5408C19.9165 23.5415 19.9285 23.5469 19.9398 23.5548C19.951 23.5561 19.9604 23.5598 19.9698 23.5643C20.0442 23.5713 20.1177 23.5838 20.1904 23.6133C20.2945 23.6564 20.3999 23.6932 20.5056 23.7259C20.7284 23.7944 20.9543 23.8452 21.1796 23.896C21.1823 23.8961 21.1843 23.8978 21.187 23.8988C21.3829 23.898 21.5786 23.8996 21.774 23.9093C21.7772 23.9095 21.7798 23.9104 21.783 23.9106C22.0858 23.8844 22.3889 23.842 22.4961 23.8425C23.0575 23.8437 23.6335 23.8602 24.1669 24.0911C24.1082 24.3065 24.0181 24.3909 23.9109 24.4114C23.9064 24.4153 23.902 24.4183 23.8971 24.4204C23.8605 24.4372 23.823 24.4507 23.7864 24.4667C23.7695 24.4739 23.7526 24.482 23.7362 24.4901L23.7356 24.49C23.7356 24.49 23.7318 24.4931 23.7296 24.4946C23.7213 24.4998 23.7136 24.5051 23.7058 24.5112C23.6991 24.5165 23.6924 24.5226 23.6863 24.528C23.6846 24.5303 23.6834 24.5319 23.6817 24.5334C23.6692 24.549 23.6572 24.5653 23.6452 24.5817C23.6371 24.5934 23.6286 24.6035 23.6206 24.6144C23.5984 24.6651 23.5706 24.709 23.5331 24.7435C23.4565 24.814 23.363 24.8272 23.2766 24.8261C23.0984 24.8253 22.9093 24.765 22.7353 24.8728C22.6296 24.9379 22.537 25.061 22.4446 25.1598C22.3454 25.2657 22.2447 25.3698 22.1339 25.4419C21.8907 25.5995 21.6431 25.5573 21.3951 25.4998C21.1746 25.4484 20.9528 25.4026 20.7298 25.3786C20.6083 25.3968 20.4591 25.3183 20.3527 25.3534C20.2914 25.3746 20.2875 25.5604 20.2184 25.586C20.15 25.6109 20.0529 25.5018 19.9653 25.5031C19.7336 25.5062 19.6229 25.8111 19.4524 25.86C19.2846 25.9082 19.0896 25.8056 18.9403 25.8669C18.8651 25.8979 18.8154 26.0506 18.7532 26.0661C18.6646 26.0892 18.484 25.9429 18.2934 25.9981C18.1997 26.0257 17.8242 26.4193 17.7321 26.5336C17.6764 26.6027 17.6141 26.6004 17.6314 26.7557C17.651 26.7599 17.6711 26.7625 17.6918 26.7643C18.1896 26.7559 18.6866 26.6561 19.1849 26.6259C19.3164 26.5791 19.4424 26.4584 19.552 26.3467C19.5987 26.2875 19.6518 26.2409 19.6975 26.1793C19.7027 26.1723 19.7083 26.1661 19.7144 26.1615C19.7195 26.1553 19.7251 26.1499 19.7307 26.1454C19.7922 26.0563 19.8593 25.9844 19.9132 25.9726C19.9674 25.9446 20.0287 25.9476 20.0813 25.9939C20.1765 26.0754 20.2184 26.2326 20.2831 26.3579C20.4198 26.6249 20.6532 26.622 20.861 26.6177C20.8732 26.6183 20.8838 26.6205 20.8931 26.6258C21.2711 26.634 21.6501 26.5995 22.0257 26.6537C22.0904 26.6626 22.156 26.6747 22.2209 26.6877C22.277 26.688 22.3324 26.6884 22.3885 26.6879C22.6211 26.6243 22.8537 26.551 23.0888 26.4689C23.3533 26.3761 23.6243 26.2821 23.8948 26.2834C24.1583 26.2851 24.4141 26.3779 24.6722 26.4367C24.909 26.4913 25.6034 26.6196 25.6843 26.0845C25.712 25.9032 25.7931 25.8183 25.8829 25.805C25.5035 25.201 25.0349 24.7938 24.5241 24.4306C24.521 24.289 24.711 24.3525 24.7665 24.3634C25.5436 24.5224 26.256 25.4379 26.9566 25.8906C27.141 26.1309 26.8116 26.0798 26.8336 26.283C26.8552 26.4821 27.2104 26.4205 27.2449 26.5863C26.5261 26.3283 25.7925 27.6579 25.1678 27.8362C24.8614 27.9236 24.4065 27.7895 24.0691 27.814C23.7381 27.8372 22.734 28.0807 22.4515 28.289C22.3811 28.3412 22.35 28.4965 22.3418 28.606C22.5576 28.5391 22.6834 28.9075 22.7326 28.9366C23.0384 29.1199 24.0012 28.6657 24.3963 28.6296C24.6375 28.6068 24.888 28.6782 25.1347 28.6541C25.4328 28.6253 25.809 28.412 26.0743 28.409C26.3408 28.406 26.9312 28.7983 27.1524 28.4811C27.2111 28.3967 27.1975 28.219 27.2513 28.1983C27.4591 28.1197 28.0781 28.4527 27.9868 27.7555C28.4844 27.7608 29.0511 27.2465 29.5353 27.2641C29.7797 27.2738 30.2348 27.5664 30.4627 27.728C30.5828 27.8132 31.4635 28.5294 31.3543 28.7301Z" fill="black"/>
<path d="M30.4626 27.7281C30.2347 27.5665 29.7797 27.2739 29.5352 27.2642C29.051 27.2467 28.4843 27.7609 27.9867 27.7556C28.0781 28.4528 27.459 28.1198 27.2513 28.1984C27.1974 28.2191 27.211 28.3968 27.1524 28.4812C26.9312 28.7984 26.3407 28.4061 26.0743 28.4091C25.8089 28.4121 25.4328 28.6254 25.1346 28.6542C24.8879 28.6784 24.6375 28.6069 24.3962 28.6297C24.0011 28.6659 23.0383 29.12 22.7325 28.9367C22.6833 28.9076 22.5575 28.5392 22.3418 28.6061C22.3499 28.4966 22.3811 28.3413 22.4514 28.2891C22.7339 28.0808 23.7381 27.8373 24.069 27.8141C24.4064 27.7896 24.8614 27.9237 25.1677 27.8363C25.7924 27.658 26.526 26.3284 27.2448 26.5864C27.2104 26.4206 26.8551 26.4822 26.8335 26.2831C26.8116 26.0799 27.141 26.131 26.9565 25.8907C26.2559 25.4381 25.5436 24.5225 24.7665 24.3635C24.711 24.3527 24.5209 24.2891 24.5241 24.4307C25.0349 24.7939 25.5035 25.2011 25.8828 25.8051C25.793 25.8184 25.712 25.9033 25.6843 26.0846C25.6033 26.6197 24.909 26.4914 24.6721 26.4368C24.4141 26.378 24.1582 26.2852 23.8947 26.2835C23.6242 26.2822 23.3533 26.3762 23.0888 26.469C22.8536 26.5511 22.6211 26.6244 22.3884 26.688C22.3324 26.6885 22.2769 26.6881 22.2209 26.6878C22.1559 26.6749 22.0903 26.6627 22.0257 26.6538C21.65 26.5996 21.271 26.6342 20.893 26.6259C20.8837 26.6206 20.8732 26.6176 20.8609 26.6178C20.6531 26.6221 20.4197 26.625 20.2831 26.358C20.2183 26.2327 20.1765 26.0755 20.0813 25.994C20.0286 25.9477 19.9674 25.9447 19.9132 25.9727C19.8592 25.9846 19.7921 26.0564 19.7306 26.1455C19.725 26.1501 19.7194 26.1554 19.7143 26.1617C19.7082 26.1662 19.7026 26.1724 19.6974 26.1794C19.6517 26.241 19.5987 26.2877 19.552 26.3468C19.4424 26.4585 19.3163 26.5792 19.1849 26.626C18.6865 26.6562 18.1896 26.756 17.6918 26.7644C17.6711 26.7626 17.6509 26.76 17.6314 26.7558C17.614 26.6005 17.6763 26.6028 17.7321 26.5337C17.8242 26.4194 18.1997 26.0258 18.2933 25.9982C18.4839 25.943 18.6645 26.0893 18.7532 26.0663C18.8153 26.0507 18.865 25.898 18.9402 25.867C19.0895 25.8057 19.2845 25.9083 19.4523 25.8601C19.6229 25.8112 19.7335 25.5063 19.9653 25.5033C20.0529 25.5019 20.1499 25.611 20.2184 25.5861C20.2874 25.5605 20.2913 25.3748 20.3527 25.3536C20.459 25.3184 20.6082 25.397 20.7298 25.3787C20.9527 25.4027 21.1746 25.4485 21.3951 25.4999C21.643 25.5574 21.8907 25.5996 22.1338 25.442C22.2447 25.3699 22.3454 25.2658 22.4445 25.16C22.537 25.0611 22.6295 24.938 22.7352 24.8729C22.9092 24.7651 23.0983 24.8255 23.2765 24.8262C23.3629 24.8273 23.4564 24.8141 23.533 24.7436C23.5705 24.7091 23.5983 24.6652 23.6205 24.6146C23.6286 24.6036 23.6371 24.5936 23.6451 24.5818C23.6571 24.5655 23.6692 24.5491 23.6817 24.5335C23.6833 24.532 23.6845 24.5304 23.6862 24.5281C23.6923 24.5227 23.699 24.5166 23.7057 24.5113C23.7135 24.5052 23.7212 24.4999 23.7295 24.4947C23.7317 24.4932 23.7334 24.4916 23.7356 24.4901L23.7361 24.4902C23.7525 24.4821 23.7695 24.474 23.7864 24.4668C23.8229 24.4508 23.8604 24.4373 23.897 24.4206C23.9019 24.4184 23.9063 24.4154 23.9108 24.4115C24.018 24.391 24.1081 24.3066 24.1668 24.0913C23.6334 23.8603 23.0574 23.8438 22.4961 23.8426C22.3888 23.8421 22.0857 23.8845 21.7829 23.9107C21.7797 23.9105 21.7771 23.9096 21.7739 23.9094C21.5786 23.8997 21.3828 23.8981 21.1869 23.8989C21.1842 23.8987 21.1822 23.897 21.1796 23.8961C20.9542 23.8453 20.7284 23.7945 20.5055 23.726C20.3998 23.6933 20.2944 23.6566 20.1904 23.6134C20.1176 23.5839 20.0441 23.5714 19.9697 23.5645C19.9603 23.56 19.9509 23.5563 19.9398 23.5549C19.9284 23.5471 19.9164 23.5416 19.9031 23.5409C19.7735 23.5289 19.6472 23.4822 19.5183 23.4661C19.4299 23.4423 19.3416 23.4137 19.254 23.3834C19.2105 23.3684 19.1664 23.354 19.1229 23.3373C19.1208 23.3372 19.1182 23.3355 19.1161 23.3346C18.4847 23.1545 17.8429 23.1291 17.1957 23.1794C16.1543 23.2611 14.5061 23.4169 13.6188 24.2959C13.2102 24.7008 13.0149 25.2059 12.7074 25.5948C12.6027 25.7278 11.3786 26.468 11.1836 26.557C10.9603 26.6598 10.7323 26.6089 10.525 26.6673C9.94593 26.8293 9.37866 27.0768 8.8002 27.2485C8.69144 27.311 8.81032 27.5715 8.7844 27.6098C8.75788 27.6498 8.18026 27.7722 8.12106 28.0619C8.36105 28.0972 8.67111 27.8604 8.90107 27.9365C9.02706 27.9783 9.00038 28.129 9.05908 28.1933C9.33393 28.4939 9.69765 28.09 9.97115 28.3639C10.0098 28.403 10.005 28.5425 10.0541 28.5644C10.1642 28.6135 10.3305 28.5312 10.4585 28.5982C10.5297 28.6365 10.5641 28.7934 10.6244 28.815C10.6998 28.843 10.9449 28.7331 11.1035 28.7725C11.2422 28.8068 11.299 28.9527 11.4633 28.9649C11.593 28.9746 12.0315 28.7514 12.0749 29.0276C12.1442 29.4699 11.4658 29.2463 11.2926 29.2757C11.0778 29.3119 10.7655 29.572 10.5272 29.557C10.3766 29.5479 10.2588 29.3844 10.1085 29.3697C9.77716 29.3371 9.66364 29.3557 9.30785 29.2774C9.09987 29.2315 8.83156 29.5302 8.58062 29.2963C8.51586 29.2357 8.53992 29.0841 8.42073 29.045C8.19802 28.9734 7.65438 29.0458 7.49649 28.8723C7.45751 28.8299 7.46004 28.6821 7.41535 28.6686C7.36018 28.6513 7.04713 28.7441 6.8873 28.7281C6.80023 28.7189 6.49236 28.6535 6.42182 28.6233C6.37266 28.6031 6.41655 28.4501 6.31967 28.4558C6.04302 28.4712 4.16431 29.3907 3.91626 29.6467C3.64744 29.9235 3.39127 30.3432 3.77466 30.6395C4.85006 30.6589 5.92559 30.7293 7.0021 30.7585C10.9366 30.8673 14.8629 30.4519 18.799 30.691C19.1395 30.7111 19.4779 30.8394 19.8568 30.8267C20.7768 30.7956 21.7434 30.3619 22.6679 30.2501C24.5168 30.0267 26.3938 29.8952 28.2369 29.4451C28.6842 29.3356 29.0562 29.0663 29.4975 28.9597C29.5445 28.9685 29.534 29.1272 29.5703 29.1694C29.756 29.3847 31.0373 28.6522 31.3542 28.7302C31.4634 28.5295 30.5827 27.8133 30.4626 27.7281ZM13.7532 28.0933C13.2604 27.9791 13.4461 28.0441 12.9871 28.1208C12.611 28.1837 12.3938 27.9353 12.0377 27.8748C11.8488 27.8428 11.6476 28.026 11.4475 27.7776C11.3957 27.7136 11.3815 27.5375 11.3269 27.5194C11.2256 27.4861 10.9427 27.6701 10.8215 27.6924C10.3776 27.777 9.92773 27.8089 9.5391 27.4461C9.80569 27.3647 10.927 26.6736 11.106 26.8522C11.1375 26.8844 11.1294 27.091 11.2443 27.1524C11.9166 27.5083 12.5702 26.317 13.1215 26.6273C13.1895 26.6654 13.1879 26.806 13.2137 26.8347C13.244 26.8694 13.6775 27.1455 13.7548 27.189C13.8664 27.2527 14.0507 27.2158 14.1538 27.3227C14.2572 27.4313 14.2026 27.6185 14.2573 27.6455C14.4604 27.7461 14.9309 27.5027 15.0649 27.9216C14.6513 27.9633 14.1595 28.1862 13.7532 28.0933ZM16.9353 26.8029C16.6666 26.7435 16.3125 26.8358 16.057 26.7593C15.9781 26.736 15.8365 26.577 15.7227 26.5382C15.0972 26.3245 14.4732 26.1133 13.8226 26.0818C13.814 25.9658 13.929 25.9812 13.9862 25.9678C14.304 25.8971 15.0394 26.0799 15.377 26.1816C15.7324 26.2889 16.2512 26.6517 16.5483 26.698C16.6997 26.7217 16.992 26.5099 16.9353 26.8029ZM22.1838 29.649C22.1575 29.6849 21.5785 29.8574 21.503 29.8617C21.3966 29.867 21.3061 29.7647 21.2019 29.7789C20.9703 29.8102 20.6919 30.1197 20.4111 29.8843C20.3538 29.6956 20.6915 29.6428 20.5903 29.4899C20.5738 29.4656 20.4169 29.5645 20.3472 29.5595C20.1568 29.546 19.8905 29.3428 20.1292 29.1025C20.2522 28.9793 21.429 28.6441 21.482 28.7267L21.4133 29.045C21.7224 28.8922 21.7083 29.3708 21.7483 29.3914C21.827 29.43 22.1718 29.3647 22.1958 29.4079C22.1862 29.4729 22.1947 29.635 22.1838 29.649Z" fill="#995D29"/>
<path d="M15.0651 27.9216C14.6516 27.9633 14.1597 28.1862 13.7534 28.0933C13.2607 27.9791 13.4464 28.0441 12.9873 28.1207C12.6112 28.1837 12.3941 27.9353 12.0379 27.8748C11.849 27.8428 11.6478 28.0259 11.4477 27.7776C11.396 27.7136 11.3818 27.5375 11.3271 27.5194C11.2258 27.4861 10.9429 27.6701 10.8217 27.6923C10.3778 27.777 9.92798 27.8088 9.53935 27.446C9.80594 27.3647 10.9273 26.6735 11.1063 26.8521C11.1377 26.8844 11.1296 27.0909 11.2445 27.1524C11.9168 27.5083 12.5705 26.317 13.1218 26.6273C13.1898 26.6654 13.1882 26.806 13.2139 26.8347C13.2442 26.8694 13.6777 27.1455 13.7551 27.1889C13.8667 27.2527 14.051 27.2157 14.154 27.3227C14.2575 27.4313 14.2028 27.6185 14.2575 27.6455C14.4607 27.7461 14.9311 27.5027 15.0651 27.9216Z" fill="black"/>
<path d="M22.1841 29.6489C22.1578 29.6848 21.5787 29.8573 21.5033 29.8617C21.3968 29.8669 21.3064 29.7646 21.2021 29.7788C20.9706 29.8102 20.6921 30.1197 20.4114 29.8843C20.354 29.6955 20.6918 29.6428 20.5905 29.4898C20.5741 29.4656 20.4171 29.5645 20.3475 29.5594C20.1571 29.5459 19.8907 29.3427 20.1295 29.1024C20.2525 28.9792 21.4292 28.644 21.4822 28.7266L21.4136 29.0449C21.7227 28.8921 21.7085 29.3707 21.7486 29.3913C21.8273 29.43 22.172 29.3647 22.1961 29.4079C22.1864 29.4729 22.1949 29.6349 22.1841 29.6489Z" fill="black"/>
<path d="M1.69278 30.3161C1.62738 30.2789 1.62898 30.1391 1.60008 30.1086C1.31833 29.8182 0.598522 29.8811 0.304624 30.1793C-0.0145497 30.5029 -0.0705029 30.9851 0.273736 31.2746C0.57695 31.5305 1.67493 31.6755 2.04754 31.6407C2.2904 31.618 2.33422 31.5094 2.35405 31.1313C2.40078 30.2437 2.03011 30.5082 1.69278 30.3161ZM1.22785 30.8669C0.97405 30.712 0.806288 31.2428 0.63368 31.0112C0.341981 30.62 1.0689 30.016 1.46709 30.2507C1.56559 30.309 1.57873 30.6677 1.74844 30.6567L1.22785 30.8669Z" fill="black"/>
<path d="M1.74855 30.6568L1.22795 30.8669C0.974154 30.7121 0.806391 31.2429 0.633783 31.0112C0.342084 30.6201 1.06901 30.016 1.46719 30.2508C1.56569 30.309 1.57884 30.6677 1.74855 30.6568Z" fill="#995D29"/>
<path d="M8.38413 32.3967C8.30531 32.4687 8.21305 33.0267 7.99029 33.128C6.92351 33.3329 5.84662 33.6876 4.77161 33.7142C4.44781 33.7224 3.74182 33.8296 3.93312 33.0826C4.07021 32.5462 6.04695 32.2103 6.05483 32.041C6.06591 31.8176 5.25168 31.9445 5.13271 31.9653C4.76083 32.0285 3.54786 32.4047 3.35261 32.8873C3.10383 33.5021 3.49073 33.8996 3.85742 33.9841C4.56598 34.1478 5.6217 34.0474 6.35518 33.9456C6.78181 33.8868 8.1499 33.6645 8.48101 33.4336C8.66897 33.3023 8.81269 32.5464 8.70117 32.3849C8.67131 32.3414 8.43829 32.3484 8.38463 32.3975L8.38413 32.3967Z" fill="black"/>
<path d="M6.55059 32.6135C6.46333 32.6512 6.37352 32.7405 6.28504 32.7814C6.28256 32.8314 6.36788 33.112 6.38674 33.1299C6.43761 33.1801 7.0833 33.116 7.19194 33.0883C7.4924 33.0127 7.65999 32.6896 7.94245 32.74C7.63518 31.8672 7.36388 32.097 6.7953 32.1989C6.79596 32.7768 6.76987 32.5177 6.55063 32.6127L6.55059 32.6135Z" fill="black"/>
<path d="M16.9357 26.8029C16.667 26.7435 16.3129 26.8358 16.0573 26.7593C15.9784 26.7359 15.8369 26.577 15.723 26.5382C15.0975 26.3245 14.4735 26.1132 13.823 26.0818C13.8143 25.9658 13.9294 25.9812 13.9866 25.9678C14.3044 25.8971 15.0398 26.0799 15.3773 26.1815C15.7327 26.2889 16.2516 26.6517 16.5487 26.698C16.7001 26.7217 16.9924 26.5099 16.9357 26.8029Z" fill="black"/>
<path d="M25.9775 17.0632C25.8246 17.1748 25.8349 17.1602 26.0101 17.0192L26.1716 16.9222C26.4052 16.796 26.7505 16.699 27.0168 16.7301C27.4308 16.7777 27.6026 16.9973 27.7795 17.3889C28.2468 18.4156 28.2691 19.5081 27.5184 20.3481C26.6921 21.2723 25.7181 21.6749 24.665 22.2166C23.5123 22.8114 22.7943 23.8527 22.1775 25.013C21.3598 26.5539 23.5862 27.9374 24.4022 26.3983C24.8763 25.5034 25.2972 24.8995 26.1974 24.4822C27.0975 24.065 27.8603 23.6404 28.6075 22.9962C29.2913 22.407 29.9561 21.6822 30.3409 20.8313C30.7996 19.8138 30.736 18.7102 30.5333 17.6323C30.2052 15.8883 29.1865 14.2412 27.4102 14.0234C25.7868 13.8239 23.1327 14.9037 23.4007 17.065C23.4917 17.7988 23.928 18.4375 24.6891 18.4375C25.3144 18.4375 26.0685 17.8043 25.9775 17.065V17.0632Z" fill="#A78975"/>
<mask id="mask0_1217_3243" style="mask-type:luminance" maskUnits="userSpaceOnUse" x="22" y="14" width="9" height="14">
<path d="M25.9775 17.0632C25.8246 17.1748 25.8349 17.1602 26.0101 17.0192L26.1716 16.9222C26.4052 16.796 26.7505 16.699 27.0168 16.7301C27.4308 16.7777 27.6026 16.9973 27.7795 17.3889C28.2468 18.4156 28.2691 19.5081 27.5184 20.3481C26.6921 21.2723 25.7181 21.6749 24.665 22.2166C23.5123 22.8114 22.7943 23.8527 22.1775 25.013C21.3598 26.5539 23.5862 27.9374 24.4022 26.3983C24.8763 25.5034 25.2972 24.8995 26.1974 24.4822C27.0975 24.065 27.8603 23.6404 28.6075 22.9962C29.2913 22.407 29.9561 21.6822 30.3409 20.8313C30.7996 19.8138 30.736 18.7102 30.5333 17.6323C30.2052 15.8883 29.1865 14.2412 27.4102 14.0234C25.7868 13.8239 23.1327 14.9037 23.4007 17.065C23.4917 17.7988 23.928 18.4375 24.6891 18.4375C25.3144 18.4375 26.0685 17.8043 25.9775 17.065V17.0632Z" fill="white"/>
</mask>
<g mask="url(#mask0_1217_3243)">
<path d="M22.1861 24.5701C23.1945 25.4247 24.2905 26.2775 25.5978 26.488C25.8263 26.5246 26.0599 26.4258 26.1269 26.1677C26.1819 25.9518 26.0582 25.6425 25.8263 25.6041C24.6667 25.4174 23.6961 24.6854 22.7942 23.9204C22.6121 23.7667 22.3648 23.7319 22.1861 23.9204C22.0366 24.0796 22.004 24.4127 22.1861 24.5683V24.5701Z" fill="#A78975"/>
<path d="M23.5759 21.351C23.1756 21.9366 22.9574 22.6485 22.9282 23.3695C22.9145 23.7227 22.9471 24.1016 23.0399 24.442C23.1516 24.8482 23.3938 25.1172 23.7391 25.3149C25.1082 26.1018 26.6577 25.5839 28.0114 25.044C28.2279 24.958 28.3773 24.7348 28.3121 24.4804C28.2554 24.2589 28.0028 24.0741 27.783 24.1601C26.7179 24.5847 25.4741 25.1044 24.3489 24.614C24.1531 24.5298 23.9315 24.4255 23.8679 24.1967C23.7941 23.9277 23.7752 23.6459 23.7855 23.3677C23.8078 22.7986 24.0036 22.2678 24.3163 21.8103C24.452 21.6108 24.3489 21.2997 24.1617 21.1844C23.9452 21.049 23.7116 21.1478 23.5742 21.3491L23.5759 21.351Z" fill="#7C6A53"/>
<path d="M25.1838 20.478C24.9089 21.1258 24.6289 21.7956 24.6306 22.5222C24.6323 23.2487 24.9055 23.8801 25.4483 24.2955C25.9345 24.667 26.5718 24.7988 27.1611 24.7969C27.8362 24.7969 28.4941 24.6103 29.0902 24.2772C29.5798 24.0045 29.1469 23.2139 28.6573 23.4866C27.8757 23.9222 26.7539 24.0978 25.974 23.5726C25.1048 22.9852 25.6012 21.7078 25.9259 20.941C26.0204 20.7159 25.986 20.4487 25.7713 20.3151C25.5875 20.1998 25.28 20.2529 25.1838 20.4798V20.478Z" fill="#7C6A53"/>
<path d="M26.4103 19.7643C26.4515 20.4249 26.3468 21.0911 26.4808 21.7444C26.6147 22.3977 27.0391 22.934 27.5939 23.2341C28.7518 23.8618 30.2137 23.5525 31.0245 22.46C31.1688 22.266 31.2015 22.0024 31.0245 21.8121C30.8751 21.6529 30.5624 21.6163 30.4164 21.8121C29.8358 22.5954 28.8205 22.9065 27.9719 22.4124C27.5819 22.1855 27.3414 21.8359 27.283 21.3619C27.2177 20.833 27.2985 20.2932 27.2658 19.7624C27.2504 19.5154 27.0786 19.3049 26.8364 19.3049C26.6165 19.3049 26.3914 19.5154 26.4069 19.7624L26.4103 19.7643Z" fill="#7C6A53"/>
<path d="M27.1061 18.8639C27.0563 19.5557 27.1095 20.2566 27.6197 20.7562C28.0835 21.21 28.7312 21.4132 29.3548 21.3784C30.6964 21.3052 31.7254 20.3444 32.5638 19.3141C32.7149 19.1274 32.7356 18.8511 32.5638 18.6662C32.4092 18.5015 32.1085 18.4777 31.9556 18.6662C31.3114 19.4587 30.5504 20.2877 29.5283 20.4469C29.1074 20.5128 28.6264 20.4469 28.2811 20.1596C27.8929 19.8375 27.9324 19.3397 27.965 18.8657C27.9822 18.6187 27.7554 18.4082 27.5355 18.4082C27.2882 18.4082 27.1233 18.6187 27.1061 18.8657V18.8639Z" fill="#7C6A53"/>
<path d="M27.3036 18.8055C28.2107 19.3252 29.4888 18.983 30.2859 18.3754C31.0829 17.7678 31.6206 16.7906 31.7443 15.7163C31.7718 15.4711 31.5262 15.2588 31.3149 15.2588C31.0589 15.2588 30.9129 15.4692 30.8854 15.7163C30.8012 16.4447 30.4095 17.1547 29.8529 17.5848C29.542 17.8245 29.1933 17.9874 28.8171 18.0734C28.4804 18.1503 28.0509 18.1942 27.7365 18.0149C27.2504 17.7367 26.8157 18.5255 27.3036 18.8055Z" fill="#7C6A53"/>
<path d="M27.1834 17.9416C28.2708 18.0038 28.8343 16.6642 29.104 15.751C29.4321 14.6383 29.6193 13.4451 29.1177 12.358C29.0146 12.1366 28.7209 12.0762 28.5302 12.1933C28.3172 12.3251 28.2742 12.5959 28.3756 12.8192C28.7449 13.619 28.5457 14.5523 28.3172 15.3612C28.2107 15.7382 28.0921 16.1115 27.898 16.4482C27.7417 16.7191 27.5115 17.0448 27.1834 17.0265C26.6302 16.9954 26.6319 17.9105 27.1834 17.9416Z" fill="#7C6A53"/>
</g>
<path d="M3.54201 32.7618C3.61588 32.4946 4.35457 32.1688 4.59335 32.0188C5.04172 31.7369 5.49695 31.4661 5.99342 31.2941C7.08084 30.9171 8.22494 31.0104 9.34671 31.1294C11.269 31.3343 14.289 32.0462 15.6891 30.1484C16.122 29.561 16.2165 28.7814 15.6891 28.2067C15.2476 27.7254 14.2959 27.6248 13.8664 28.2067C13.2703 29.0138 11.5456 28.6295 10.7073 28.5398C9.46181 28.408 8.20948 28.1921 6.95543 28.3147C5.72715 28.4355 4.61912 28.8473 3.54545 29.4896C2.47178 30.132 1.40841 30.7524 1.05625 32.0298C0.588984 33.7281 3.07475 34.4546 3.54029 32.7599L3.54201 32.7618Z" fill="#A78975"/>
<mask id="mask1_1217_3243" style="mask-type:luminance" maskUnits="userSpaceOnUse" x="0" y="27" width="17" height="7">
<path d="M3.54201 32.7618C3.61588 32.4946 4.35457 32.1688 4.59335 32.0188C5.04172 31.7369 5.49695 31.4661 5.99342 31.2941C7.08084 30.9171 8.22494 31.0104 9.34671 31.1294C11.269 31.3343 14.289 32.0462 15.6891 30.1484C16.122 29.561 16.2165 28.7814 15.6891 28.2067C15.2476 27.7254 14.2959 27.6248 13.8664 28.2067C13.2703 29.0138 11.5456 28.6295 10.7073 28.5398C9.46181 28.408 8.20948 28.1921 6.95543 28.3147C5.72715 28.4355 4.61912 28.8473 3.54545 29.4896C2.47178 30.132 1.40841 30.7524 1.05625 32.0298C0.588984 33.7281 3.07475 34.4546 3.54029 32.7599L3.54201 32.7618Z" fill="white"/>
</mask>
<g mask="url(#mask1_1217_3243)">
<path d="M2.24878 29.2937C2.17491 30.2325 2.17148 31.3031 2.85691 32.0095C3.21423 32.3774 3.68664 32.6025 4.1539 32.769C4.65381 32.9465 5.18635 33.0307 5.71202 33.0325C5.94393 33.0325 6.14149 32.8221 6.14149 32.575C6.14149 32.3279 5.94565 32.1175 5.71202 32.1175C5.28255 32.1175 4.87541 32.0516 4.46312 31.9144C4.10924 31.7972 3.71928 31.6252 3.46504 31.3635C3.36025 31.2555 3.26576 31.111 3.21079 30.9719C3.19705 30.9371 3.16097 30.8163 3.14379 30.7486C3.13177 30.701 3.12146 30.6516 3.11287 30.604C3.11287 30.604 3.08882 30.4558 3.09913 30.5272C3.04416 30.1227 3.07851 29.7018 3.10944 29.2974C3.12833 29.0503 2.89814 28.8398 2.67997 28.8398C2.43087 28.8398 2.26939 29.0503 2.2505 29.2974L2.24878 29.2937Z" fill="#7C6A53"/>
<path d="M5.07639 28.0493C4.85479 29.098 4.64864 30.2418 4.95442 31.2959C5.09185 31.7735 5.35469 32.1652 5.74808 32.4378C6.09853 32.6812 6.51769 32.8002 6.91796 32.9082C7.45393 33.0509 7.68241 32.1688 7.14643 32.0261C6.84237 31.9456 6.52972 31.865 6.25657 31.6967C5.96969 31.5192 5.82539 31.252 5.74636 30.9152C5.54366 30.0514 5.72403 29.1401 5.90269 28.2909C6.02466 27.7181 5.19664 27.4729 5.07468 28.0475L5.07639 28.0493Z" fill="#7C6A53"/>
<path d="M8.98803 27.4088C8.47267 27.4143 7.98479 27.676 7.65324 28.0951C7.28733 28.5563 7.13272 29.1328 7.07775 29.7239C7.02278 30.315 7.0726 30.8695 7.30623 31.3819C7.53986 31.8943 7.9762 32.2347 8.43487 32.469C8.64446 32.5769 8.8987 32.5294 9.02239 32.3043C9.13233 32.1048 9.07736 31.7864 8.86778 31.6784C8.56543 31.5228 8.26309 31.3307 8.09302 31.0104C7.9092 30.6664 7.90405 30.2454 7.92638 29.863C7.96589 29.2151 8.2545 28.3294 8.98803 28.322C9.54119 28.3165 9.54119 27.4015 8.98803 27.407V27.4088Z" fill="#7C6A53"/>
<path d="M11.4807 27.7017C11.1233 27.7438 10.9619 27.9927 10.8244 28.3185C10.7128 28.582 10.6252 28.8547 10.5736 29.1402C10.4654 29.7313 10.4774 30.3498 10.6337 30.9318C10.7901 31.5138 11.0855 32.05 11.5906 32.3446C12.0613 32.6209 12.6076 32.6685 13.1333 32.6996C13.3652 32.7124 13.5627 32.48 13.5627 32.2421C13.5627 31.9822 13.3652 31.7974 13.1333 31.7846C12.7983 31.7645 12.441 31.7498 12.1266 31.6107C11.7899 31.4607 11.5975 31.1477 11.4892 30.7872C11.3707 30.3919 11.3329 29.9783 11.3759 29.5666C11.3965 29.3707 11.4411 29.1768 11.4961 28.9901C11.5236 28.8986 11.5545 28.8071 11.5923 28.7192C11.6095 28.679 11.6284 28.6369 11.649 28.5966C11.661 28.5692 11.6765 28.5417 11.692 28.5143C11.7194 28.4685 11.7057 28.4832 11.6542 28.56L11.4377 28.6222L11.4824 28.6168C11.7126 28.5893 11.9118 28.4264 11.9118 28.1592C11.9118 27.9323 11.7143 27.6743 11.4824 27.7017H11.4807Z" fill="#7C6A53"/>
</g>
</svg>
