<svg width="24" height="24" viewBox="0 0 24 24" fill="none" xmlns="http://www.w3.org/2000/svg">
<g clip-path="url(#clip0_1702_3791)">
<path d="M10.748 0.818514C8.46678 1.07099 6.31818 2.01822 4.59301 3.53201L8.40401 7.34351C9.96169 5.53108 10.7963 3.20786 10.748 0.818514ZM9.46751 8.40701C11.3219 6.29461 12.3143 3.56213 12.2475 0.752014C14.8871 0.805882 17.4228 1.79048 19.407 3.53201L12 10.939L9.46751 8.40701ZM7.34351 8.40401C5.53108 9.96169 3.20786 10.7963 0.818514 10.748C1.07099 8.46678 2.01822 6.31818 3.53201 4.59301L7.34351 8.40401ZM8.40701 9.46751L10.939 12L3.53201 19.407C1.79037 17.4226 0.805765 14.8868 0.752014 12.247C0.834347 12.249 0.917014 12.25 1.00001 12.25C3.83651 12.25 6.42801 11.2 8.40701 9.46751ZM20.4675 4.59251C22.2092 6.5769 23.1938 9.11278 23.2475 11.7525C23.1645 11.7508 23.082 11.75 23 11.75C20.2748 11.7461 17.6414 12.7351 15.5925 14.532L13.0605 12L20.4675 4.59251ZM12 13.06L14.532 15.5925C12.6776 17.7049 11.6852 20.4374 11.752 23.2475C9.11245 23.1936 6.57677 22.2091 4.59251 20.4675L12 13.06ZM19.407 20.4675L15.5955 16.656C14.0378 18.4685 13.2033 20.7917 13.2515 23.181C15.5327 22.9285 17.6818 21.9813 19.407 20.4675ZM16.656 15.595L20.4675 19.407C21.9814 17.6817 22.9286 15.5329 23.181 13.2515C23.121 13.2505 23.0605 13.25 22.9995 13.25C20.6723 13.2463 18.4212 14.0784 16.656 15.595Z" fill="#4398E8"/>
</g>
<defs>
<clipPath id="clip0_1702_3791">
<rect width="24" height="24" fill="white"/>
</clipPath>
</defs>
</svg>
