<svg width="25" height="24" viewBox="0 0 25 24" fill="none" xmlns="http://www.w3.org/2000/svg">
<path d="M17.5 3.34001C19.0083 4.21087 20.2629 5.46054 21.1398 6.96531C22.0167 8.47009 22.4854 10.1778 22.4994 11.9194C22.5135 13.6609 22.0725 15.376 21.22 16.8947C20.3676 18.4135 19.1332 19.6832 17.6392 20.5783C16.1452 21.4734 14.4434 21.9628 12.7021 21.9981C10.9608 22.0333 9.24055 21.6132 7.71155 20.7793C6.18256 19.9453 4.89787 18.7265 3.98467 17.2435C3.07146 15.7605 2.56141 14.0647 2.505 12.324L2.5 12L2.505 11.676C2.561 9.94901 3.06355 8.26598 3.96364 6.79101C4.86373 5.31604 6.13065 4.09947 7.64089 3.2599C9.15113 2.42033 10.8531 1.98641 12.581 2.00045C14.3089 2.01449 16.0036 2.47601 17.5 3.34001ZM12.5 6.00001C12.2551 6.00005 12.0187 6.08997 11.8356 6.25273C11.6526 6.41549 11.5357 6.63976 11.507 6.88301L11.5 7.00001V12L11.509 12.131C11.5318 12.3045 11.5997 12.469 11.706 12.608L11.793 12.708L14.793 15.708L14.887 15.79C15.0624 15.9261 15.278 15.9999 15.5 15.9999C15.722 15.9999 15.9376 15.9261 16.113 15.79L16.207 15.707L16.29 15.613C16.4261 15.4376 16.4999 15.222 16.4999 15C16.4999 14.778 16.4261 14.5624 16.29 14.387L16.207 14.293L13.5 11.585V7.00001L13.493 6.88301C13.4643 6.63976 13.3474 6.41549 13.1644 6.25273C12.9813 6.08997 12.7449 6.00005 12.5 6.00001Z" fill="#91D834"/>
</svg>
