<svg width="25" height="24" viewBox="0 0 25 24" fill="none" xmlns="http://www.w3.org/2000/svg">
<path fill-rule="evenodd" clip-rule="evenodd" d="M18.5 2.75C18.3011 2.75 18.1103 2.67098 17.9697 2.53033C17.829 2.38968 17.75 2.19891 17.75 2C17.75 1.80109 17.829 1.61032 17.9697 1.46967C18.1103 1.32902 18.3011 1.25 18.5 1.25H22.5C22.6482 1.25013 22.7931 1.29419 22.9163 1.37661C23.0395 1.45903 23.1356 1.57611 23.1923 1.71308C23.249 1.85004 23.2638 2.00074 23.235 2.14614C23.2061 2.29154 23.1348 2.42511 23.03 2.53L20.31 5.25H22.5C22.6989 5.25 22.8897 5.32902 23.0303 5.46967C23.171 5.61032 23.25 5.80109 23.25 6C23.25 6.19891 23.171 6.38968 23.0303 6.53033C22.8897 6.67098 22.6989 6.75 22.5 6.75H18.5C18.3518 6.74987 18.2069 6.70581 18.0837 6.62339C17.9605 6.54097 17.8644 6.42389 17.8077 6.28692C17.751 6.14996 17.7362 5.99926 17.765 5.85386C17.7939 5.70847 17.8652 5.57489 17.97 5.47L20.69 2.75H18.5ZM14 8.75C13.8011 8.75 13.6103 8.67098 13.4697 8.53033C13.329 8.38968 13.25 8.19891 13.25 8C13.25 7.80109 13.329 7.61032 13.4697 7.46967C13.6103 7.32902 13.8011 7.25 14 7.25H17C17.1482 7.25013 17.2931 7.29419 17.4163 7.37661C17.5395 7.45903 17.6356 7.57611 17.6923 7.71308C17.749 7.85004 17.7638 8.00074 17.735 8.14614C17.7061 8.29153 17.6348 8.42511 17.53 8.53L15.81 10.25H17C17.1989 10.25 17.3897 10.329 17.5303 10.4697C17.671 10.6103 17.75 10.8011 17.75 11C17.75 11.1989 17.671 11.3897 17.5303 11.5303C17.3897 11.671 17.1989 11.75 17 11.75H14C13.8518 11.7499 13.7069 11.7058 13.5837 11.6234C13.4605 11.541 13.3644 11.4239 13.3077 11.2869C13.251 11.15 13.2362 10.9993 13.265 10.8539C13.2939 10.7085 13.3652 10.5749 13.47 10.47L15.19 8.75H14Z" fill="#F6D72E"/>
<path d="M12.5 22C18.023 22 22.5 17.523 22.5 12C22.5 11.537 21.806 11.46 21.567 11.857C21.0572 12.7013 20.362 13.4186 19.534 13.9545C18.706 14.4903 17.7669 14.8307 16.7878 14.9499C15.8088 15.0691 14.8154 14.9639 13.883 14.6423C12.9507 14.3207 12.1037 13.7911 11.4063 13.0937C10.7089 12.3963 10.1793 11.5493 9.85772 10.617C9.53613 9.68457 9.43093 8.69123 9.5501 7.71217C9.66926 6.73311 10.0097 5.794 10.5455 4.96599C11.0814 4.13797 11.7987 3.44275 12.643 2.933C13.04 2.693 12.963 2 12.5 2C6.977 2 2.5 6.477 2.5 12C2.5 17.523 6.977 22 12.5 22Z" fill="#F6D72E"/>
</svg>
