<svg width="25" height="24" viewBox="0 0 25 24" fill="none" xmlns="http://www.w3.org/2000/svg">
<path d="M4.243 2.816C4.26156 2.59033 4.3664 2.38049 4.53572 2.23014C4.70503 2.07979 4.92579 2.00049 5.15207 2.00873C5.37836 2.01697 5.59276 2.11212 5.75068 2.2744C5.90861 2.43667 5.9979 2.65357 6 2.88V7.374C6 7.53976 6.06585 7.69873 6.18306 7.81594C6.30027 7.93315 6.45924 7.999 6.625 7.999C6.79076 7.999 6.94973 7.93315 7.06694 7.81594C7.18415 7.69873 7.25 7.53976 7.25 7.374V2.75C7.25 2.55109 7.32902 2.36032 7.46967 2.21967C7.61032 2.07902 7.80109 2 8 2C8.19891 2 8.38968 2.07902 8.53033 2.21967C8.67098 2.36032 8.75 2.55109 8.75 2.75V7.374C8.75 7.53976 8.81585 7.69873 8.93306 7.81594C9.05027 7.93315 9.20924 7.999 9.375 7.999C9.54076 7.999 9.69973 7.93315 9.81694 7.81594C9.93415 7.69873 10 7.53976 10 7.374V2.88C10.0021 2.65357 10.0914 2.43667 10.2493 2.2744C10.4072 2.11212 10.6216 2.01697 10.8479 2.00873C11.0742 2.00049 11.295 2.07979 11.4643 2.23014C11.6336 2.38049 11.7384 2.59033 11.757 2.816C11.8 3.428 12 6.37 12 8C12 9.35 11.33 10.544 10.308 11.267C10.092 11.42 10.04 11.582 10.045 11.664C10.168 13.542 10.5 18.682 10.5 19.497C10.5 20.16 10.2366 20.7959 9.76777 21.2648C9.29893 21.7336 8.66304 21.997 8 21.997C7.33696 21.997 6.70107 21.7336 6.23223 21.2648C5.76339 20.7959 5.5 20.16 5.5 19.497C5.5 18.681 5.832 13.542 5.955 11.664C5.96 11.582 5.908 11.42 5.692 11.267C5.16911 10.8976 4.74252 10.4081 4.44809 9.83958C4.15367 9.27108 4 8.64022 4 8C4 6.37 4.2 3.428 4.243 2.816ZM13.5 7.75C13.5 6.22501 14.1058 4.76247 15.1841 3.68414C16.2625 2.6058 17.725 2 19.25 2C19.4489 2 19.6397 2.07902 19.7803 2.21967C19.921 2.36032 20 2.55109 20 2.75V11.25C20 11.568 20.106 13.145 20.225 14.892L20.23 14.975C20.36 16.883 20.5 18.958 20.5 19.497C20.5 20.16 20.2366 20.7959 19.7678 21.2648C19.2989 21.7336 18.663 21.997 18 21.997C17.337 21.997 16.7011 21.7336 16.2322 21.2648C15.7634 20.7959 15.5 20.16 15.5 19.497C15.5 18.983 15.628 16.886 15.752 14.963C15.814 13.992 15.877 13.051 15.924 12.353L15.947 12H15.25C15.0202 12 14.7926 11.9547 14.5803 11.8668C14.368 11.7788 14.1751 11.6499 14.0126 11.4874C13.8501 11.3249 13.7212 11.132 13.6332 10.9197C13.5453 10.7074 13.5 10.4798 13.5 10.25V7.75Z" fill="#EB9824"/>
</svg>
