<svg width="124" height="93" viewBox="0 0 124 93" fill="none" xmlns="http://www.w3.org/2000/svg">
<g filter="url(#filter0_dd_1661_1538)">
<path d="M32 87C23.7273 87 16.66 84.1453 10.7982 78.4359C4.93636 72.7266 2.00364 65.7484 2 57.5016C2 50.4328 4.13636 44.1344 8.40909 38.6063C12.6818 33.0781 18.2727 29.5437 25.1818 28.0031C27.4545 19.6656 32 12.9141 38.8182 7.74844C45.6364 2.58281 53.3636 0 62 0C72.6364 0 81.66 3.69388 89.0709 11.0816C96.4818 18.4694 100.185 27.463 100.182 38.0625C106.455 38.7875 111.66 41.4845 115.798 46.1535C119.936 50.8225 122.004 56.2817 122 62.5312C122 69.3281 119.615 75.1064 114.844 79.866C110.073 84.6256 104.276 87.0036 97.4545 87H32Z" fill="#FBEFAB"/>
<path d="M44 30.0479H71.478L44 67.0193H71.478" stroke="#F6D72E" stroke-width="8" stroke-linecap="round" stroke-linejoin="round"/>
<path d="M73.8984 45.172L89.0588 52.5701L65.5528 63.9013L80.7132 71.2994" stroke="#EB9824" stroke-width="6" stroke-linecap="round" stroke-linejoin="round"/>
</g>
<defs>
<filter id="filter0_dd_1661_1538" x="0" y="0" width="124" height="93" filterUnits="userSpaceOnUse" color-interpolation-filters="sRGB">
<feFlood flood-opacity="0" result="BackgroundImageFix"/>
<feColorMatrix in="SourceAlpha" type="matrix" values="0 0 0 0 0 0 0 0 0 0 0 0 0 0 0 0 0 0 127 0" result="hardAlpha"/>
<feMorphology radius="2" operator="erode" in="SourceAlpha" result="effect1_dropShadow_1661_1538"/>
<feOffset dy="4"/>
<feGaussianBlur stdDeviation="2"/>
<feColorMatrix type="matrix" values="0 0 0 0 0.0745098 0 0 0 0 0.0980392 0 0 0 0 0.152941 0 0 0 0.08 0"/>
<feBlend mode="normal" in2="BackgroundImageFix" result="effect1_dropShadow_1661_1538"/>
<feColorMatrix in="SourceAlpha" type="matrix" values="0 0 0 0 0 0 0 0 0 0 0 0 0 0 0 0 0 0 127 0" result="hardAlpha"/>
<feMorphology radius="2" operator="erode" in="SourceAlpha" result="effect2_dropShadow_1661_1538"/>
<feOffset dy="2"/>
<feGaussianBlur stdDeviation="2"/>
<feColorMatrix type="matrix" values="0 0 0 0 0.0745098 0 0 0 0 0.0980392 0 0 0 0 0.152941 0 0 0 0.12 0"/>
<feBlend mode="normal" in2="effect1_dropShadow_1661_1538" result="effect2_dropShadow_1661_1538"/>
<feBlend mode="normal" in="SourceGraphic" in2="effect2_dropShadow_1661_1538" result="shape"/>
</filter>
</defs>
</svg>
