<svg width="37" height="36" viewBox="0 0 37 36" fill="none" xmlns="http://www.w3.org/2000/svg">
<path d="M18.5 2C9.652 2 2.5 9.2 2.5 18C2.5 22.2435 4.18571 26.3131 7.18629 29.3137C8.67203 30.7994 10.4359 31.978 12.3771 32.7821C14.3183 33.5861 16.3989 34 18.5 34C22.7435 34 26.8131 32.3143 29.8137 29.3137C32.8143 26.3131 34.5 22.2435 34.5 18C34.5 15.8989 34.0861 13.8183 33.2821 11.8771C32.478 9.93586 31.2994 8.17203 29.8137 6.68629C28.328 5.20055 26.5641 4.022 24.6229 3.21793C22.6817 2.41385 20.6012 2 18.5 2ZM24.1 11.6C24.7365 11.6 25.347 11.8529 25.7971 12.3029C26.2471 12.753 26.5 13.3635 26.5 14C26.5 14.6365 26.2471 15.247 25.7971 15.6971C25.347 16.1471 24.7365 16.4 24.1 16.4C23.4635 16.4 22.853 16.1471 22.4029 15.6971C21.9529 15.247 21.7 14.6365 21.7 14C21.7 13.3635 21.9529 12.753 22.4029 12.3029C22.853 11.8529 23.4635 11.6 24.1 11.6ZM12.9 11.6C13.5365 11.6 14.147 11.8529 14.5971 12.3029C15.0471 12.753 15.3 13.3635 15.3 14C15.3 14.6365 15.0471 15.247 14.5971 15.6971C14.147 16.1471 13.5365 16.4 12.9 16.4C12.2635 16.4 11.653 16.1471 11.2029 15.6971C10.7529 15.247 10.5 14.6365 10.5 14C10.5 13.3635 10.7529 12.753 11.2029 12.3029C11.653 11.8529 12.2635 11.6 12.9 11.6ZM18.5 26.8C14.772 26.8 11.604 24.464 10.324 21.2H26.676C25.38 24.464 22.228 26.8 18.5 26.8Z" fill="#91D834"/>
</svg>
