<svg width="37" height="36" viewBox="0 0 37 36" fill="none" xmlns="http://www.w3.org/2000/svg">
<path d="M18.5 2C9.652 2 2.5 9.2 2.5 18C2.5 26.8 9.652 34 18.5 34C27.3 34 34.5 26.8 34.5 18C34.5 9.2 27.3 2 18.5 2ZM24.1 11.6C25.428 11.6 26.5 12.672 26.5 14C26.5 15.328 25.428 16.4 24.1 16.4C22.772 16.4 21.7 15.328 21.7 14C21.7 12.672 22.772 11.6 24.1 11.6ZM12.9 11.6C14.228 11.6 15.3 12.672 15.3 14C15.3 15.328 14.228 16.4 12.9 16.4C11.572 16.4 10.5 15.328 10.5 14C10.5 12.672 11.572 11.6 12.9 11.6ZM10.324 26C11.604 22.736 14.772 20.4 18.5 20.4C22.228 20.4 25.396 22.736 26.676 26H10.324Z" fill="#EA6176"/>
</svg>
