<svg width="20" height="20" viewBox="0 0 20 20" fill="none" xmlns="http://www.w3.org/2000/svg">
<path d="M3.33337 17.7333V2.26663C3.33337 1.93526 3.602 1.66663 3.93337 1.66663H13.5015C13.6606 1.66663 13.8133 1.72984 13.9258 1.84236L16.491 4.40756C16.6035 4.52008 16.6667 4.67269 16.6667 4.83182V17.7333C16.6667 18.0647 16.3981 18.3333 16.0667 18.3333H3.93337C3.602 18.3333 3.33337 18.0647 3.33337 17.7333Z" stroke="#F6D72E" stroke-width="1.5" stroke-linecap="round" stroke-linejoin="round"/>
<path d="M6.66663 8.33337L13.3333 8.33337" stroke="#F6D72E" stroke-width="1.5" stroke-linecap="round" stroke-linejoin="round"/>
<path d="M6.66663 15L13.3333 15" stroke="#F6D72E" stroke-width="1.5" stroke-linecap="round" stroke-linejoin="round"/>
<path d="M6.66663 11.6666L9.99996 11.6666" stroke="#F6D72E" stroke-width="1.5" stroke-linecap="round" stroke-linejoin="round"/>
<path d="M13.3334 1.66663V4.39996C13.3334 4.73133 13.602 4.99996 13.9334 4.99996H16.6667" stroke="#F6D72E" stroke-width="1.5" stroke-linecap="round" stroke-linejoin="round"/>
</svg>
